<?xml version="1.0" encoding="UTF-8" standalone="no"?>
<svg width="35px" height="35px" viewBox="0 0 35 35" version="1.1" xmlns="http://www.w3.org/2000/svg" xmlns:xlink="http://www.w3.org/1999/xlink" xmlns:sketch="http://www.bohemiancoding.com/sketch/ns">
    <!-- Generator: Sketch 3.3.3 (12072) - http://www.bohemiancoding.com/sketch -->
    <title>icon-instagram</title>
    <desc>Created with Sketch.</desc>
    <defs></defs>
    <g id="Welcome" stroke="none" stroke-width="1" fill="none" fill-rule="evenodd" sketch:type="MSPage">
        <g id="Accueil---Desktop" sketch:type="MSArtboardGroup" transform="translate(-878.000000, -5185.000000)">
            <g id="Contact/footer" sketch:type="MSLayerGroup" transform="translate(0.000000, 4318.000000)">
                <g id="social" transform="translate(813.000000, 867.000000)" sketch:type="MSShapeGroup">
                    <g id="icon-instagram" transform="translate(65.000000, 0.000000)">
                        <path d="M17.769,34.389 C27.163,34.389 34.777,26.773 34.777,17.38 C34.777,7.988 27.163,0.373 17.769,0.373 C8.375,0.373 0.762,7.988 0.762,17.38 C0.762,26.773 8.375,34.389 17.769,34.389" id="Fill-7" fill="#1C1C1C"></path>
                        <path d="M22.988,8.877 L12.555,8.877 C10.742,8.877 9.268,10.351 9.268,12.164 L9.268,22.598 C9.268,24.411 10.742,25.885 12.555,25.885 L22.988,25.885 C24.801,25.885 26.275,24.411 26.275,22.598 L26.275,12.164 C26.275,10.351 24.801,8.877 22.988,8.877 L22.988,8.877 Z M23.932,10.837 L24.308,10.836 L24.308,13.719 L21.434,13.728 L21.424,10.845 L23.932,10.837 L23.932,10.837 Z M15.345,15.635 C15.889,14.881 16.773,14.387 17.771,14.387 C18.771,14.387 19.654,14.881 20.198,15.635 C20.554,16.127 20.766,16.729 20.766,17.381 C20.766,19.031 19.422,20.374 17.771,20.374 C16.121,20.374 14.778,19.031 14.778,17.381 C14.778,16.729 14.99,16.127 15.345,15.635 L15.345,15.635 Z M24.618,22.598 C24.618,23.497 23.888,24.227 22.988,24.227 L12.555,24.227 C11.655,24.227 10.925,23.497 10.925,22.598 L10.925,15.635 L13.464,15.635 C13.244,16.175 13.121,16.764 13.121,17.381 C13.121,19.945 15.207,22.032 17.771,22.032 C20.336,22.032 22.422,19.945 22.422,17.381 C22.422,16.764 22.298,16.175 22.079,15.635 L24.618,15.635 L24.618,22.598 L24.618,22.598 Z" id="Fill-9" fill="#F0D083"></path>
                    </g>
                </g>
            </g>
        </g>
    </g>
</svg>