<?xml version="1.0" encoding="UTF-8" standalone="no"?>
<svg width="32px" height="32px" viewBox="0 0 32 32" version="1.1" xmlns="http://www.w3.org/2000/svg" xmlns:xlink="http://www.w3.org/1999/xlink" xmlns:sketch="http://www.bohemiancoding.com/sketch/ns">
    <!-- Generator: Sketch 3.3.3 (12072) - http://www.bohemiancoding.com/sketch -->
    <title>icon-calendar</title>
    <desc>Created with Sketch.</desc>
    <defs></defs>
    <g id="Welcome" stroke="none" stroke-width="1" fill="none" fill-rule="evenodd" sketch:type="MSPage">
        <g id="Accueil---Desktop" sketch:type="MSArtboardGroup" transform="translate(-1155.000000, -3491.000000)" fill="#000000">
            <g id="Events-to-Come" sketch:type="MSLayerGroup" transform="translate(471.000000, 3240.000000)">
                <g id="Reservation-widget" transform="translate(668.000000, 168.000000)" sketch:type="MSShapeGroup">
                    <g id="icon-calendar" transform="translate(16.000000, 83.000000)">
                        <g id="Group">
                            <path d="M29.9993333,32 L2.00066667,32 C0.898,32 0.000666666667,31.1026667 0.000666666667,30 L0.000666666667,2 C0.000666666667,0.897333333 0.898,0 2.00066667,0 L29.9993333,0 C31.102,0 31.9993333,0.897333333 31.9993333,2 L31.9993333,30 C31.9993333,31.1026667 31.102,32 29.9993333,32 L29.9993333,32 Z M2.00066667,1.33333333 C1.63333333,1.33333333 1.334,1.63266667 1.334,2 L1.334,30 C1.334,30.368 1.63333333,30.6666667 2.00066667,30.6666667 L29.9993333,30.6666667 C30.3673333,30.6666667 30.666,30.368 30.666,30 L30.666,2 C30.666,1.63266667 30.3673333,1.33333333 29.9993333,1.33333333 L2.00066667,1.33333333 L2.00066667,1.33333333 Z" id="Shape"></path>
                            <path d="M30.976,9.16066667 L1.024,9.16066667 C0.656,9.16066667 0.357333333,8.862 0.357333333,8.494 C0.357333333,8.126 0.656,7.82733333 1.024,7.82733333 L30.976,7.82733333 C31.3446667,7.82733333 31.6426667,8.126 31.6426667,8.494 C31.6426667,8.862 31.3446667,9.16066667 30.976,9.16066667 L30.976,9.16066667 Z" id="Shape"></path>
                            <g transform="translate(7.333333, 3.333333)" id="Shape">
                                <path d="M2.68533333,1.68866667 L1.27666667,1.68866667 C0.908666667,1.68866667 0.61,1.39 0.61,1.022 C0.61,0.654 0.908666667,0.355333333 1.27666667,0.355333333 L2.68533333,0.355333333 C3.05333333,0.355333333 3.352,0.654 3.352,1.022 C3.352,1.39 3.05333333,1.68866667 2.68533333,1.68866667 L2.68533333,1.68866667 Z"></path>
                                <path d="M16.0553333,1.68866667 L14.6473333,1.68866667 C14.2786667,1.68866667 13.9806667,1.39 13.9806667,1.022 C13.9806667,0.654 14.2786667,0.355333333 14.6473333,0.355333333 L16.0553333,0.355333333 C16.424,0.355333333 16.722,0.654 16.722,1.022 C16.722,1.39 16.424,1.68866667 16.0553333,1.68866667 L16.0553333,1.68866667 Z"></path>
                            </g>
                            <g transform="translate(8.666667, 14.000000)" id="Shape">
                                <path d="M2.38533333,1.8 L2.35533333,1.8 L0.509333333,2.79666667 L0.231333333,1.7 L2.55066667,0.457333333 L3.77733333,0.457333333 L3.77733333,11.0833333 L2.386,11.0833333 L2.38533333,1.8 L2.38533333,1.8 Z"></path>
                                <path d="M7.652,11.084 L7.652,10.202 L8.78133333,9.106 C11.4953333,6.52333333 12.7233333,5.14933333 12.7373333,3.54666667 C12.7373333,2.46733333 12.214,1.472 10.6306667,1.472 C9.66666667,1.472 8.86266667,1.964 8.374,2.37133333 L7.91533333,1.35866667 C8.65133333,0.736 9.69733333,0.278 10.922,0.278 C13.2113333,0.278 14.1746667,1.84733333 14.1746667,3.36733333 C14.1746667,5.32866667 12.7533333,6.91466667 10.5146667,9.072 L9.66666667,9.858 L9.66666667,9.892 L14.438,9.892 L14.438,11.0846667 L7.652,11.0846667 L7.652,11.084 Z"></path>
                            </g>
                        </g>
                    </g>
                </g>
            </g>
        </g>
    </g>
</svg>