<?xml version="1.0" standalone="no"?>
<!DOCTYPE svg PUBLIC "-//W3C//DTD SVG 1.1//EN" "http://www.w3.org/Graphics/SVG/1.1/DTD/svg11.dtd" >
<svg xmlns="http://www.w3.org/2000/svg">
<metadata></metadata>
<defs>
<font id="passionsanspdagregular" horiz-adv-x="1310" >
<font-face units-per-em="2048" ascent="1638" descent="-410" />
<missing-glyph horiz-adv-x="622" />
<glyph horiz-adv-x="0" />
<glyph unicode="&#xd;" horiz-adv-x="0" />
<glyph unicode=" "  horiz-adv-x="622" />
<glyph unicode="&#x09;" horiz-adv-x="622" />
<glyph unicode="&#xa0;" horiz-adv-x="622" />
<glyph unicode="!" horiz-adv-x="417" d="M82 80q0 49 42 75.5t85 26.5t86 -26.5t43 -75.5q0 -47 -43 -73.5t-86 -26.5t-85 26.5t-42 73.5zM102 1475h215l-81 -1102h-52z" />
<glyph unicode="&#x22;" horiz-adv-x="772" d="M76 905l127 590l203 -74l-283 -532zM367 905l127 590l202 -74l-282 -532z" />
<glyph unicode="#" horiz-adv-x="1249" d="M82 506v51h225l47 361h-217v51h223l70 506h154l-68 -506h279l69 506h154l-68 -506h217v-51h-223l-49 -361h217v-51h-223l-68 -506h-155l67 506h-278l-68 -506h-156l68 506h-217zM461 557h280l47 361h-278z" />
<glyph unicode="$" horiz-adv-x="1071" d="M47 475h215q0 -100 70.5 -168.5t202.5 -68.5q131 0 202.5 68.5t71.5 168.5t-71.5 169t-202.5 69q-104 0 -189.5 21.5t-146 60.5t-92 91t-31.5 113q0 59 29.5 111.5t86 90.5t137.5 61.5t181 25.5v187h51v-187q100 -2 181 -25.5t137.5 -61.5t86 -90t29.5 -112h-215 q0 100 -64.5 169t-180.5 69q-117 0 -180.5 -68.5t-63.5 -169.5q0 -100 63.5 -167.5t180.5 -67.5q113 0 203.5 -22.5t154 -60.5t97.5 -91.5t34 -114.5t-31.5 -112.5t-92 -90.5t-146.5 -61.5t-193 -24.5v-186h-51v186q-109 2 -194 24.5t-145 61.5t-92 90.5t-32 112.5z" />
<glyph unicode="%" horiz-adv-x="1808" d="M76 1126q0 70 25.5 136.5t75.5 119t127 83t179 30.5t180 -30.5t129.5 -83t77 -119t25.5 -136.5q0 -72 -25.5 -138t-77 -118.5t-129 -83t-180.5 -30.5q-102 0 -179 30.5t-127 83t-75.5 119t-25.5 137.5zM289 1126q0 -61 12 -118.5t36.5 -102.5t61.5 -71.5t84 -26.5 q49 0 86 26.5t61.5 71.5t37 102.5t12.5 118.5t-12.5 119t-37 102t-61.5 70.5t-86 26.5q-47 0 -84 -26.5t-61.5 -70.5t-36.5 -101.5t-12 -119.5zM438 0l871 1475h59l-870 -1475h-60zM911 348q0 72 26 138.5t77 118.5t129 83t180 31t179 -31t128 -83t77 -118.5t26 -138.5 t-26 -137.5t-77 -117.5t-128 -82.5t-179 -30.5t-180 30.5t-129 82.5t-77 117.5t-26 137.5zM1126 348q0 -61 12.5 -118.5t37 -101.5t61.5 -70.5t86 -26.5q47 0 84 26.5t61.5 70.5t37 101.5t12.5 118.5t-12.5 118.5t-37 102.5t-61.5 72t-84 27q-49 0 -86 -27t-61.5 -72 t-37 -102t-12.5 -119z" />
<glyph unicode="&#x26;" horiz-adv-x="1712" d="M76 356q0 141 100 243.5t287 139.5q-166 41 -253 138.5t-87 226.5q0 82 38 152.5t108.5 124t173 84t231.5 30.5q131 0 233.5 -30.5t173 -84t107.5 -124t37 -152.5h-215q0 70 -21.5 132t-64.5 108.5t-105.5 73t-144.5 26.5q-80 0 -142.5 -26.5t-105.5 -73t-65.5 -108.5 t-22.5 -132q0 -72 22.5 -134.5t65.5 -108.5t105.5 -72.5t142.5 -26.5v-51q-92 0 -164 -27t-120 -73t-73.5 -107.5t-25.5 -132.5q0 -72 32.5 -133.5t97 -107.5t161 -72.5t223.5 -26.5q113 0 201 30.5t148 81t93 118t35 140.5q2 78 -26.5 142.5t-74.5 107.5t-102.5 61.5 t-108.5 6.5t-95.5 -58.5t-61.5 -134.5l-213 13q12 68 56 118t111 77.5t154 30.5t187 -24q68 -16 128 -8t106.5 37t73 75t26.5 101l213 -10q-31 -129 -139.5 -181.5t-305.5 -47.5q47 -12 97.5 -42t92.5 -73t69.5 -96.5t27.5 -108.5q0 -82 -42 -155.5t-128 -130t-216 -89 t-306 -32.5t-312.5 27.5t-228.5 77.5t-140 119.5t-48 151.5z" />
<glyph unicode="'" horiz-adv-x="481" d="M76 905l127 590l203 -74l-283 -532z" />
<glyph unicode="(" horiz-adv-x="604" d="M76 500q0 139 33.5 277t89 266t127 238t147.5 194l55 -17q-66 -88 -111.5 -199.5t-73.5 -235.5t-40 -257t-12 -266t12 -266.5t40 -258.5t74 -235.5t111 -198.5l-55 -16q-76 82 -147.5 192.5t-127 238.5t-89 266t-33.5 278z" />
<glyph unicode=")" horiz-adv-x="604" d="M76 -459q66 88 111.5 198.5t73.5 235.5t40 258.5t12 266.5t-12 266t-40 257t-74 235.5t-111 199.5l55 17q74 -84 145.5 -194t128 -238t90 -266t33.5 -277t-33.5 -277.5t-90 -266.5t-128 -238.5t-145.5 -192.5z" />
<glyph unicode="*" horiz-adv-x="983" d="M76 1094l65 204l326 -190l-82 367h215l-82 -367l324 190l65 -204l-375 -35l283 -248l-174 -127l-149 344l-150 -344l-174 127l283 248z" />
<glyph unicode="+" d="M98 666v143h486v485h143v-485h485v-143h-485v-486h-143v486h-486z" />
<glyph unicode="," horiz-adv-x="407" d="M-25 -416q2 18 7.5 51t12.5 76t16 92.5t20 98.5q23 113 49 243q4 27 21.5 45.5t41 28.5t50 10t51.5 -8t45 -26.5t31.5 -41t12 -48t-13.5 -48.5q-68 -117 -124 -215q-25 -43 -50.5 -86t-49 -79.5t-42 -66.5t-28.5 -44z" />
<glyph unicode="-" horiz-adv-x="663" d="M100 465v170h478v-170h-478z" />
<glyph unicode="." horiz-adv-x="417" d="M82 80q0 49 42 75.5t85 26.5t86 -26.5t43 -75.5q0 -47 -43 -73.5t-86 -26.5t-85 26.5t-42 73.5z" />
<glyph unicode="/" horiz-adv-x="647" d="M0 0l592 1475h55l-592 -1475h-55z" />
<glyph unicode="0" d="M76 737q0 150 37 287t109.5 241.5t181 167t251.5 62.5t252 -62.5t181.5 -167t109.5 -241.5t37 -287t-37 -287t-109.5 -241.5t-181 -166.5t-252.5 -62q-143 0 -251.5 62t-181 166.5t-109.5 242t-37 286.5zM291 737q0 -106 21.5 -230t66.5 -229.5t113.5 -176t162.5 -70.5 t163 70.5t114 176t66.5 229.5t21.5 230t-21.5 230.5t-66.5 230t-113.5 176t-163.5 70.5q-94 0 -162.5 -70.5t-113.5 -176t-66.5 -229.5t-21.5 -231z" />
<glyph unicode="1" d="M365 1423v52h399v-1475h-215v1423h-184z" />
<glyph unicode="2" d="M68 0q0 125 41 219t117.5 165t183 121t239.5 91q154 47 246 146.5t92 273.5q0 88 -21.5 167t-61.5 136t-98 91t-134 34t-135.5 -34t-99.5 -91t-61.5 -136t-21.5 -167h-215q0 100 36 187t104.5 151.5t168 102.5t224.5 38t223 -38t166.5 -102.5t104.5 -151.5t36 -187 q0 -98 -39 -170t-109.5 -126t-170 -95t-221.5 -78q-166 -49 -267.5 -169t-109.5 -327h958v-51h-1175z" />
<glyph unicode="3" d="M78 371h215q0 -72 23.5 -133.5t69.5 -107.5t113.5 -72.5t155.5 -26.5t156 26.5t114 72.5t69.5 107.5t23.5 133.5t-23.5 134t-69.5 108t-114 73t-156 27h-118v51h118q76 0 136.5 26.5t100.5 72.5t61.5 107.5t21.5 133.5q0 70 -21.5 132t-61.5 108.5t-100.5 73t-136.5 26.5 q-78 0 -137 -26.5t-99 -73t-61.5 -108.5t-21.5 -132h-215q0 82 36 152.5t105.5 124t167.5 84t225 30.5q125 0 224.5 -30.5t169 -84t105.5 -124t36 -152.5q0 -129 -84 -227.5t-244 -137.5q180 -37 275.5 -137t95.5 -231q0 -82 -39 -153t-113.5 -124t-182 -83.5t-243.5 -30.5 q-135 0 -242.5 30.5t-182 83.5t-113.5 124t-39 153z" />
<glyph unicode="4" d="M66 346v51l548 932h136l-547 -932h606v1078h215v-1078h221v-51h-221v-346h-215v346h-743z" />
<glyph unicode="5" d="M90 489h215q0 -96 23.5 -179t68.5 -145.5t110.5 -98t149.5 -35.5t149.5 35.5t110 98t68 145.5t23.5 179t-23.5 180.5t-68 147t-110 98t-149.5 35.5q-121 0 -199.5 -75.5t-119.5 -196.5l-2 -6h-215l158 803h888v-52h-684l-108 -536q49 53 131 83.5t174 30.5 q131 0 232.5 -40.5t171 -110.5t104.5 -163.5t35 -197.5q0 -106 -38 -199t-111 -162t-178 -108.5t-239 -39.5q-133 0 -238.5 39.5t-178 108.5t-111.5 162t-39 199z" />
<glyph unicode="6" d="M72 621q0 154 28.5 309t100 281t194.5 205t312 79q172 0 299 -78t206 -213l-153 -86q-23 70 -56.5 129.5t-77.5 103.5t-98.5 68.5t-119.5 24.5q-96 0 -172 -50.5t-127.5 -134t-78 -194.5t-26.5 -229v-11q47 78 145.5 127t221.5 49q133 0 234.5 -39.5t170 -109.5 t103 -163.5t34.5 -199.5t-37.5 -199t-110.5 -162t-178.5 -108.5t-238.5 -39.5q-162 0 -271.5 46t-177 131t-97 202.5t-29.5 261.5zM295 489q0 -96 23.5 -179t68.5 -145.5t110.5 -98t149.5 -35.5t149.5 35.5t109.5 98t67.5 145.5t23.5 179t-23.5 180.5t-67.5 147t-109.5 98 t-149.5 35.5t-149.5 -35.5t-110.5 -98t-68.5 -146.5t-23.5 -181z" />
<glyph unicode="7" d="M201 1423v52h927v-52l-632 -1423h-236l635 1423h-694z" />
<glyph unicode="8" d="M78 371q0 131 95 231t276 137q-160 39 -244 137.5t-84 227.5q0 82 36 152.5t105.5 124t167.5 84t225 30.5q125 0 224.5 -30.5t169 -84t105.5 -124t36 -152.5q0 -129 -84 -227.5t-244 -137.5q180 -37 275.5 -137t95.5 -231q0 -82 -39 -153t-113.5 -124t-182 -83.5 t-243.5 -30.5q-135 0 -242.5 30.5t-182 83.5t-113.5 124t-39 153zM293 371q0 -72 23.5 -133.5t69.5 -107.5t113.5 -72.5t155.5 -26.5t156 26.5t114 72.5t69.5 107.5t23.5 133.5t-23.5 134t-69.5 108t-114 73t-156 27t-155.5 -27t-113.5 -73t-69.5 -108.5t-23.5 -133.5z M336 1104q0 -72 21.5 -133.5t61.5 -107.5t99.5 -72.5t136.5 -26.5q76 0 136.5 26.5t100.5 72.5t61.5 107.5t21.5 133.5q0 70 -21.5 132t-61.5 108.5t-100.5 73t-136.5 26.5q-78 0 -137 -26.5t-99 -73t-61.5 -108.5t-21.5 -132z" />
<glyph unicode="9" d="M72 270l153 86q23 -70 56.5 -129t77.5 -103t98.5 -68.5t120.5 -24.5q96 0 171.5 50t127 134t78 193.5t26.5 230.5v10q-47 -78 -145.5 -127t-221.5 -49q-133 0 -234 40t-170 109.5t-103.5 163t-34.5 199.5t37.5 198.5t110.5 162t178.5 109.5t238.5 40q162 0 271.5 -47 t177 -131t97 -202t29.5 -261q0 -154 -28.5 -309.5t-100 -281.5t-194.5 -204.5t-311 -78.5q-172 0 -299 77.5t-207 212.5zM287 985q0 -96 22.5 -180t67.5 -146.5t110.5 -98.5t149.5 -36t149.5 36t110.5 98.5t68.5 146.5t23.5 180q0 94 -23.5 178t-68.5 146.5t-110.5 98.5 t-149.5 36t-149.5 -36t-110.5 -98.5t-67.5 -146.5t-22.5 -178z" />
<glyph unicode=":" horiz-adv-x="417" d="M82 80q0 49 42 75.5t85 26.5t86 -26.5t43 -75.5q0 -47 -43 -73.5t-86 -26.5t-85 26.5t-42 73.5zM82 981q0 47 42 73.5t85 26.5t86 -26.5t43 -73.5q0 -49 -43 -75.5t-86 -26.5t-85 26.5t-42 75.5z" />
<glyph unicode=";" horiz-adv-x="417" d="M-10 -416q2 18 7 51t12 76t16.5 92.5t19.5 98.5q23 113 49 243q4 27 21.5 45.5t41 27.5t50 10t51.5 -7q25 -10 45.5 -27.5t31.5 -40t12 -48t-13 -48.5q-68 -117 -125 -215q-25 -43 -50.5 -86t-49 -79.5t-42 -66.5t-28.5 -44zM82 981q0 47 42 73.5t85 26.5t86 -26.5 t43 -73.5q0 -49 -43 -75.5t-86 -26.5t-85 26.5t-42 75.5z" />
<glyph unicode="&#x3c;" d="M98 662v151l1114 485v-153l-909 -408l909 -407v-154z" />
<glyph unicode="=" d="M98 451v143h1114v-143h-1114zM98 881v143h1114v-143h-1114z" />
<glyph unicode="&#x3e;" d="M98 176v154l910 407l-910 408v153l1114 -485v-151z" />
<glyph unicode="?" horiz-adv-x="1155" d="M76 1128q0 76 33.5 143.5t98 117t158 78t212.5 28.5t212 -28.5t157.5 -78t98 -117t33.5 -143.5q0 -74 -30.5 -137t-90 -112.5t-145.5 -80t-197 -34.5l-49 -391h-51l-82 442q102 2 182 18.5t135.5 53.5t84 96t28.5 145q0 66 -18.5 123.5t-55 100.5t-90 67.5t-122.5 24.5 q-70 0 -123.5 -24.5t-90 -67.5t-55 -100.5t-18.5 -123.5h-215zM414 80q0 49 43 75.5t86 26.5t85 -26.5t42 -75.5q0 -47 -42 -73.5t-85 -26.5t-86 26.5t-43 73.5z" />
<glyph unicode="@" horiz-adv-x="1622" d="M76 743q2 162 62.5 300.5t162.5 240.5t241.5 160.5t299.5 58.5q141 0 268 -44t223.5 -126t153.5 -199.5t59 -267.5q0 -72 -21.5 -148.5t-56.5 -148.5q-29 -57 -71.5 -114.5t-95 -104.5t-112 -75.5t-122.5 -28.5q-59 0 -86 27.5t-31 64.5v22.5t2 26.5h-4 q-43 -66 -128 -108.5t-191 -32.5q-55 6 -101.5 31.5t-80 74.5t-51 120t-11.5 167q6 90 35 194.5t84 192.5t138 144.5t198 50.5q82 -4 154.5 -47.5t97.5 -120.5h4l43 139h106l-194 -647q-6 -18 -12.5 -42t-11.5 -47.5t-9 -44t-4 -32.5q-2 -39 8 -71t43 -32q25 0 48.5 10.5 t44 27t38.5 36t37 37.5q39 41 72.5 97.5t58.5 121t39 132t16 128.5q2 141 -38 253t-115.5 189.5t-183 119.5t-240.5 42q-137 0 -253 -57t-201 -156.5t-133 -231.5t-52 -282q-4 -168 40 -304t129 -231t204.5 -148.5t265.5 -55.5q92 -2 180 23.5t164 71.5t136 109.5t101 139.5 h109q-47 -86 -128 -156.5t-176 -119.5t-196.5 -76t-189.5 -25q-172 2 -314.5 58.5t-244 157t-156.5 241.5t-51 315zM506 625q-4 -68 3 -128.5t25.5 -107.5t49 -76.5t73.5 -33.5q49 -4 92.5 13t78 50t62.5 78t44 94q29 86 60.5 183.5t60.5 189.5q2 152 -56.5 223.5 t-150.5 75.5q-76 4 -137.5 -56.5t-105.5 -148.5t-69.5 -186.5t-29.5 -169.5z" />
<glyph unicode="A" horiz-adv-x="1239" d="M0 0l512 1475h215l512 -1475h-223l-166 471h-633l-164 -471h-53zM233 522h603l-301 850z" />
<glyph unicode="B" horiz-adv-x="1249" d="M111 0v1475h522q115 0 206 -30t153.5 -80t96 -118.5t33.5 -146.5q0 -119 -74.5 -211t-216.5 -129q166 -37 254.5 -139.5t88.5 -231.5q0 -82 -37 -152.5t-106.5 -123t-170 -83t-227.5 -30.5h-522zM326 51h307q78 0 138 26.5t102 72t63.5 106.5t21.5 133q0 70 -21.5 132.5 t-63.5 107.5t-102 71.5t-138 26.5h-307v-676zM326 778h307q66 0 117 25.5t85.5 70t53 102.5t18.5 124q0 68 -18.5 126t-53 102t-86 69.5t-116.5 25.5h-307v-645z" />
<glyph unicode="C" horiz-adv-x="1472" d="M76 737q0 158 47 296t136 240.5t218 162t293 59.5q115 0 212 -28.5t177 -82t139.5 -128t98.5 -166.5h-201q-25 76 -63.5 140t-92 111.5t-121 75t-149.5 27.5q-129 0 -220 -67.5t-148.5 -172t-84 -229.5t-26.5 -238q0 -115 26.5 -238.5t84 -228t148.5 -172t220 -67.5 q82 0 149.5 26.5t121 74.5t92 112.5t63.5 140.5h201q-39 -92 -98.5 -167t-139.5 -128t-177 -81.5t-212 -28.5q-164 0 -293 59t-218 161.5t-136 241t-47 295.5z" />
<glyph unicode="D" horiz-adv-x="1476" d="M111 0v1475h637q158 0 279.5 -57.5t204.5 -158t126 -234.5t43 -288t-43 -288t-126 -234t-205 -157.5t-279 -57.5h-637zM326 51h422q109 0 190.5 53.5t136.5 146.5t83 218t28 268t-28 268t-83 218.5t-137 146.5t-190 53h-422v-1372z" />
<glyph unicode="E" horiz-adv-x="1204" d="M111 0v1475h981v-52h-766v-628h551v-52h-551v-692h786v-51h-1001z" />
<glyph unicode="F" horiz-adv-x="1196" d="M111 0v1475h987v-52h-772v-628h551v-52h-551v-743h-215z" />
<glyph unicode="G" horiz-adv-x="1484" d="M76 737q0 158 47 296t136 240.5t218 162t293 59.5q115 0 212 -28.5t177 -82t139.5 -128t98.5 -166.5h-201q-25 76 -63.5 140t-92 111.5t-121 75t-149.5 27.5q-129 0 -220 -67.5t-148.5 -172t-84 -229.5t-26.5 -238q0 -115 26.5 -238.5t84 -228t148.5 -172t220 -67.5 q82 0 149.5 26.5t121 74.5t92 112.5t63.5 138.5v256h-426v51h627v-305q-39 -92 -98.5 -167t-139.5 -128t-177 -81.5t-212 -28.5q-164 0 -293 59t-218 161.5t-136 241t-47 295.5z" />
<glyph unicode="H" horiz-adv-x="1335" d="M111 0v1475h215v-682h684v682h215v-1475h-215v743h-684v-743h-215z" />
<glyph unicode="I" horiz-adv-x="436" d="M111 0v1475h215v-1475h-215z" />
<glyph unicode="J" horiz-adv-x="436" d="M-250 -195q86 0 153.5 27t113.5 73t70 107.5t24 132.5v1330h215v-1330q0 -82 -39 -152.5t-113 -123.5t-181.5 -84t-242.5 -31v51z" />
<glyph unicode="K" horiz-adv-x="1167" d="M111 0v1475h215v-721l770 721h71l-657 -609l690 -866h-264l-610 754v-754h-215z" />
<glyph unicode="L" horiz-adv-x="1206" d="M111 0v1475h215v-1424h788v-51h-1003z" />
<glyph unicode="M" horiz-adv-x="1708" d="M111 0v1475h235l518 -1373l518 1373h215v-1475h-215v1303l-495 -1303h-215l-494 1298v-1298h-67z" />
<glyph unicode="N" horiz-adv-x="1343" d="M111 0v1475h215l841 -1301v1301h66v-1475h-215l-840 1300v-1300h-67z" />
<glyph unicode="O" horiz-adv-x="1540" d="M76 737q0 158 47 296t136 240.5t218 162t293 59.5t293 -59.5t218 -162t136 -240.5t47 -296t-47 -296t-136 -240.5t-218 -161.5t-293 -59t-293 59t-218 161.5t-136 241t-47 295.5zM291 737q0 -115 26.5 -238.5t84 -228t148.5 -172t220 -67.5t220 67.5t148.5 172t84 228 t26.5 238.5q0 113 -26.5 238t-84 229.5t-148.5 172t-220 67.5t-220 -67.5t-148.5 -172t-84 -229.5t-26.5 -238z" />
<glyph unicode="P" horiz-adv-x="1165" d="M111 0v1475h475q119 0 212 -35t157.5 -95.5t99.5 -142.5t35 -176t-35 -176t-99.5 -142.5t-157.5 -95t-212 -34.5h-260v-578h-215zM326 629h260q70 0 124 30.5t91 85t55 126t18 155.5q0 82 -18 154.5t-55 127t-91.5 85t-123.5 30.5h-260v-794z" />
<glyph unicode="Q" horiz-adv-x="1540" d="M76 737q0 158 47 296t136 240.5t218 162t293 59.5t293 -59.5t218 -162t136 -240.5t47 -296q0 -117 -25.5 -222t-74.5 -194.5t-121 -159t-164 -112.5q127 -109 253 -112h9q120 0 209 75l107 -184q-61 -49 -137 -62q-28 -6 -58 -6q-50 0 -102 14q-84 23 -172 83.5 t-174 160.5q-55 -18 -116.5 -28t-127.5 -10q-164 0 -293 59t-218 161.5t-136 241t-47 295.5zM291 737q0 -117 31.5 -224t97.5 -185q55 33 122 40q16 2 34 2q51 0 106 -16q74 -20 152.5 -71.5t156.5 -135.5q68 45 116 112t80 144.5t47 162.5t15 171q0 113 -26.5 238 t-84 229.5t-148.5 172t-220 67.5t-220 -67.5t-148.5 -172t-84 -229.5t-26.5 -238zM489 135q53 -49 123 -76.5t158 -27.5q53 0 99 15t87 42q-123 106 -248 114h-23q-112 0 -196 -67z" />
<glyph unicode="R" horiz-adv-x="1150" d="M111 0v1475h469q119 0 213 -35t158.5 -95.5t98 -142.5t33.5 -176q0 -154 -90 -270.5t-260 -153.5q170 -41 260 -139t90 -225v-238h-215v238q0 70 -23.5 132t-69.5 108t-112.5 73t-154.5 27h-182v-578h-215zM326 629h254q70 0 124 30.5t90.5 85t55 126t18.5 155.5 q0 82 -18.5 154.5t-55 127t-91 85t-123.5 30.5h-254v-794z" />
<glyph unicode="S" horiz-adv-x="1253" d="M29 371h215q0 -72 25.5 -133.5t73.5 -107.5t120 -72.5t164 -26.5t163.5 26.5t119.5 72.5t74 107.5t26 133.5t-26 134t-74 108t-119.5 73t-163.5 27q-129 0 -231.5 30.5t-173 83t-108.5 124t-38 153.5t38 152.5t108.5 124t173 84t231.5 30.5t231.5 -30.5t173 -84 t108.5 -124t38 -152.5h-215q0 70 -21.5 132t-64.5 108.5t-105.5 73t-144.5 26.5t-144.5 -26.5t-105.5 -73t-64.5 -108.5t-21.5 -132q0 -72 21.5 -133.5t64.5 -107.5t105.5 -72.5t144.5 -26.5q141 0 251.5 -31t187.5 -84t118 -124.5t41 -153.5t-41 -153t-118 -124 t-187.5 -83.5t-251.5 -30.5t-253 30.5t-188.5 83.5t-116.5 124t-40 153z" />
<glyph unicode="T" horiz-adv-x="1296" d="M20 1423v52h1256v-52h-520v-1423h-215v1423h-521z" />
<glyph unicode="U" horiz-adv-x="1411" d="M111 573v902h215v-902q0 -115 30.5 -213t89 -171.5t142.5 -115.5t192 -42q115 0 200 44t142.5 119.5t85 173t27.5 205.5v902h65v-902q0 -129 -35.5 -238.5t-108.5 -188t-183.5 -122.5t-259.5 -44q-139 0 -251 45t-189.5 124.5t-119.5 188t-42 235.5z" />
<glyph unicode="V" horiz-adv-x="1239" d="M0 1475h225l480 -1373l481 1373h53l-512 -1475h-215z" />
<glyph unicode="W" horiz-adv-x="1961" d="M0 1475h225l480 -1373l249 701l-233 672h225l481 -1373l480 1373h55l-514 -1475h-215l-252 715l-254 -715h-215z" />
<glyph unicode="X" horiz-adv-x="1296" d="M0 0l561 680l-561 795h260l451 -633l518 633h69l-557 -676l562 -799h-261l-452 637l-520 -637h-70z" />
<glyph unicode="Y" horiz-adv-x="1337" d="M0 1475h246l516 -807l518 807h57l-561 -887v-588h-215v588z" />
<glyph unicode="Z" horiz-adv-x="1335" d="M92 0v51l903 1372h-882v52h1130v-52l-903 -1372h903v-51h-1151z" />
<glyph unicode="[" horiz-adv-x="657" d="M111 -475v1950h454v-52h-239v-1847h239v-51h-454z" />
<glyph unicode="\" horiz-adv-x="647" d="M0 1475h55l592 -1475h-55z" />
<glyph unicode="]" horiz-adv-x="657" d="M92 -424h240v1847h-240v52h455v-1950h-455v51z" />
<glyph unicode="^" horiz-adv-x="1263" d="M104 307l428 860h199l428 -860h-201l-397 801l-399 -801h-58z" />
<glyph unicode="_" horiz-adv-x="1024" d="M0 -111h1024v-51h-1024v51z" />
<glyph unicode="`" horiz-adv-x="0" d="M340 1501h242l243 -295h-51z" />
<glyph unicode="a" horiz-adv-x="1163" d="M76 268q0 70 43 124t112.5 90t156.5 54.5t175 18.5q70 0 121 20.5t85 54.5t51.5 77t17.5 86q0 41 -14.5 84t-45 76.5t-77 55t-109.5 21.5q-61 0 -107.5 -21.5t-77 -55t-45 -76.5t-14.5 -84h-215q0 72 41 126t105.5 89.5t146.5 54t166 18.5q82 0 165 -18.5t148.5 -54 t106.5 -90t41 -125.5v-793h-215v84q-20 -23 -58.5 -42t-85.5 -33.5t-98 -21.5t-100 -7q-90 0 -166 19t-133.5 56t-89 91.5t-31.5 121.5zM291 268q0 -43 16.5 -86t50 -76.5t85 -54t120.5 -20.5q70 0 121 20.5t85 54t51.5 76.5t17.5 86v326q-41 -41 -110 -64.5t-165 -23.5 q-70 0 -121 -21.5t-84.5 -55.5t-50 -76t-16.5 -85z" />
<glyph unicode="b" horiz-adv-x="1189" d="M111 0v1475h215v-545q47 70 117.5 110.5t166.5 40.5q121 0 214.5 -42t158 -115.5t98 -175t33.5 -218.5t-33.5 -218t-98 -175t-158 -115.5t-214.5 -41.5q-96 0 -166.5 39.5t-117.5 111.5v-131h-215zM326 279q16 -51 41.5 -96.5t59.5 -79t76 -53t91 -19.5q80 0 137 50 t94 126t55.5 162.5t18.5 160.5t-18.5 161t-55.5 163t-94 126t-137 50q-49 0 -91 -19.5t-76 -53t-59.5 -78.5t-41.5 -97v-503z" />
<glyph unicode="c" horiz-adv-x="1144" d="M76 530q0 117 35.5 218.5t103.5 175t164 115.5t217 42q174 0 295 -80.5t178 -220.5h-203q-35 104 -101.5 177t-168.5 73q-80 0 -137.5 -50t-94 -126t-55 -163t-18.5 -161t18.5 -160.5t55 -162.5t94 -126t137.5 -50q102 0 168.5 72.5t101.5 177.5h203q-57 -139 -178 -220 t-295 -81q-121 0 -217 41.5t-164 115.5t-103.5 175.5t-35.5 217.5z" />
<glyph unicode="d" horiz-adv-x="1189" d="M76 530q0 117 33.5 218.5t98 175t159 115.5t215.5 42q94 0 164.5 -41t117.5 -110v545h215v-1475h-215v131q-47 -72 -117.5 -111.5t-164.5 -39.5q-121 0 -215.5 41.5t-159 115.5t-98 175.5t-33.5 217.5zM291 530q0 -74 18.5 -160.5t55 -162.5t94 -126t137.5 -50 q51 0 93 19.5t75 53t58.5 78.5t41.5 97v503q-16 51 -41.5 96.5t-58.5 79t-75 53t-93 19.5q-80 0 -137.5 -50t-94 -126t-55 -163t-18.5 -161z" />
<glyph unicode="e" horiz-adv-x="1191" d="M76 530q0 117 35.5 218.5t103.5 175t164 115.5t217 42t217 -42t163.5 -115.5t103.5 -175t36 -218.5h-825q0 -74 18.5 -160.5t55 -162.5t94 -126t137.5 -50q102 0 168.5 72.5t101.5 177.5h203q-57 -139 -178 -220t-295 -81q-121 0 -217 41.5t-164 115.5t-103.5 175.5 t-35.5 217.5zM293 582h608q-4 82 -23.5 162.5t-58.5 144t-94 102.5t-129 39t-129 -39t-93 -102.5t-58.5 -144t-22.5 -162.5z" />
<glyph unicode="f" horiz-adv-x="466" d="M0 1010v51h111v229q0 102 49 153.5t172 51.5q57 0 106 -22v-64q-8 10 -24.5 18.5t-38.5 8.5q-29 0 -39 -29t-10 -61v-285h141v-51h-141v-1010h-215v1010h-111z" />
<glyph unicode="g" horiz-adv-x="1034" d="M41 -203h215q0 -102 67.5 -171.5t192.5 -69.5q127 0 194.5 69.5t67.5 171.5q0 104 -67.5 174t-194.5 70q-174 0 -276.5 36t-102.5 91q0 37 48 65.5t139 42.5q-121 43 -184.5 147.5t-63.5 238.5q0 90 30.5 166.5t88 133t138.5 88t183 31.5h422v-51h-193 q104 -47 158.5 -146.5t54.5 -221.5q0 -90 -30.5 -167t-88 -133.5t-139.5 -88t-184 -31.5q-78 0 -121 -21.5t-43 -52.5q0 -33 43 -54.5t121 -21.5q111 0 199 -22.5t150.5 -62.5t95 -93.5t32.5 -116.5t-32.5 -116.5t-95 -92.5t-150.5 -61.5t-199 -22.5t-199 22.5t-149.5 61.5 t-94 92.5t-32.5 116.5zM291 662q0 -55 13 -120t41 -120t70 -92t101 -37t102.5 37t71 92t40.5 120t13 120t-13 119.5t-40.5 119.5t-71 92t-102.5 37t-101 -37t-70 -92t-41 -119.5t-13 -119.5z" />
<glyph unicode="h" horiz-adv-x="1171" d="M111 0v1475h215v-576q45 82 129 132t204 50q94 0 168 -29.5t126.5 -81.5t80 -124t27.5 -156v-690h-215v690q0 72 -17.5 134.5t-50.5 108.5t-82 71.5t-110 25.5t-110.5 -25.5t-82.5 -71.5t-50 -108.5t-17 -134.5v-690h-215z" />
<glyph unicode="i" horiz-adv-x="436" d="M90 1395q0 25 12.5 43t31 30.5t41 19.5t42.5 7q43 0 86 -26.5t43 -73.5q0 -25 -12 -44.5t-30.5 -31.5t-41 -19.5t-43.5 -7.5q-43 0 -86 27t-43 76zM111 197v864h215v-920q0 -33 10 -61.5t39 -28.5q23 0 39 8.5t24 18.5v-64q-41 -22 -101 -22h-5q-123 0 -172 51t-49 154z " />
<glyph unicode="j" horiz-adv-x="436" d="M-2 -410q8 -10 24.5 -18t38.5 -8q29 0 39.5 28.5t10.5 61.5v1407h215v-1352q0 -102 -49.5 -153.5t-172.5 -51.5q-57 0 -106 23v63zM90 1395q0 25 12.5 43t31 30.5t41 19.5t42.5 7q43 0 86 -26.5t43 -73.5q0 -25 -12 -44.5t-30.5 -31.5t-41 -19.5t-43.5 -7.5q-43 0 -86 27 t-43 76z" />
<glyph unicode="k" horiz-adv-x="962" d="M111 0v1475h215v-918l561 504h76l-449 -397l485 -664h-258l-415 557v-557h-215z" />
<glyph unicode="l" horiz-adv-x="436" d="M111 197v1278h215v-1334q0 -33 10 -61.5t39 -28.5q23 0 39 8.5t24 18.5v-64q-41 -22 -101 -22h-5q-123 0 -172 51t-49 154z" />
<glyph unicode="m" horiz-adv-x="1906" d="M111 0v1061h215v-162q45 82 129 132t204 50q141 0 234.5 -65.5t134.5 -169.5q41 104 133 169.5t234 65.5q94 0 167.5 -29.5t126 -81.5t80 -124t27.5 -156v-690h-215v690q0 72 -17.5 134.5t-50 108.5t-82 71.5t-110.5 25.5t-110.5 -25.5t-82 -71.5t-50 -108.5 t-17.5 -134.5v-690h-215v690q0 72 -17.5 134.5t-50.5 108.5t-82 71.5t-110 25.5t-110.5 -25.5t-82.5 -71.5t-50 -108.5t-17 -134.5v-690h-215z" />
<glyph unicode="n" horiz-adv-x="1171" d="M111 0v1061h215v-162q45 82 129 132t204 50q94 0 168 -29.5t126.5 -81.5t80 -124t27.5 -156v-690h-215v690q0 72 -17.5 134.5t-50.5 108.5t-82 71.5t-110 25.5t-110.5 -25.5t-82.5 -71.5t-50 -108.5t-17 -134.5v-690h-215z" />
<glyph unicode="o" horiz-adv-x="1191" d="M76 530q0 117 35.5 218.5t103.5 175t164 115.5t217 42t217 -42t163.5 -115.5t103.5 -175t36 -218.5t-36 -218t-103.5 -175t-163.5 -115.5t-217 -41.5t-217 41.5t-164 115.5t-103.5 175.5t-35.5 217.5zM291 530q0 -74 18.5 -160.5t55 -162.5t94 -126t137.5 -50t137.5 50 t94 126t55 162.5t18.5 160.5t-18.5 161t-55 163t-94 126t-137.5 50t-137.5 -50t-94 -126t-55 -163t-18.5 -161z" />
<glyph unicode="p" horiz-adv-x="1189" d="M111 -475v1536h215v-131q47 72 117.5 111.5t166.5 39.5q121 0 214.5 -42t158 -115.5t98 -175t33.5 -218.5t-33.5 -218t-98 -175t-158 -115.5t-214.5 -41.5q-96 0 -166.5 40.5t-117.5 110.5v-606h-215zM326 279q16 -51 41.5 -96.5t59.5 -79t76 -53t91 -19.5q80 0 137 50 t94 126t55.5 162.5t18.5 160.5t-18.5 161t-55.5 163t-94 126t-137 50q-49 0 -91 -19.5t-76 -53t-59.5 -78.5t-41.5 -97v-503z" />
<glyph unicode="q" horiz-adv-x="1189" d="M76 530q0 117 33.5 218.5t98 175t159 115.5t215.5 42q94 0 164.5 -40t117.5 -111v131h215v-1536h-215v606q-47 -70 -117.5 -110.5t-164.5 -40.5q-121 0 -215.5 41.5t-159 115.5t-98 175.5t-33.5 217.5zM291 530q0 -74 18.5 -160.5t55 -162.5t94 -126t137.5 -50 q51 0 93 19.5t75 53t58.5 78.5t41.5 97v503q-16 51 -41.5 96.5t-58.5 79t-75 53t-93 19.5q-80 0 -137.5 -50t-94 -126t-55 -163t-18.5 -161z" />
<glyph unicode="r" horiz-adv-x="786" d="M111 0v1061h215v-162q45 80 127 130t198 52q12 0 24.5 -1t24.5 -3l-77 -84q-16 37 -45 37q-59 -2 -106.5 -28.5t-80.5 -71.5t-49 -106.5t-16 -133.5v-690h-215z" />
<glyph unicode="s" horiz-adv-x="1071" d="M47 268h215q0 -100 70.5 -168.5t202.5 -68.5q131 0 202.5 68.5t71.5 168.5t-71.5 169t-202.5 69q-104 0 -189.5 21.5t-146 60.5t-92 91t-31.5 114q0 61 31.5 114.5t92 92t145.5 60t190 21.5q106 0 191 -21.5t144.5 -60t92 -92t32.5 -114.5h-215q0 100 -64.5 168.5 t-180.5 68.5q-117 0 -180.5 -68.5t-63.5 -168.5t63.5 -168t180.5 -68q113 0 203.5 -22.5t154 -60.5t97.5 -91.5t34 -114.5t-34 -114.5t-97.5 -92t-154.5 -60t-203 -21.5q-113 0 -203 21.5t-153.5 60t-97.5 92t-34 114.5z" />
<glyph unicode="t" horiz-adv-x="466" d="M0 1010v51h111v182l215 49v-231h141v-51h-141v-826q0 -63 12 -104t47 -41q10 0 25.5 3t27.5 13v-53q-47 -22 -101 -22h-5q-123 0 -172 51t-49 153v826h-111z" />
<glyph unicode="u" horiz-adv-x="1171" d="M111 371v690h215v-690q0 -72 17 -134.5t50 -108.5t82 -71.5t111 -25.5q61 0 110 25.5t82 71.5t50.5 108.5t17.5 134.5v690h215v-1061h-215v162q-45 -82 -129 -132t-205 -50q-94 0 -168 29.5t-126 81.5t-79.5 124t-27.5 156z" />
<glyph unicode="v" horiz-adv-x="966" d="M0 1061h225l344 -961l344 961h54l-375 -1061h-215z" />
<glyph unicode="w" horiz-adv-x="1607" d="M0 1061h225l344 -961l207 566l-137 395h225l344 -961l344 961h56l-377 -1061h-215l-213 584l-211 -584h-215z" />
<glyph unicode="x" horiz-adv-x="1001" d="M0 0l414 479l-414 582h258l309 -426l363 426h71l-403 -469l418 -592h-258l-316 436l-370 -436h-72z" />
<glyph unicode="y" horiz-adv-x="1171" d="M39 -166h213q31 -123 102.5 -200.5t177.5 -77.5q76 0 134.5 35.5t98.5 96t60.5 141.5t20.5 171v162q-45 -82 -129 -132t-205 -50q-94 0 -168 29.5t-126 81.5t-79.5 124t-27.5 156v690h215v-690q0 -72 17 -134.5t50 -108.5t82 -71.5t111 -25.5q61 0 110 25.5t82 71.5 t50.5 108.5t17.5 134.5v690h215v-1061q0 -100 -36 -190.5t-103.5 -158t-166 -107.5t-223.5 -40q-203 0 -330.5 92.5t-162.5 237.5z" />
<glyph unicode="z" horiz-adv-x="1130" d="M92 0v51l688 959h-667v51h925v-51l-688 -959h688v-51h-946z" />
<glyph unicode="{" horiz-adv-x="729" d="M92 473v53q29 0 49.5 17.5t34.5 45t20.5 62.5t6.5 72v430q0 61 15 119.5t43 102.5t64.5 72t80.5 28h231v-52h-105q-31 0 -52 -26.5t-35.5 -68.5t-20.5 -94t-6 -104v-413q0 -70 -24.5 -132.5t-78.5 -84.5q53 -23 78 -85.5t25 -131.5v-414q0 -51 6 -103.5t20.5 -94.5 t36 -68.5t51.5 -26.5h105v-51h-231q-43 0 -80 27.5t-65 71.5t-43 102.5t-15 119.5v430q0 37 -6.5 72t-20.5 62.5t-34.5 45t-49.5 17.5z" />
<glyph unicode="|" horiz-adv-x="374" d="M111 -20v1515h153v-1515h-153z" />
<glyph unicode="}" horiz-adv-x="729" d="M92 -424h105q31 0 53 26.5t35.5 68.5t20.5 94.5t7 103.5v414q0 70 23.5 132t77.5 85q-53 23 -77 85t-24 132v413q0 51 -7 103.5t-20.5 94.5t-36 68.5t-52.5 26.5h-105v52h232q43 0 80.5 -28t65.5 -72t43 -102.5t15 -119.5v-430q0 -37 6.5 -72t20.5 -62.5t33.5 -45 t48.5 -17.5v-51v-2q-29 0 -48.5 -17.5t-33.5 -45t-20.5 -62.5t-6.5 -72v-430q0 -61 -15 -119.5t-43 -102.5t-65.5 -71.5t-80.5 -27.5h-232v51z" />
<glyph unicode="~" horiz-adv-x="1234" d="M70 739q35 66 99 94.5t136 28.5q74 0 138.5 -21.5t123 -48t112.5 -48t105 -21.5q61 0 112.5 36t80.5 89l192 -98q-35 -66 -99 -94.5t-136 -28.5q-74 0 -138.5 21.5t-123 48t-112.5 48t-105 21.5q-61 0 -113.5 -36t-81.5 -89z" />
<glyph unicode="&#xa1;" horiz-adv-x="417" d="M82 920q0 47 42 73.5t85 26.5t86 -26.5t43 -73.5q0 -49 -43 -76t-86 -27t-85 26.5t-42 76.5zM102 -475l82 1102h52l81 -1102h-215z" />
<glyph unicode="&#xa2;" horiz-adv-x="1144" d="M76 737q0 117 35.5 218.5t103.5 175t164 115.5t217 42h19.5t19.5 -2l31 189h51l-31 -193q139 -20 236.5 -97t146.5 -198h-203q-35 104 -101.5 177t-168.5 73q-80 0 -137.5 -50t-94 -126t-55 -163t-18.5 -161t18.5 -161t55 -162.5t94 -125.5t137.5 -50q102 0 168.5 72.5 t101.5 176.5h203q-57 -139 -178 -220t-295 -81q-43 0 -86 7l-31 -193h-51l33 201q-90 20 -162 69t-121 120t-75.5 159t-26.5 188z" />
<glyph unicode="&#xa3;" horiz-adv-x="1366" d="M-10 743v52l155 -2q-29 51 -49 104t-20 119q0 113 43 202t114.5 150.5t168 94t204.5 32.5q106 0 203.5 -32.5t169.5 -94t115 -151t43 -201.5h-215q0 72 -19.5 147.5t-58.5 138t-98.5 102.5t-139.5 40t-139 -40t-98 -102.5t-58.5 -138.5t-19.5 -147q0 -59 20.5 -113.5 t46.5 -107.5h471v-52h-448q37 -74 64.5 -146.5t27.5 -150.5q0 -66 -20.5 -124t-57.5 -111q37 2 74 -4t78 -10q55 -4 101 -22.5t90 -39t88 -37t96 -16.5q88 0 161.5 51t116.5 127l184 -115q-51 -84 -133 -124.5t-180 -40.5q-92 0 -167 27.5t-139.5 59t-124.5 59.5t-124 28 q-94 0 -162.5 -52.5t-117.5 -124.5l-183 115q27 39 62 86t65.5 98.5t51 105.5t20.5 110q0 70 -22.5 129t-55.5 122h-184z" />
<glyph unicode="&#xa4;" horiz-adv-x="1159" d="M76 737q0 96 34.5 184.5t100.5 157.5l-127 127l27 27l127 -127q70 66 157.5 100.5t184.5 34.5q96 0 184 -35t160 -100l125 127l26 -27l-125 -127q66 -70 99.5 -158t33.5 -184t-33.5 -184t-99.5 -158l125 -127l-26 -26l-125 127q-72 -66 -160 -101t-184 -35t-184.5 35 t-157.5 101l-127 -127l-27 26l127 127q-66 70 -100.5 158t-34.5 184zM229 737q0 -74 23.5 -155.5t69 -150.5t111 -115t147.5 -46t147.5 46t110.5 115t68.5 150.5t23.5 155.5t-23.5 156t-68.5 150.5t-110.5 114.5t-147.5 46t-147.5 -46t-111 -114.5t-69 -150.5t-23.5 -156z " />
<glyph unicode="&#xa5;" horiz-adv-x="1337" d="M0 1475h246l516 -807l518 807h57l-434 -680h187v-52h-218l-96 -155v-94h314v-52h-314v-442h-215v442h-313v52h313v94l-96 153h-217v52h188z" />
<glyph unicode="&#xa6;" horiz-adv-x="374" d="M111 -20v583h153v-583h-153zM111 911v584h153v-584h-153z" />
<glyph unicode="&#xa7;" horiz-adv-x="1204" d="M76 -147h215q0 -61 20.5 -115.5t60.5 -94.5t97 -63.5t133 -23.5q74 0 132.5 23.5t98 63.5t60 94t20.5 116q0 61 -20.5 116.5t-60 95t-98 63.5t-132.5 24q-123 0 -221 26.5t-166 73.5t-103.5 110.5t-35.5 137.5q0 113 81 200.5t234 122.5q-154 35 -234.5 123t-80.5 201 q0 74 35.5 137.5t103.5 110.5t166 73.5t221 26.5t221.5 -26.5t166 -73.5t103 -110.5t35.5 -137.5h-215q0 61 -20.5 115.5t-60 94.5t-98 63.5t-132.5 23.5q-76 0 -133 -23.5t-97 -63.5t-60.5 -94.5t-20.5 -115.5t20.5 -116.5t60.5 -95.5t97 -63.5t133 -23.5 q123 0 221.5 -26.5t166 -74t103 -111t35.5 -136.5q0 -113 -80.5 -201t-234.5 -123q154 -35 234.5 -122.5t80.5 -200.5q0 -74 -35.5 -137.5t-103 -110.5t-166 -74t-221.5 -27t-221 27t-166 74t-103.5 110.5t-35.5 137.5zM291 500q0 -61 20.5 -115.5t60.5 -94.5t97 -63.5 t133 -23.5q74 0 132.5 23.5t98 63.5t60 94.5t20.5 115.5t-20.5 115.5t-60 94.5t-98 63.5t-132.5 23.5q-76 0 -133 -23.5t-97 -63.5t-60.5 -94.5t-20.5 -115.5z" />
<glyph unicode="&#xa8;" horiz-adv-x="0" d="M285 1270q0 39 33.5 60.5t68.5 21.5t70 -21.5t35 -60.5q0 -41 -35 -62.5t-70 -21.5t-68.5 21.5t-33.5 62.5zM702 1270q0 39 34 60.5t69 21.5t68.5 -21.5t33.5 -60.5q0 -41 -33.5 -62.5t-68.5 -21.5t-69 21.5t-34 62.5z" />
<glyph unicode="&#xa9;" horiz-adv-x="1667" d="M76 737q0 156 59.5 294t162.5 241.5t240.5 163t295.5 59.5q156 0 294 -59.5t241.5 -163t162.5 -241.5t59 -294q0 -158 -59 -295t-162.5 -240.5t-242 -162.5t-293.5 -59q-158 0 -295.5 59t-240.5 162.5t-162.5 241t-59.5 294.5zM205 737q0 -129 49 -243.5t135 -200.5 t201 -135t244 -49t243.5 49t200.5 135t135 200.5t49 243.5t-49 244t-135 201t-200.5 135t-243.5 49t-244 -49t-201 -135t-135 -201t-49 -244zM377 737q0 106 31.5 199.5t91 162t144.5 107.5t194 39q152 0 258 -74.5t157 -201.5h-155q-35 98 -98.5 165.5t-161.5 67.5 q-76 0 -131.5 -46t-92 -114.5t-54 -150.5t-17.5 -154t17.5 -153.5t54 -151.5t92 -115t131.5 -45q98 0 161.5 68t98.5 166h155q-51 -127 -157.5 -202t-257.5 -75q-109 0 -194 39t-144.5 107.5t-91 161t-31.5 200.5z" />
<glyph unicode="&#xaa;" horiz-adv-x="778" d="M76 1004q0 43 26.5 75.5t68.5 54t95 33t107 11.5q78 0 115.5 44t37.5 95q0 49 -32.5 95t-104.5 46t-104.5 -46t-32.5 -95h-141q0 43 24.5 76.5t64.5 56.5t89 34t100 11t100.5 -11t89 -34t64.5 -56.5t25 -76.5v-469h-142v31q-27 -23 -85 -36.5t-111 -13.5 q-109 0 -181.5 46.5t-72.5 128.5zM217 1004q0 -51 39 -94.5t117 -43.5t115.5 43t37.5 95v180q-27 -18 -65.5 -29.5t-87.5 -11.5q-78 0 -117 -44t-39 -95z" />
<glyph unicode="&#xab;" horiz-adv-x="802" d="M92 446v191l311 244v-76l-229 -182l229 -181v-239zM399 446v191l312 244v-76l-230 -182l230 -181v-239z" />
<glyph unicode="&#xac;" horiz-adv-x="436" d="M0 633v61l111 78v703h215v-551l110 75v-61l-110 -78v-719q0 -33 10 -61.5t39 -28.5q23 0 39 8.5t24 18.5v-64q-43 -23 -106 -22q-123 0 -172 51t-49 154v514z" />
<glyph unicode="&#xad;" horiz-adv-x="663" d="M100 465v170h478v-170h-478z" />
<glyph unicode="&#xae;" horiz-adv-x="1140" d="M76 999q0 102 39 192.5t105.5 158t156.5 106.5t192 39t192.5 -39t158 -105.5t106.5 -157t39 -192.5t-39 -192t-105.5 -157.5t-156.5 -106.5t-193 -39q-102 0 -192 39t-157.5 105.5t-106.5 156.5t-39 192zM174 1001q0 -84 31 -155.5t85 -125.5t125.5 -85t153.5 -31t155 31 t127 85t85 126t31 155v-2q0 82 -31 155t-85 127t-126 85t-154 31q-84 0 -155.5 -31t-125.5 -85t-85 -126t-31 -154zM373 709v571h209q94 0 146 -50t52 -124q0 -59 -34.5 -104.5t-100.5 -61.5q66 -16 100.5 -54t34.5 -87v-90h-90v90q0 55 -34.5 93t-100.5 38h-94v-221h-88z M461 954h125q51 0 77.5 44.5t26.5 107.5t-26.5 106t-77.5 43h-125v-301z" />
<glyph unicode="&#xaf;" horiz-adv-x="0" d="M311 1206v78h570v-78h-570z" />
<glyph unicode="&#xb0;" horiz-adv-x="845" d="M76 1210q0 63 27.5 115.5t74.5 90.5t110.5 58.5t135.5 20.5t134.5 -20.5t109.5 -58.5t74.5 -90.5t27.5 -115.5q0 -66 -27.5 -118t-74.5 -89.5t-109.5 -58t-134.5 -20.5t-135.5 20.5t-110.5 58t-74.5 90t-27.5 117.5zM219 1210q0 -37 11.5 -75.5t36 -71.5t63.5 -54.5 t94 -21.5q53 0 92 21.5t63.5 54.5t36 71.5t11.5 75.5q0 35 -11.5 74t-36 72t-63.5 54.5t-92 21.5q-55 0 -94 -21.5t-63.5 -54.5t-36 -72t-11.5 -74z" />
<glyph unicode="&#xb1;" d="M98 86v143h1114v-143h-1114zM98 799v143h486v447h143v-447h485v-143h-485v-449h-143v449h-486z" />
<glyph unicode="&#xb2;" horiz-adv-x="765" d="M43 627q0 74 23.5 129t67.5 96t105.5 71.5t139.5 53.5q74 23 120 81t46 161q0 100 -42 170.5t-120 70.5t-120 -70.5t-42 -170.5h-145q0 57 20.5 107t60.5 88t97 59.5t129 21.5t129 -21.5t97 -59.5t60.5 -88t20.5 -107q0 -59 -21.5 -101.5t-61.5 -75t-96 -56t-124 -44.5 q-86 -27 -139 -94.5t-60 -183.5h517v-37h-662z" />
<glyph unicode="&#xb3;" horiz-adv-x="808" d="M61 838h146q0 -82 49 -138.5t141 -56.5t141.5 56.5t49.5 138.5t-49.5 138t-141.5 56h-69v37h69q80 0 123 56.5t43 138.5t-43 139t-123 57t-123 -57t-43 -139h-143q0 98 81 164.5t228 66.5t228.5 -66.5t81.5 -164.5q0 -72 -44.5 -129.5t-130.5 -81.5q98 -25 149.5 -83 t51.5 -132q0 -98 -88 -165t-248 -67t-248 66.5t-88 165.5z" />
<glyph unicode="&#xb4;" horiz-adv-x="0" d="M367 1206l243 295h242l-434 -295h-51z" />
<glyph unicode="&#xb5;" horiz-adv-x="1171" d="M111 -475v1536h215v-690q0 -72 17 -134.5t50 -108.5t82 -71.5t111 -25.5q61 0 110 25.5t82 71.5t50.5 108.5t17.5 134.5v690h215v-1061h-215v162q-37 -74 -108.5 -123t-176.5 -53q-82 -4 -141.5 27.5t-93.5 80.5v-569h-215z" />
<glyph unicode="&#xb6;" horiz-adv-x="1167" d="M76 1049q0 88 33.5 165.5t91 135t135.5 91.5t166 34h665v-35h-110v-1915h-154v1915h-248v-1915h-153v1098q-88 0 -166 33.5t-135.5 91t-91 135.5t-33.5 166z" />
<glyph unicode="&#xb7;" horiz-adv-x="417" d="M82 737q0 53 37 91t90 38t91 -38t38 -91t-38 -91t-91 -38t-90 38t-37 91z" />
<glyph unicode="&#xb8;" horiz-adv-x="0" d="M324 -162l122 164h175l-113 -156q12 2 27.5 3t31.5 1q135 -2 218 -47t83 -106q0 -31 -23.5 -59.5t-64.5 -49t-99 -33t-128 -12.5q-92 0 -156 25l49 63q16 -20 44 -32.5t63 -12.5q63 0 98 32t35 79t-35 78.5t-98 31.5q-37 0 -61.5 -12t-45.5 -33z" />
<glyph unicode="&#xb9;" horiz-adv-x="452" d="M92 1438v37h250v-848h-143v811h-107z" />
<glyph unicode="&#xba;" horiz-adv-x="780" d="M76 1161q0 72 21.5 133.5t62.5 105.5t99 69.5t132 25.5q72 0 130.5 -25.5t99.5 -69.5t62.5 -105.5t21.5 -133.5t-21.5 -132t-62.5 -104t-99.5 -70t-130.5 -26q-74 0 -132 26t-99 70t-62.5 104.5t-21.5 131.5zM217 1161q0 -43 10.5 -94t32 -96t54 -75t77.5 -30t77 30 t53.5 75t31.5 96t10 94t-10 95.5t-31.5 97.5t-53.5 74.5t-77 29.5t-77.5 -29.5t-54 -74.5t-32 -97.5t-10.5 -95.5z" />
<glyph unicode="&#xbb;" horiz-adv-x="802" d="M92 203v76l230 182l-230 180v240l311 -244v-191zM399 203v76l230 182l-230 180v240l312 -244v-191z" />
<glyph unicode="&#xbc;" horiz-adv-x="1308" d="M92 1438v37h250v-848h-143v811h-107zM117 0l846 1475h41l-846 -1475h-41zM465 199v37l354 534h105l-357 -534h389v612h144v-612h117v-37h-117v-199h-144v199h-491z" />
<glyph unicode="&#xbd;" horiz-adv-x="1415" d="M92 1438v37h250v-848h-143v811h-107zM117 0l846 1475h41l-846 -1475h-41zM668 0q0 74 23.5 128t67.5 96t105.5 72t139.5 52q74 23 119.5 82t45.5 162q0 100 -42 169.5t-119 69.5q-78 0 -121 -69.5t-43 -169.5h-144q0 57 20.5 107.5t60.5 88t97.5 59t129.5 21.5t129 -21.5 t96 -59t59.5 -88t20.5 -107.5q0 -59 -21.5 -102.5t-60.5 -75t-95.5 -55t-123.5 -44.5q-86 -27 -139.5 -95t-59.5 -183h516v-37h-661z" />
<glyph unicode="&#xbe;" horiz-adv-x="1589" d="M61 838h146q0 -82 49 -138.5t141 -56.5t141.5 56.5t49.5 138.5t-49.5 138t-141.5 56h-69v37h69q80 0 123 56.5t43 138.5t-43 139t-123 57t-123 -57t-43 -139h-143q0 98 81 164.5t228 66.5t228.5 -66.5t81.5 -164.5q0 -72 -44.5 -129.5t-130.5 -81.5q98 -25 149.5 -83 t51.5 -132q0 -98 -88 -165t-248 -67t-248 66.5t-88 165.5zM399 0l846 1475h41l-846 -1475h-41zM756 199v37l354 534h104l-356 -534h389v612h144v-612h116v-37h-116v-199h-144v199h-491z" />
<glyph unicode="&#xbf;" horiz-adv-x="1155" d="M76 -135q0 74 30.5 138.5t90 113.5t145.5 78.5t197 33.5l49 394h51l82 -443q-102 -2 -182 -18.5t-135.5 -53t-84 -97t-28.5 -146.5q0 -66 18.5 -123t55 -99t90 -67t123.5 -25t123 25t89.5 67t55 99t18.5 123h215q0 -76 -33.5 -142.5t-98 -115.5t-158 -78t-211.5 -29 q-119 0 -212.5 29t-158 78t-98 115.5t-33.5 142.5zM485 913q0 49 42 76t85 27t86 -27t43 -76q0 -47 -43 -73.5t-86 -26.5t-85 26.5t-42 73.5z" />
<glyph unicode="&#xc0;" horiz-adv-x="1239" d="M0 0l512 1475h215l512 -1475h-223l-166 471h-633l-164 -471h-53zM233 522h603l-301 850zM238 1909h239l246 -295h-51z" />
<glyph unicode="&#xc1;" horiz-adv-x="1239" d="M0 0l512 1475h215l512 -1475h-223l-166 471h-633l-164 -471h-53zM233 522h603l-301 850zM506 1614l244 295h241l-434 -295h-51z" />
<glyph unicode="&#xc2;" horiz-adv-x="1239" d="M0 0l512 1475h215l512 -1475h-223l-166 471h-633l-164 -471h-53zM233 522h603l-301 850zM313 1614l238 295h137l240 -295h-158l-205 254l-207 -254h-45z" />
<glyph unicode="&#xc3;" horiz-adv-x="1239" d="M0 0l512 1475h215l512 -1475h-223l-166 471h-633l-164 -471h-53zM207 1686q29 59 77 84.5t101 25.5q51 0 100.5 -19.5t95.5 -44t87 -44t75 -19.5q47 0 85 32t61 81l143 -78q-27 -59 -76 -85t-102 -26q-51 0 -100 19.5t-94.5 44t-86.5 44t-77 19.5q-47 0 -85 -31.5 t-61 -80.5zM233 522h603l-301 850z" />
<glyph unicode="&#xc4;" horiz-adv-x="1239" d="M0 0l512 1475h215l512 -1475h-223l-166 471h-633l-164 -471h-53zM233 522h603l-301 850zM309 1675q0 41 35 62.5t70 21.5t68.5 -21.5t33.5 -62.5q0 -39 -33.5 -60.5t-68.5 -21.5t-70 21.5t-35 60.5zM727 1675q0 41 35 62.5t69 21.5q35 0 69 -21.5t34 -62.5 q0 -39 -34 -60.5t-69 -21.5t-69.5 21.5t-34.5 60.5z" />
<glyph unicode="&#xc5;" horiz-adv-x="1239" d="M0 0l512 1475h215l512 -1475h-223l-166 471h-633l-164 -471h-53zM233 520h603l-301 852zM369 1741q0 94 71.5 151.5t180.5 57.5q106 0 177.5 -57.5t71.5 -151.5q0 -47 -19.5 -85t-53 -65.5t-78.5 -43t-98 -15.5t-99.5 15.5t-80 43t-53 65.5t-19.5 85zM471 1741 q0 -25 8 -55.5t25.5 -58.5t46.5 -46t70 -18t69.5 18t46 46t25.5 58.5t8 55.5t-8 56.5t-25.5 59t-46 46t-69.5 18.5t-70 -18.5t-46.5 -46t-25.5 -59.5t-8 -56z" />
<glyph unicode="&#xc6;" horiz-adv-x="1923" d="M0 0l715 1475h1095v-52h-766v-628h551v-52h-551v-692h787v-51h-1002v520h-518l-256 -520h-55zM334 571h495v852h-81z" />
<glyph unicode="&#xc7;" horiz-adv-x="1472" d="M76 737q0 158 47 296t136 240.5t218 162t293 59.5q115 0 212 -28.5t177 -82t139.5 -128t98.5 -166.5h-201q-25 76 -63.5 140t-92 111.5t-121 75t-149.5 27.5q-129 0 -220 -67.5t-148.5 -172t-84 -229.5t-26.5 -238q0 -115 26.5 -238.5t84 -228t148.5 -172t220 -67.5 q82 0 149.5 26.5t121 74.5t92 112.5t63.5 140.5h201q-72 -166 -207 -272.5t-334 -124.5l-104 -142q27 6 61 7q135 -2 218 -47.5t83 -108.5q0 -31 -23.5 -59.5t-64.5 -49t-99.5 -33t-127.5 -12.5q-45 0 -84 7.5t-72 17.5l49 65q37 -47 107 -47q61 0 97 33t36 78 q0 47 -36 78.5t-97 31.5q-37 0 -62.5 -11t-44.5 -34l-123 76l111 150q-145 14 -257 78.5t-189.5 164t-117.5 229.5t-40 277z" />
<glyph unicode="&#xc8;" horiz-adv-x="1204" d="M111 0v1475h981v-52h-766v-628h551v-52h-551v-692h786v-51h-1001zM326 1909h239l244 -295h-51z" />
<glyph unicode="&#xc9;" horiz-adv-x="1200" d="M111 0v1475h979v-52h-764v-628h618v-52h-618v-692h782v-51h-997zM326 1614l243 295h240l-432 -295h-51z" />
<glyph unicode="&#xca;" horiz-adv-x="1204" d="M111 0v1475h981v-52h-766v-628h551v-52h-551v-692h786v-51h-1001zM262 1614l240 295h137l238 -295h-158l-205 254l-207 -254h-45z" />
<glyph unicode="&#xcb;" horiz-adv-x="1204" d="M111 0v1475h981v-52h-766v-628h551v-52h-551v-692h786v-51h-1001zM258 1675q0 41 34 62.5t68 21.5q35 0 69 -21.5t34 -62.5q0 -39 -34 -60.5t-69 -21.5t-68.5 21.5t-33.5 60.5zM676 1675q0 41 33.5 62.5t68.5 21.5t69 -21.5t34 -62.5q0 -39 -34 -60.5t-69 -21.5 t-68.5 21.5t-33.5 60.5z" />
<glyph unicode="&#xcc;" horiz-adv-x="436" d="M-152 1909h242l244 -295h-51zM111 0v1475h215v-1475h-215z" />
<glyph unicode="&#xcd;" horiz-adv-x="436" d="M102 1614l244 295h242l-434 -295h-52zM111 0v1475h215v-1475h-215z" />
<glyph unicode="&#xce;" horiz-adv-x="436" d="M-90 1614l240 295h137l239 -295h-157l-207 254l-205 -254h-47zM111 0v1475h215v-1475h-215z" />
<glyph unicode="&#xcf;" horiz-adv-x="436" d="M-94 1675q0 41 34.5 62.5t69.5 21.5t69 -21.5t34 -62.5q0 -39 -34 -60.5t-69 -21.5t-69.5 21.5t-34.5 60.5zM111 0v1475h215v-1475h-215zM324 1675q0 41 33.5 62.5t68.5 21.5t69.5 -21.5t34.5 -62.5q0 -39 -34.5 -60.5t-69.5 -21.5t-68.5 21.5t-33.5 60.5z" />
<glyph unicode="&#xd0;" horiz-adv-x="1476" d="M0 741v54h111v680h637q158 0 279.5 -57.5t204.5 -158t126 -234.5t43 -288t-43 -288t-126 -234t-205 -157.5t-279 -57.5h-637v743zM326 51h422q109 0 190.5 53.5t136.5 146.5t83 218t28 268t-28 268t-83 218.5t-137 146.5t-190 53h-422v-628h432v-52h-432v-692z" />
<glyph unicode="&#xd1;" horiz-adv-x="1343" d="M111 0v1475h215l841 -1301v1301h66v-1475h-215l-840 1300v-1300h-67zM260 1686q27 59 75 84.5t101 25.5q51 0 101.5 -19.5t95.5 -44t86 -44t78 -19.5q45 0 83 32t60 81l143 -78q-27 -59 -74.5 -85t-101.5 -26q-53 0 -102 19.5t-94 44t-86 44t-78 19.5q-45 0 -83 -31.5 t-61 -80.5z" />
<glyph unicode="&#xd2;" horiz-adv-x="1540" d="M76 737q0 158 47 296t136 240.5t218 162t293 59.5t293 -59.5t218 -162t136 -240.5t47 -296t-47 -296t-136 -240.5t-218 -161.5t-293 -59t-293 59t-218 161.5t-136 241t-47 295.5zM291 737q0 -115 26.5 -238.5t84 -228t148.5 -172t220 -67.5t220 67.5t148.5 172t84 228 t26.5 238.5q0 113 -26.5 238t-84 229.5t-148.5 172t-220 67.5t-220 -67.5t-148.5 -172t-84 -229.5t-26.5 -238zM342 1909h240l243 -295h-51z" />
<glyph unicode="&#xd3;" horiz-adv-x="1540" d="M76 737q0 158 47 296t136 240.5t218 162t293 59.5t293 -59.5t218 -162t136 -240.5t47 -296t-47 -296t-136 -240.5t-218 -161.5t-293 -59t-293 59t-218 161.5t-136 241t-47 295.5zM291 737q0 -115 26.5 -238.5t84 -228t148.5 -172t220 -67.5t220 67.5t148.5 172t84 228 t26.5 238.5q0 113 -26.5 238t-84 229.5t-148.5 172t-220 67.5t-220 -67.5t-148.5 -172t-84 -229.5t-26.5 -238zM694 1614l244 295h242l-435 -295h-51z" />
<glyph unicode="&#xd4;" horiz-adv-x="1540" d="M76 737q0 158 47 296t136 240.5t218 162t293 59.5t293 -59.5t218 -162t136 -240.5t47 -296t-47 -296t-136 -240.5t-218 -161.5t-293 -59t-293 59t-218 161.5t-136 241t-47 295.5zM291 737q0 -115 26.5 -238.5t84 -228t148.5 -172t220 -67.5t220 67.5t148.5 172t84 228 t26.5 238.5q0 113 -26.5 238t-84 229.5t-148.5 172t-220 67.5t-220 -67.5t-148.5 -172t-84 -229.5t-26.5 -238zM508 1614l240 295h137l239 -295h-157l-207 254l-205 -254h-47z" />
<glyph unicode="&#xd5;" horiz-adv-x="1540" d="M76 737q0 158 47 296t136 240.5t218 162t293 59.5t293 -59.5t218 -162t136 -240.5t47 -296t-47 -296t-136 -240.5t-218 -161.5t-293 -59t-293 59t-218 161.5t-136 241t-47 295.5zM291 737q0 -115 26.5 -238.5t84 -228t148.5 -172t220 -67.5t220 67.5t148.5 172t84 228 t26.5 238.5q0 113 -26.5 238t-84 229.5t-148.5 172t-220 67.5t-220 -67.5t-148.5 -172t-84 -229.5t-26.5 -238zM358 1686q27 59 75 84.5t102 25.5q51 0 101 -19.5t95 -44t86 -44t78 -19.5q47 0 85 32t58 81l144 -78q-27 -59 -75 -85t-101 -26t-102.5 19.5t-94.5 44t-86 44 t-76 19.5q-47 0 -85 -31.5t-60 -80.5z" />
<glyph unicode="&#xd6;" horiz-adv-x="1540" d="M76 737q0 158 47 296t136 240.5t218 162t293 59.5t293 -59.5t218 -162t136 -240.5t47 -296t-47 -296t-136 -240.5t-218 -161.5t-293 -59t-293 59t-218 161.5t-136 241t-47 295.5zM291 737q0 -115 26.5 -238.5t84 -228t148.5 -172t220 -67.5t220 67.5t148.5 172t84 228 t26.5 238.5q0 113 -26.5 238t-84 229.5t-148.5 172t-220 67.5t-220 -67.5t-148.5 -172t-84 -229.5t-26.5 -238zM459 1675q0 41 33.5 62.5t68.5 21.5t70 -21.5t35 -62.5q0 -39 -35 -60.5t-70 -21.5t-68.5 21.5t-33.5 60.5zM877 1675q0 41 33.5 62.5t68.5 21.5t68.5 -21.5 t33.5 -62.5q0 -39 -33.5 -60.5t-68.5 -21.5t-68.5 21.5t-33.5 60.5z" />
<glyph unicode="&#xd7;" d="M98 283l457 454l-457 455l103 102l454 -456l455 456l102 -102l-456 -455l456 -454l-102 -103l-455 457l-454 -457z" />
<glyph unicode="&#xd8;" horiz-adv-x="1540" d="M76 737q0 158 47 296t136 240.5t218 162t293 59.5q154 0 274.5 -50t208.5 -140l166 182l39 -35l-170 -184q86 -104 131 -239.5t45 -291.5q0 -158 -47 -296t-136 -240.5t-218 -161.5t-293 -59q-154 0 -273.5 50t-207.5 140l-168 -182l-37 35l168 184q-86 104 -131 239.5 t-45 290.5zM291 737q0 -104 23.5 -202.5t70.5 -184.5l756 834q-29 55 -66 102t-83 82t-101 55.5t-121 20.5q-129 0 -220 -67.5t-148.5 -172t-84 -229.5t-26.5 -238zM399 291q29 -55 66 -102.5t83 -82t101.5 -55t120.5 -20.5q129 0 220 67.5t148.5 172t84 228t26.5 238.5 q0 104 -23.5 202.5t-70.5 184.5z" />
<glyph unicode="&#xd9;" horiz-adv-x="1411" d="M111 573v902h215v-902q0 -115 30.5 -213t89 -171.5t142.5 -115.5t192 -42q115 0 200 44t142.5 119.5t85 173t27.5 205.5v902h65v-902q0 -129 -35.5 -238.5t-108.5 -188t-183.5 -122.5t-259.5 -44q-139 0 -251 45t-189.5 124.5t-119.5 188t-42 235.5zM340 1909h242 l243 -295h-51z" />
<glyph unicode="&#xda;" horiz-adv-x="1411" d="M111 573v902h215v-902q0 -115 30.5 -213t89 -171.5t142.5 -115.5t192 -42q115 0 200 44t142.5 119.5t85 173t27.5 205.5v902h65v-902q0 -129 -35.5 -238.5t-108.5 -188t-183.5 -122.5t-259.5 -44q-139 0 -251 45t-189.5 124.5t-119.5 188t-42 235.5zM610 1614l244 295 h242l-434 -295h-52z" />
<glyph unicode="&#xdb;" horiz-adv-x="1411" d="M111 573v902h215v-902q0 -115 30.5 -213t89 -171.5t142.5 -115.5t192 -42q115 0 200 44t142.5 119.5t85 173t27.5 205.5v902h65v-902q0 -129 -35.5 -238.5t-108.5 -188t-183.5 -122.5t-259.5 -44q-139 0 -251 45t-189.5 124.5t-119.5 188t-42 235.5zM436 1614l240 295 h137l240 -295h-158l-207 254l-205 -254h-47z" />
<glyph unicode="&#xdc;" horiz-adv-x="1411" d="M111 573v902h215v-902q0 -115 30.5 -213t89 -171.5t142.5 -115.5t192 -42q115 0 200 44t142.5 119.5t85 173t27.5 205.5v902h65v-902q0 -129 -35.5 -238.5t-108.5 -188t-183.5 -122.5t-259.5 -44q-139 0 -251 45t-189.5 124.5t-119.5 188t-42 235.5zM430 1675 q0 41 34 62.5t68 21.5q35 0 70 -21.5t35 -62.5q0 -39 -35 -60.5t-70 -21.5t-68.5 21.5t-33.5 60.5zM848 1675q0 41 33.5 62.5t68.5 21.5t70 -21.5t35 -62.5q0 -39 -35 -60.5t-70 -21.5t-68.5 21.5t-33.5 60.5z" />
<glyph unicode="&#xdd;" horiz-adv-x="1337" d="M0 1475h246l516 -807l518 807h57l-561 -887v-588h-215v588zM487 1614l246 295h240l-434 -295h-52z" />
<glyph unicode="&#xde;" horiz-adv-x="1165" d="M111 0v1475h215v-224h260q119 0 212 -34.5t157.5 -95t99.5 -142.5t35 -176t-35 -176t-99.5 -142.5t-157.5 -95.5t-212 -35h-260v-354h-215zM326 406h260q70 0 124 30.5t91 84.5t55 126t18 156t-18 156.5t-55 126t-91.5 84t-123.5 30.5h-260v-794z" />
<glyph unicode="&#xdf;" horiz-adv-x="1210" d="M106 0v1085q0 92 34 168t94.5 129.5t145.5 83t189 29.5q92 0 175 -24.5t147.5 -71.5t102.5 -114.5t38 -154.5q0 -119 -72.5 -209t-195.5 -124q84 -16 153.5 -53t119.5 -89.5t78 -117t28 -138.5q0 -201 -135.5 -310t-415.5 -109q-53 0 -104.5 8t-94.5 22v60 q74 -39 176 -39q90 0 158 32.5t112 85t66.5 119t22.5 131.5q0 66 -22.5 131.5t-66.5 117.5t-112 85t-158 33v51q63 0 110.5 31t78 77t45 101t14.5 104t-14.5 104.5t-45 101.5t-77.5 77t-111 31q-66 0 -111.5 -31t-76.5 -77t-45 -101t-14 -105v-1130h-216z" />
<glyph unicode="&#xe0;" horiz-adv-x="1163" d="M76 268q0 70 43 124t112.5 90t156.5 54.5t175 18.5q70 0 121 20.5t85 54.5t51.5 77t17.5 86q0 41 -14.5 84t-45 76.5t-77 55t-109.5 21.5q-61 0 -107.5 -21.5t-77 -55t-45 -76.5t-14.5 -84h-215q0 72 41 126t105.5 89.5t146.5 54t166 18.5q82 0 165 -18.5t148.5 -54 t106.5 -90t41 -125.5v-793h-215v84q-20 -23 -58.5 -42t-85.5 -33.5t-98 -21.5t-100 -7q-90 0 -166 19t-133.5 56t-89 91.5t-31.5 121.5zM231 1501h240l246 -295h-51zM291 268q0 -43 16.5 -86t50 -76.5t85 -54t120.5 -20.5q70 0 121 20.5t85 54t51.5 76.5t17.5 86v326 q-41 -41 -110 -64.5t-165 -23.5q-70 0 -121 -21.5t-84.5 -55.5t-50 -76t-16.5 -85z" />
<glyph unicode="&#xe1;" horiz-adv-x="1163" d="M76 268q0 70 43 124t112.5 90t156.5 54.5t175 18.5q70 0 121 20.5t85 54.5t51.5 77t17.5 86q0 41 -14.5 84t-45 76.5t-77 55t-109.5 21.5q-61 0 -107.5 -21.5t-77 -55t-45 -76.5t-14.5 -84h-215q0 72 41 126t105.5 89.5t146.5 54t166 18.5q82 0 165 -18.5t148.5 -54 t106.5 -90t41 -125.5v-793h-215v84q-20 -23 -58.5 -42t-85.5 -33.5t-98 -21.5t-100 -7q-90 0 -166 19t-133.5 56t-89 91.5t-31.5 121.5zM291 268q0 -43 16.5 -86t50 -76.5t85 -54t120.5 -20.5q70 0 121 20.5t85 54t51.5 76.5t17.5 86v326q-41 -41 -110 -64.5t-165 -23.5 q-70 0 -121 -21.5t-84.5 -55.5t-50 -76t-16.5 -85zM467 1206l244 295h241l-434 -295h-51z" />
<glyph unicode="&#xe2;" horiz-adv-x="1163" d="M76 268q0 70 43 124t112.5 90t156.5 54.5t175 18.5q70 0 121 20.5t85 54.5t51.5 77t17.5 86q0 41 -14.5 84t-45 76.5t-77 55t-109.5 21.5q-61 0 -107.5 -21.5t-77 -55t-45 -76.5t-14.5 -84h-215q0 72 41 126t105.5 89.5t146.5 54t166 18.5q82 0 165 -18.5t148.5 -54 t106.5 -90t41 -125.5v-793h-215v84q-20 -23 -58.5 -42t-85.5 -33.5t-98 -21.5t-100 -7q-90 0 -166 19t-133.5 56t-89 91.5t-31.5 121.5zM289 1206l239 295h138l237 -295h-155l-207 254l-207 -254h-45zM291 268q0 -43 16.5 -86t50 -76.5t85 -54t120.5 -20.5q70 0 121 20.5 t85 54t51.5 76.5t17.5 86v326q-41 -41 -110 -64.5t-165 -23.5q-70 0 -121 -21.5t-84.5 -55.5t-50 -76t-16.5 -85z" />
<glyph unicode="&#xe3;" horiz-adv-x="1163" d="M76 268q0 70 43 124t112.5 90t156.5 54.5t175 18.5q70 0 121 20.5t85 54.5t51.5 77t17.5 86q0 41 -14.5 84t-45 76.5t-77 55t-109.5 21.5q-61 0 -107.5 -21.5t-77 -55t-45 -76.5t-14.5 -84h-215q0 72 41 126t105.5 89.5t146.5 54t166 18.5q82 0 165 -18.5t148.5 -54 t106.5 -90t41 -125.5v-793h-215v84q-20 -23 -58.5 -42t-85.5 -33.5t-98 -21.5t-100 -7q-90 0 -166 19t-133.5 56t-89 91.5t-31.5 121.5zM170 1278q27 59 75 86t101 27q51 0 101.5 -19.5t95.5 -44t86 -44t76 -19.5q47 0 84.5 31.5t60.5 78.5l143 -78q-27 -59 -75 -84.5 t-101 -25.5t-102 19.5t-94.5 44t-86 44t-77.5 19.5q-47 0 -85 -32t-61 -81zM291 268q0 -43 16.5 -86t50 -76.5t85 -54t120.5 -20.5q70 0 121 20.5t85 54t51.5 76.5t17.5 86v326q-41 -41 -110 -64.5t-165 -23.5q-70 0 -121 -21.5t-84.5 -55.5t-50 -76t-16.5 -85z" />
<glyph unicode="&#xe4;" horiz-adv-x="1163" d="M76 268q0 70 43 124t112.5 90t156.5 54.5t175 18.5q70 0 121 20.5t85 54.5t51.5 77t17.5 86q0 41 -14.5 84t-45 76.5t-77 55t-109.5 21.5q-61 0 -107.5 -21.5t-77 -55t-45 -76.5t-14.5 -84h-215q0 72 41 126t105.5 89.5t146.5 54t166 18.5q82 0 165 -18.5t148.5 -54 t106.5 -90t41 -125.5v-793h-215v84q-20 -23 -58.5 -42t-85.5 -33.5t-98 -21.5t-100 -7q-90 0 -166 19t-133.5 56t-89 91.5t-31.5 121.5zM291 268q0 -43 16.5 -86t50 -76.5t85 -54t120.5 -20.5q70 0 121 20.5t85 54t51.5 76.5t17.5 86v326q-41 -41 -110 -64.5t-165 -23.5 q-70 0 -121 -21.5t-84.5 -55.5t-50 -76t-16.5 -85zM293 1270q0 39 33.5 60.5t68.5 21.5t69 -21.5t34 -60.5q0 -41 -34 -62.5t-69 -21.5t-68.5 21.5t-33.5 62.5zM664 1270q0 39 33.5 60.5t68.5 21.5t69.5 -21.5t34.5 -60.5q0 -41 -34.5 -62.5t-69.5 -21.5t-68.5 21.5 t-33.5 62.5z" />
<glyph unicode="&#xe5;" horiz-adv-x="1163" d="M76 268q0 70 43 124t112.5 90t156.5 54.5t175 18.5q70 0 121 20.5t85 54.5t51.5 77t17.5 86q0 41 -14.5 84t-45 76.5t-77 55t-109.5 21.5q-61 0 -107.5 -21.5t-77 -55t-45 -76.5t-14.5 -84h-215q0 72 41 126t105.5 89.5t146.5 54t166 18.5q82 0 165 -18.5t148.5 -54 t106.5 -90t41 -125.5v-793h-215v84q-20 -23 -58.5 -42t-85.5 -33.5t-98 -21.5t-100 -7q-90 0 -166 19t-133.5 56t-89 91.5t-31.5 121.5zM291 268q0 -43 16.5 -86t50 -76.5t85 -54t120.5 -20.5q70 0 121 20.5t85 54t51.5 76.5t17.5 86v326q-41 -41 -110 -64.5t-165 -23.5 q-70 0 -121 -21.5t-84.5 -55.5t-50 -76t-16.5 -85zM342 1395q0 94 71.5 151.5t178.5 57.5q109 0 180.5 -57.5t71.5 -151.5t-72 -151.5t-180 -57.5q-106 0 -178 57t-72 152zM442 1395q0 -25 8.5 -55.5t26 -58.5t46 -46t69.5 -18t69.5 18t47 46t26.5 58.5t8 55.5t-8 55.5 t-26.5 58t-47 46t-69.5 18.5t-69.5 -18.5t-46 -46t-26 -58.5t-8.5 -55z" />
<glyph unicode="&#xe6;" horiz-adv-x="1953" d="M76 268q0 61 33.5 114.5t97 91.5t154 60.5t202.5 22.5q131 0 203 67.5t72 168.5q0 100 -64.5 168.5t-181.5 68.5t-180.5 -68.5t-63.5 -168.5h-215q0 61 32 114.5t91 92t144 60t192 21.5q66 0 128 -12t114.5 -36.5t89.5 -63.5t51 -95q59 92 154.5 149.5t228.5 57.5 q121 0 217 -42t163.5 -115.5t103.5 -175t36 -218.5h-825q0 -74 18.5 -161.5t55 -162.5t94 -125t137.5 -50q100 0 166.5 72.5t101.5 177.5h205q-59 -139 -180 -220t-293 -81q-133 0 -228.5 57t-154.5 149q-16 -57 -57 -97t-98.5 -64.5t-124 -34.5t-132.5 -10 q-113 0 -203 21.5t-153.5 60t-97 92t-33.5 114.5zM291 268q0 -100 70.5 -168.5t201.5 -68.5q162 0 228.5 88t50.5 231q-2 12 -3 31.5t-2 40t-1 38v27.5q0 33 2 67t2 44q-41 -41 -111 -66.5t-166 -25.5q-131 0 -201.5 -68.5t-70.5 -169.5zM1053 582h608q-2 82 -22.5 162.5 t-58.5 144t-93 102.5t-129 39t-130.5 -39t-94 -102.5t-58 -144t-22.5 -162.5z" />
<glyph unicode="&#xe7;" horiz-adv-x="1144" d="M76 530q0 117 35.5 218.5t103.5 175t164 115.5t217 42q174 0 295 -80.5t178 -220.5h-203q-35 104 -101.5 177t-168.5 73q-80 0 -137.5 -50t-94 -126t-55 -163t-18.5 -161t18.5 -160.5t55 -162.5t94 -126t137.5 -50q102 0 168.5 72.5t101.5 177.5h203 q-51 -123 -151.5 -201t-245.5 -92l-103 -142q14 2 27.5 3t30.5 1q137 -2 221 -46t84 -107q0 -31 -23.5 -59.5t-64.5 -49t-99.5 -33t-128.5 -12.5q-92 0 -155 25l49 63q16 -20 43 -32.5t63 -12.5q61 0 96.5 32t35.5 79t-35 78.5t-97 31.5q-39 0 -63.5 -12t-42.5 -33l-123 76 l113 150q-100 14 -179 61t-133.5 119t-83 165t-28.5 197z" />
<glyph unicode="&#xe8;" horiz-adv-x="1191" d="M76 530q0 117 35.5 218.5t103.5 175t164 115.5t217 42t217 -42t163.5 -115.5t103.5 -175t36 -218.5h-825q0 -74 18.5 -160.5t55 -162.5t94 -126t137.5 -50q102 0 168.5 72.5t101.5 177.5h203q-57 -139 -178 -220t-295 -81q-121 0 -217 41.5t-164 115.5t-103.5 175.5 t-35.5 217.5zM225 1501h242l244 -295h-52zM293 582h608q-4 82 -23.5 162.5t-58.5 144t-94 102.5t-129 39t-129 -39t-93 -102.5t-58.5 -144t-22.5 -162.5z" />
<glyph unicode="&#xe9;" horiz-adv-x="1191" d="M76 530q0 117 35.5 218.5t103.5 175t164 115.5t217 42t217 -42t163.5 -115.5t103.5 -175t36 -218.5h-825q0 -74 18.5 -160.5t55 -162.5t94 -126t137.5 -50q102 0 168.5 72.5t101.5 177.5h203q-57 -139 -178 -220t-295 -81q-121 0 -217 41.5t-164 115.5t-103.5 175.5 t-35.5 217.5zM293 582h608q-4 82 -23.5 162.5t-58.5 144t-94 102.5t-129 39t-129 -39t-93 -102.5t-58.5 -144t-22.5 -162.5zM473 1206l246 295h239l-434 -295h-51z" />
<glyph unicode="&#xea;" horiz-adv-x="1191" d="M76 530q0 117 35.5 218.5t103.5 175t164 115.5t217 42t217 -42t163.5 -115.5t103.5 -175t36 -218.5h-825q0 -74 18.5 -160.5t55 -162.5t94 -126t137.5 -50q102 0 168.5 72.5t101.5 177.5h203q-57 -139 -178 -220t-295 -81q-121 0 -217 41.5t-164 115.5t-103.5 175.5 t-35.5 217.5zM293 582h608q-4 82 -23.5 162.5t-58.5 144t-94 102.5t-129 39t-129 -39t-93 -102.5t-58.5 -144t-22.5 -162.5zM311 1206l240 295h137l240 -295h-158l-207 254l-205 -254h-47z" />
<glyph unicode="&#xeb;" horiz-adv-x="1191" d="M76 530q0 117 35.5 218.5t103.5 175t164 115.5t217 42t217 -42t163.5 -115.5t103.5 -175t36 -218.5h-825q0 -74 18.5 -160.5t55 -162.5t94 -126t137.5 -50q102 0 168.5 72.5t101.5 177.5h203q-57 -139 -178 -220t-295 -81q-121 0 -217 41.5t-164 115.5t-103.5 175.5 t-35.5 217.5zM285 1270q0 39 33.5 60.5t68.5 21.5t70 -21.5t35 -60.5q0 -41 -35 -62.5t-70 -21.5t-68.5 21.5t-33.5 62.5zM293 582h608q-4 82 -23.5 162.5t-58.5 144t-94 102.5t-129 39t-129 -39t-93 -102.5t-58.5 -144t-22.5 -162.5zM702 1270q0 39 34 60.5t69 21.5 t68.5 -21.5t33.5 -60.5q0 -41 -33.5 -62.5t-68.5 -21.5t-69 21.5t-34 62.5z" />
<glyph unicode="&#xec;" horiz-adv-x="436" d="M-137 1501h239l244 -295h-51zM111 197v864h215v-920q0 -33 10 -61.5t39 -28.5q23 0 39 8.5t24 18.5v-64q-43 -23 -106 -22q-123 0 -172 51t-49 154z" />
<glyph unicode="&#xed;" horiz-adv-x="436" d="M90 1206l244 295h239l-432 -295h-51zM111 197v864h215v-920q0 -33 10 -61.5t39 -28.5q23 0 39 8.5t24 18.5v-64q-43 -23 -106 -22q-123 0 -172 51t-49 154z" />
<glyph unicode="&#xee;" horiz-adv-x="436" d="M-90 1206l240 295h137l239 -295h-157l-207 254l-205 -254h-47zM111 197v864h215v-920q0 -33 10 -61.5t39 -28.5q23 0 39 8.5t24 18.5v-64q-43 -23 -106 -22q-123 0 -172 51t-49 154z" />
<glyph unicode="&#xef;" horiz-adv-x="436" d="M-94 1270q0 39 34.5 60.5t69.5 21.5t69 -21.5t34 -60.5q0 -41 -34 -62.5t-69 -21.5t-69.5 21.5t-34.5 62.5zM111 197v864h215v-920q0 -33 10 -61.5t39 -28.5q23 0 39 8.5t24 18.5v-64q-43 -23 -106 -22q-123 0 -172 51t-49 154zM324 1270q0 39 33.5 60.5t68.5 21.5 t69.5 -21.5t34.5 -60.5q0 -41 -34.5 -62.5t-69.5 -21.5t-68.5 21.5t-33.5 62.5z" />
<glyph unicode="&#xf0;" horiz-adv-x="1232" d="M76 514q0 117 38 215t108.5 169t171 111t222.5 40q66 0 127.5 -25t104.5 -76q-39 88 -95.5 164t-127.5 139l-209 -123l-29 43l205 121q-37 35 -76 67t-80 62l119 74q41 -29 82 -58.5t80 -60.5l203 119l28 -41l-192 -115q94 -84 168.5 -179t127 -198.5t80 -216 t25.5 -231.5q0 -117 -38 -214t-108.5 -169t-170 -111.5t-224.5 -39.5q-123 0 -223 39.5t-170.5 111.5t-108.5 169t-38 214zM291 514q0 -100 20.5 -188t62.5 -154t102.5 -103.5t139.5 -37.5q80 0 141.5 37.5t102.5 103.5t61.5 154t20.5 188t-20.5 188.5t-62.5 154t-102.5 103 t-140.5 37.5t-140 -37.5t-102 -103t-62.5 -154t-20.5 -188.5z" />
<glyph unicode="&#xf1;" horiz-adv-x="1171" d="M111 0v1061h215v-162q45 82 129 132t204 50q94 0 168 -29.5t126.5 -81.5t80 -124t27.5 -156v-690h-215v690q0 72 -17.5 134.5t-50.5 108.5t-82 71.5t-110 25.5t-110.5 -25.5t-82.5 -71.5t-50 -108.5t-17 -134.5v-690h-215zM174 1278q27 59 75 86t101 27q51 0 101.5 -19.5 t95.5 -44t86 -44t78 -19.5q45 0 82.5 31.5t60.5 78.5l143 -78q-27 -59 -75 -84.5t-101 -25.5t-102 19.5t-94 44t-86 44t-78 19.5q-45 0 -83 -32t-61 -81z" />
<glyph unicode="&#xf2;" horiz-adv-x="1191" d="M76 530q0 117 35.5 218.5t103.5 175t164 115.5t217 42t217 -42t163.5 -115.5t103.5 -175t36 -218.5t-36 -218t-103.5 -175t-163.5 -115.5t-217 -41.5t-217 41.5t-164 115.5t-103.5 175.5t-35.5 217.5zM213 1501h240l245 -295h-51zM291 530q0 -74 18.5 -160.5t55 -162.5 t94 -126t137.5 -50t137.5 50t94 126t55 162.5t18.5 160.5t-18.5 161t-55 163t-94 126t-137.5 50t-137.5 -50t-94 -126t-55 -163t-18.5 -161z" />
<glyph unicode="&#xf3;" horiz-adv-x="1191" d="M76 530q0 117 35.5 218.5t103.5 175t164 115.5t217 42t217 -42t163.5 -115.5t103.5 -175t36 -218.5t-36 -218t-103.5 -175t-163.5 -115.5t-217 -41.5t-217 41.5t-164 115.5t-103.5 175.5t-35.5 217.5zM291 530q0 -74 18.5 -160.5t55 -162.5t94 -126t137.5 -50t137.5 50 t94 126t55 162.5t18.5 160.5t-18.5 161t-55 163t-94 126t-137.5 50t-137.5 -50t-94 -126t-55 -163t-18.5 -161zM481 1206l246 295h240l-435 -295h-51z" />
<glyph unicode="&#xf4;" horiz-adv-x="1191" d="M76 530q0 117 35.5 218.5t103.5 175t164 115.5t217 42t217 -42t163.5 -115.5t103.5 -175t36 -218.5t-36 -218t-103.5 -175t-163.5 -115.5t-217 -41.5t-217 41.5t-164 115.5t-103.5 175.5t-35.5 217.5zM291 530q0 -74 18.5 -160.5t55 -162.5t94 -126t137.5 -50t137.5 50 t94 126t55 162.5t18.5 160.5t-18.5 161t-55 163t-94 126t-137.5 50t-137.5 -50t-94 -126t-55 -163t-18.5 -161zM303 1206l240 295h137l240 -295h-158l-207 254l-205 -254h-47z" />
<glyph unicode="&#xf5;" horiz-adv-x="1191" d="M76 530q0 117 35.5 218.5t103.5 175t164 115.5t217 42t217 -42t163.5 -115.5t103.5 -175t36 -218.5t-36 -218t-103.5 -175t-163.5 -115.5t-217 -41.5t-217 41.5t-164 115.5t-103.5 175.5t-35.5 217.5zM184 1278q27 59 75 86t101 27q51 0 101.5 -19.5t95.5 -44t86 -44 t78 -19.5q45 0 83 31.5t60 78.5l144 -78q-27 -59 -75 -84.5t-102 -25.5q-53 0 -102 19.5t-94 44t-86 44t-76 19.5q-47 0 -85 -32t-60 -81zM291 530q0 -74 18.5 -160.5t55 -162.5t94 -126t137.5 -50t137.5 50t94 126t55 162.5t18.5 160.5t-18.5 161t-55 163t-94 126 t-137.5 50t-137.5 -50t-94 -126t-55 -163t-18.5 -161z" />
<glyph unicode="&#xf6;" horiz-adv-x="1191" d="M76 530q0 117 35.5 218.5t103.5 175t164 115.5t217 42t217 -42t163.5 -115.5t103.5 -175t36 -218.5t-36 -218t-103.5 -175t-163.5 -115.5t-217 -41.5t-217 41.5t-164 115.5t-103.5 175.5t-35.5 217.5zM285 1270q0 39 33.5 60.5t68.5 21.5t70 -21.5t35 -60.5 q0 -41 -35 -62.5t-70 -21.5t-68.5 21.5t-33.5 62.5zM291 530q0 -74 18.5 -160.5t55 -162.5t94 -126t137.5 -50t137.5 50t94 126t55 162.5t18.5 160.5t-18.5 161t-55 163t-94 126t-137.5 50t-137.5 -50t-94 -126t-55 -163t-18.5 -161zM702 1270q0 39 34 60.5t69 21.5 t68.5 -21.5t33.5 -60.5q0 -41 -33.5 -62.5t-68.5 -21.5t-69 21.5t-34 62.5z" />
<glyph unicode="&#xf7;" d="M98 666v143h1114v-143h-1114zM557 330q0 41 28.5 69.5t69.5 28.5t70 -28.5t29 -69.5t-29 -69t-70 -28t-69.5 28t-28.5 69zM557 1145q0 41 28.5 68.5t69.5 27.5t70 -27.5t29 -68.5t-29 -69.5t-70 -28.5t-69.5 28.5t-28.5 69.5z" />
<glyph unicode="&#xf8;" horiz-adv-x="1191" d="M76 530q0 117 35.5 218.5t103.5 175t164 115.5t217 42q106 0 192 -34.5t150 -94.5l113 125l39 -33l-111 -124q66 -72 101.5 -172.5t35.5 -217.5t-36 -218t-103.5 -175t-163.5 -115.5t-217 -41.5q-106 0 -192.5 34.5t-149.5 94.5l-113 -125l-39 32l111 125 q-66 72 -101.5 172.5t-35.5 216.5zM291 530q0 -127 57 -231l486 530q-37 82 -95.5 141.5t-142.5 59.5q-80 0 -137.5 -50t-94 -126t-55 -163t-18.5 -161zM358 231q37 -82 95.5 -141t142.5 -59q80 0 137.5 50t94 126t55 162.5t18.5 160.5q0 61 -14.5 121t-42.5 111z" />
<glyph unicode="&#xf9;" horiz-adv-x="1171" d="M111 371v690h215v-690q0 -72 17 -134.5t50 -108.5t82 -71.5t111 -25.5q61 0 110 25.5t82 71.5t50.5 108.5t17.5 134.5v690h215v-1061h-215v162q-45 -82 -129 -132t-205 -50q-94 0 -168 29.5t-126 81.5t-79.5 124t-27.5 156zM248 1501h241l244 -295h-51z" />
<glyph unicode="&#xfa;" horiz-adv-x="1171" d="M111 371v690h215v-690q0 -72 17 -134.5t50 -108.5t82 -71.5t111 -25.5q61 0 110 25.5t82 71.5t50.5 108.5t17.5 134.5v690h215v-1061h-215v162q-45 -82 -129 -132t-205 -50q-94 0 -168 29.5t-126 81.5t-79.5 124t-27.5 156zM438 1206l244 295h242l-435 -295h-51z" />
<glyph unicode="&#xfb;" horiz-adv-x="1171" d="M111 371v690h215v-690q0 -72 17 -134.5t50 -108.5t82 -71.5t111 -25.5q61 0 110 25.5t82 71.5t50.5 108.5t17.5 134.5v690h215v-1061h-215v162q-45 -82 -129 -132t-205 -50q-94 0 -168 29.5t-126 81.5t-79.5 124t-27.5 156zM301 1206l240 295h137l237 -295h-155l-207 254 l-207 -254h-45z" />
<glyph unicode="&#xfc;" horiz-adv-x="1171" d="M111 371v690h215v-690q0 -72 17 -134.5t50 -108.5t82 -71.5t111 -25.5q61 0 110 25.5t82 71.5t50.5 108.5t17.5 134.5v690h215v-1061h-215v162q-45 -82 -129 -132t-205 -50q-94 0 -168 29.5t-126 81.5t-79.5 124t-27.5 156zM274 1270q0 39 34 60.5t69 21.5t68.5 -21.5 t33.5 -60.5q0 -41 -33.5 -62.5t-68.5 -21.5t-69 21.5t-34 62.5zM692 1270q0 39 34 60.5t69 21.5t68.5 -21.5t33.5 -60.5q0 -41 -34 -62.5t-68 -21.5q-35 0 -69 21.5t-34 62.5z" />
<glyph unicode="&#xfd;" horiz-adv-x="1171" d="M39 -166h213q31 -123 102.5 -200.5t177.5 -77.5q76 0 134.5 35.5t98.5 96t60.5 141.5t20.5 171v162q-45 -82 -129 -132t-205 -50q-94 0 -168 29.5t-126 81.5t-79.5 124t-27.5 156v690h215v-690q0 -72 17 -134.5t50 -108.5t82 -71.5t111 -25.5q61 0 110 25.5t82 71.5 t50.5 108.5t17.5 134.5v690h215v-1061q0 -100 -36 -190.5t-103.5 -158t-166 -107.5t-223.5 -40q-203 0 -330.5 92.5t-162.5 237.5zM449 1206l243 295h242l-434 -295h-51z" />
<glyph unicode="&#xfe;" horiz-adv-x="1189" d="M111 -475v1950h215v-545q47 72 117.5 111.5t166.5 39.5q121 0 214.5 -42t158 -115.5t98 -175t33.5 -218.5t-33.5 -218t-98 -175t-158 -115.5t-214.5 -41.5q-96 0 -166.5 40.5t-117.5 110.5v-606h-215zM326 279q16 -51 41.5 -96.5t59.5 -79t76 -53t91 -19.5q80 0 137 50 t94 126t55.5 162.5t18.5 160.5t-18.5 161t-55.5 163t-94 126t-137 50q-49 0 -91 -19.5t-76 -53t-59.5 -78.5t-41.5 -97v-503z" />
<glyph unicode="&#xff;" horiz-adv-x="1171" d="M39 -166h213q31 -123 102.5 -200.5t177.5 -77.5q76 0 134.5 35.5t98.5 96t60.5 141.5t20.5 171v162q-45 -82 -129 -132t-205 -50q-94 0 -168 29.5t-126 81.5t-79.5 124t-27.5 156v690h215v-690q0 -72 17 -134.5t50 -108.5t82 -71.5t111 -25.5q61 0 110 25.5t82 71.5 t50.5 108.5t17.5 134.5v690h215v-1061q0 -100 -36 -190.5t-103.5 -158t-166 -107.5t-223.5 -40q-203 0 -330.5 92.5t-162.5 237.5zM274 1270q0 39 34 60.5t69 21.5t68.5 -21.5t33.5 -60.5q0 -41 -33.5 -62.5t-68.5 -21.5t-69 21.5t-34 62.5zM692 1270q0 39 34 60.5t69 21.5 t68.5 -21.5t33.5 -60.5q0 -41 -34 -62.5t-68 -21.5q-35 0 -69 21.5t-34 62.5z" />
<glyph unicode="&#x152;" horiz-adv-x="2297" d="M76 737q0 158 47 296t136 240.5t218 162t293 59.5q147 0 253.5 -56.5t172.5 -150.5v187h983v-52h-768v-628h551v-52h-551v-692h787v-51h-1002v186q-66 -94 -172 -150t-254 -56q-164 0 -293 59t-218 161.5t-136 241t-47 295.5zM291 737q0 -115 26.5 -238.5t84 -228 t148.5 -172t220 -67.5q82 0 151.5 29.5t124 78.5t92.5 112.5t58 133.5v705q-20 70 -58 133t-92.5 112t-124 79t-151.5 30q-129 0 -220 -67.5t-148.5 -172t-84 -229.5t-26.5 -238z" />
<glyph unicode="&#x153;" horiz-adv-x="2019" d="M76 530q0 117 35.5 218.5t103.5 175t164 115.5t217 42q152 0 256 -73.5t158 -186.5q53 113 157.5 186.5t253.5 73.5q121 0 218.5 -42t165 -115.5t103.5 -175t36 -218.5h-828q0 -74 18.5 -160.5t55.5 -162.5t94 -126t137 -50q102 0 169 72.5t102 177.5h202 q-57 -139 -178 -220t-295 -81q-150 0 -254 73.5t-157 186.5q-53 -113 -157.5 -186.5t-256.5 -73.5q-121 0 -217 41.5t-164 115.5t-103.5 175.5t-35.5 217.5zM291 530q0 -74 18.5 -160.5t55 -162.5t94 -126t137.5 -50t137.5 50t94 126t55 162.5t18.5 160.5t-18.5 161t-55 163 t-94 126t-137.5 50t-137.5 -50t-94 -126t-55 -163t-18.5 -161zM1118 582h608q-2 82 -22.5 162.5t-58 144t-94 102.5t-130.5 39t-129 -39t-93 -102.5t-58.5 -144t-22.5 -162.5z" />
<glyph unicode="&#x178;" horiz-adv-x="1337" d="M0 1475h246l516 -807l518 807h57l-561 -887v-588h-215v588zM395 1675q0 41 35 62.5t70 21.5t68.5 -21.5t33.5 -62.5q0 -39 -33.5 -60.5t-68.5 -21.5t-70 21.5t-35 60.5zM813 1675q0 41 34 62.5t68 21.5q35 0 70 -21.5t35 -62.5q0 -39 -35 -60.5t-70 -21.5t-68.5 21.5 t-33.5 60.5z" />
<glyph unicode="&#x2c6;" horiz-adv-x="0" d="M293 1206l237 295h140l237 -295h-157l-205 254l-207 -254h-45z" />
<glyph unicode="&#x2dc;" horiz-adv-x="0" d="M184 1278q27 59 75 86t101 27q51 0 101.5 -19.5t95.5 -44t86 -44t78 -19.5q45 0 83 31.5t60 78.5l144 -78q-27 -59 -75 -84.5t-102 -25.5q-53 0 -102 19.5t-94 44t-86 44t-76 19.5q-47 0 -85 -32t-60 -81z" />
<glyph unicode="&#x2000;" horiz-adv-x="975" />
<glyph unicode="&#x2001;" horiz-adv-x="1950" />
<glyph unicode="&#x2002;" horiz-adv-x="975" />
<glyph unicode="&#x2003;" horiz-adv-x="1950" />
<glyph unicode="&#x2004;" horiz-adv-x="650" />
<glyph unicode="&#x2005;" horiz-adv-x="487" />
<glyph unicode="&#x2006;" horiz-adv-x="325" />
<glyph unicode="&#x2007;" horiz-adv-x="325" />
<glyph unicode="&#x2008;" horiz-adv-x="243" />
<glyph unicode="&#x2009;" horiz-adv-x="390" />
<glyph unicode="&#x200a;" horiz-adv-x="108" />
<glyph unicode="&#x2010;" horiz-adv-x="663" d="M100 465v170h478v-170h-478z" />
<glyph unicode="&#x2011;" horiz-adv-x="663" d="M100 465v170h478v-170h-478z" />
<glyph unicode="&#x2012;" horiz-adv-x="663" d="M100 465v170h478v-170h-478z" />
<glyph unicode="&#x2013;" horiz-adv-x="1216" d="M92 483v152h1032v-152h-1032z" />
<glyph unicode="&#x2014;" horiz-adv-x="2248" d="M92 483v152h2065v-152h-2065z" />
<glyph unicode="&#x2018;" horiz-adv-x="507" d="M75 955.5q-1 25.5 13 48.5q68 117 125 215q25 43 50.5 85t48 79.5t41 66.5t30.5 45l49 -18q-2 -18 -7 -52t-13.5 -77t-17.5 -91.5t-17 -97.5q-23 -113 -49 -244q-10 -53 -61.5 -73.5t-102.5 -1.5q-25 8 -45.5 26.5t-31.5 41t-12 48z" />
<glyph unicode="&#x2019;" horiz-adv-x="507" d="M88 850q2 18 7 52t12.5 77t15.5 91t18 97q23 113 49 246q4 27 21.5 45.5t41 28.5t50.5 10t51 -8q25 -10 45.5 -27.5t32.5 -41t13 -48t-13 -47.5q-68 -119 -125 -217q-25 -43 -51.5 -85t-49 -80t-41 -66.5t-30.5 -42.5z" />
<glyph unicode="&#x201a;" horiz-adv-x="407" d="M-25 -416q2 18 7.5 51t12.5 76t16 92.5t20 98.5q23 113 49 243q4 27 21.5 45.5t41 28.5t50 10t51.5 -8t45 -26.5t31.5 -41t12 -48t-13.5 -48.5q-68 -117 -124 -215q-25 -43 -50.5 -86t-49 -79.5t-42 -66.5t-28.5 -44z" />
<glyph unicode="&#x201c;" horiz-adv-x="860" d="M75 955.5q-1 25.5 13 48.5q68 117 125 215q25 43 50.5 85t48 79.5t41 66.5t30.5 45l49 -18q-2 -18 -7 -52t-13.5 -77t-17.5 -91.5t-17 -97.5q-23 -113 -49 -244q-10 -53 -61.5 -73.5t-102.5 -1.5q-25 8 -45.5 26.5t-31.5 41t-12 48zM427 955.5q-1 25.5 13 48.5 q66 117 125 215q25 43 50.5 85t49 79.5t42 66.5t30.5 45l47 -18q-2 -18 -7 -52t-13 -77t-17.5 -91.5t-17.5 -97.5q-23 -113 -49 -244q-10 -53 -61.5 -73.5t-102.5 -1.5q-25 8 -45 26.5t-31.5 41t-12.5 48z" />
<glyph unicode="&#x201d;" horiz-adv-x="860" d="M88 850q2 18 7 52t12.5 77t15.5 91t18 97q23 113 49 246q4 27 21.5 45.5t41 28.5t50.5 10t51 -8q25 -10 45.5 -27.5t32.5 -41t13 -48t-13 -47.5q-68 -119 -125 -217q-25 -43 -51.5 -85t-49 -80t-41 -66.5t-30.5 -42.5zM440 850q2 18 7.5 52t12.5 77t16 91t20 97 q23 113 49 246q10 53 61 73.5t103 2.5q25 -10 45 -27.5t31.5 -41t12 -48t-13.5 -47.5q-68 -119 -125 -217q-25 -43 -51 -85t-48.5 -80t-41 -66.5t-31.5 -42.5z" />
<glyph unicode="&#x201e;" horiz-adv-x="761" d="M-25 -416q2 18 7.5 51t12.5 76t16 92.5t20 98.5q23 113 49 243q4 27 21.5 45.5t41 28.5t50 10t51.5 -8t45 -26.5t31.5 -41t12 -48t-13.5 -48.5q-68 -117 -124 -215q-25 -43 -50.5 -86t-49 -79.5t-42 -66.5t-28.5 -44zM330 -416q2 18 7 51t12 76t15.5 92.5t18.5 98.5 q23 113 49 243q4 27 21.5 45.5t41 27.5t50 10t51.5 -7q25 -10 45.5 -27.5t32.5 -40t13 -48t-13 -48.5q-68 -117 -127 -215q-25 -43 -50.5 -86t-49 -79.5t-42 -66.5t-28.5 -44z" />
<glyph unicode="&#x2022;" horiz-adv-x="540" d="M76 737q0 39 15 75t42 62.5t61.5 42t75.5 15.5q39 0 75 -15.5t62.5 -42t42 -62.5t15.5 -75q0 -41 -15.5 -75.5t-42 -61.5t-62.5 -42t-75 -15q-41 0 -75.5 15t-61.5 42t-42 61.5t-15 75.5z" />
<glyph unicode="&#x2026;" horiz-adv-x="2062" d="M215 121q0 53 38 90t91 37t90 -37t37 -90t-37 -91t-90 -38t-91 38t-38 91zM903 121q0 53 38 90t91 37t90 -37t37 -90t-37 -91t-90 -38t-91 38t-38 91zM1591 121q0 53 37 90t90 37t91 -37t38 -90t-37.5 -91t-91.5 -38q-53 0 -90 38t-37 91z" />
<glyph unicode="&#x202f;" horiz-adv-x="390" />
<glyph unicode="&#x2039;" horiz-adv-x="495" d="M92 446v191l311 244v-76l-229 -182l229 -181v-239z" />
<glyph unicode="&#x203a;" horiz-adv-x="495" d="M92 203v76l230 182l-230 180v240l311 -244v-191z" />
<glyph unicode="&#x205f;" horiz-adv-x="487" />
<glyph unicode="&#x2122;" horiz-adv-x="1325" d="M92 1446v29h373v-29h-131v-598h-109v598h-133zM553 848v627h119l217 -576l217 576h108v-627h-108v534l-203 -534h-112l-199 530v-530h-39z" />
<glyph unicode="&#x25fc;" horiz-adv-x="1064" d="M0 0v1065h1065v-1065h-1065z" />
<glyph unicode="&#xfb01;" horiz-adv-x="872" d="M0 1010v51h111v229q0 102 49 153.5t172 51.5q57 0 106 -22v-54q-12 10 -27.5 13.5t-25.5 3.5q-35 0 -47 -41t-12 -105v-229h436v-920q0 -33 10 -61.5t39 -28.5q23 0 39 8.5t24 18.5v-64q-43 -23 -106 -22q-123 0 -172 51t-49 154v813h-221v-1010h-215v1010h-111z M526 1395q0 25 12.5 43t31 30.5t41 19.5t42.5 7q43 0 86 -26.5t43 -73.5q0 -25 -12 -44.5t-30.5 -31.5t-41 -19.5t-43.5 -7.5q-43 0 -86 27t-43 76z" />
<glyph unicode="&#xfb02;" horiz-adv-x="872" d="M0 1010v51h111v160q0 57 22.5 107t64.5 87t102 58.5t136 21.5t136.5 -21.5t102.5 -58.5t64.5 -87t22.5 -107v-1080q0 -33 10 -61.5t39 -28.5q23 0 39 8.5t24 18.5v-64q-43 -23 -106 -22q-123 0 -172 51t-49 154v1024q0 94 -29 158.5t-82 64.5t-81.5 -64.5t-28.5 -158.5 v-160h110v-51h-110v-1010h-215v1010h-111z" />
</font>
</defs>
</svg>
