<?xml version="1.0" standalone="no"?>
<!DOCTYPE svg PUBLIC "-//W3C//DTD SVG 1.1//EN" "http://www.w3.org/Graphics/SVG/1.1/DTD/svg11.dtd" >
<svg xmlns="http://www.w3.org/2000/svg" xmlns:xlink="http://www.w3.org/1999/xlink" version="1.1">
<metadata></metadata>
<defs>
<font id="passionsanspdaebook" horiz-adv-x="1275" >
<font-face units-per-em="2048" ascent="1638" descent="-410" />
<missing-glyph horiz-adv-x="606" />
<glyph horiz-adv-x="0" />
<glyph unicode="&#xd;" horiz-adv-x="0" />
<glyph unicode=" "  horiz-adv-x="606" />
<glyph unicode="&#x09;" horiz-adv-x="606" />
<glyph unicode="&#xa0;" horiz-adv-x="606" />
<glyph unicode="!" horiz-adv-x="360" d="M80 61q0 39 32.5 61.5t67.5 22.5t68 -22.5t33 -61.5t-33 -60t-68 -21t-67.5 21.5t-32.5 59.5zM100 1475h160l-59 -1123h-41z" />
<glyph unicode="&#x22;" horiz-adv-x="669" d="M76 954l133 541l149 -55l-243 -500zM311 954l133 541l150 -55l-244 -500z" />
<glyph unicode="#" horiz-adv-x="1234" d="M82 512v41h235l52 369h-232v41h236l69 512h121l-69 -512h309l69 512h121l-71 -512h233v-41h-237l-52 -369h232v-41h-236l-69 -512h-121l69 512h-309l-70 -512h-120l71 512h-231zM438 553h310l49 369h-310z" />
<glyph unicode="$" horiz-adv-x="1013" d="M45 473h160q0 -51 19.5 -95t58.5 -78t95 -53.5t128 -19.5q74 0 130 19.5t94 53.5t58.5 78t20.5 95q0 49 -20.5 94t-58.5 78t-94 52.5t-130 19.5q-100 0 -180 22.5t-135.5 61.5t-85 91t-29.5 112q0 57 27.5 108t81 89t129 61.5t171.5 25.5v187h41v-187q96 -2 173 -25.5 t130.5 -61.5t81 -89t27.5 -108h-160q0 100 -69.5 171.5t-202.5 71.5q-131 0 -200.5 -71.5t-69.5 -171.5q0 -51 17 -95.5t52 -78t85 -53t116 -19.5q109 0 194.5 -22.5t145 -60.5t91.5 -90.5t32 -111.5t-30 -110.5t-87 -89t-139 -61.5t-187 -26v-186h-41v186q-104 2 -185 26 t-138.5 61.5t-87 89t-29.5 110.5z" />
<glyph unicode="%" horiz-adv-x="1699" d="M76 1130q0 70 23.5 136.5t71.5 117t118.5 81t165.5 30.5q94 0 164.5 -30.5t117.5 -81t72 -117t25 -136.5q0 -72 -25 -136t-72 -115.5t-117.5 -81t-164.5 -29.5t-165 29.5t-119 81t-71.5 116t-23.5 135.5zM233 1130q0 -61 14.5 -119.5t42 -103.5t68.5 -71.5t97 -26.5 q53 0 94 26.5t68.5 71.5t42 103.5t14.5 119.5q0 63 -14.5 122t-42 104t-68.5 71.5t-94 26.5q-55 0 -96.5 -26.5t-69 -71.5t-42 -103.5t-14.5 -122.5zM381 0l889 1475h47l-889 -1475h-47zM864 344q0 70 24.5 135.5t72 116.5t119 81t165.5 30t165 -30t118 -81t71.5 -116.5 t24.5 -135.5q0 -72 -24.5 -137.5t-71.5 -115.5t-118 -80.5t-165 -30.5t-165.5 30.5t-119 80.5t-72 115.5t-24.5 137.5zM1024 344q0 -63 14.5 -121.5t42 -103.5t68.5 -72t96 -27q53 0 94 27t69 72t42 103.5t14 121.5q0 61 -14 119.5t-42 103.5t-69 72t-94 27q-55 0 -96 -27 t-68.5 -72t-42 -103t-14.5 -120z" />
<glyph unicode="&#x26;" horiz-adv-x="1636" d="M76 358q0 139 101.5 243t295.5 138q-174 37 -263 137.5t-89 229.5q0 80 36 151.5t105.5 124t168.5 83t228 30.5t228.5 -30.5t169 -83t105.5 -124t36 -151.5h-160q0 72 -24.5 135.5t-72.5 110.5t-118.5 74.5t-163.5 27.5q-92 0 -162.5 -27.5t-118.5 -74.5t-72.5 -110.5 t-24.5 -135.5t24.5 -135.5t72.5 -110.5t118.5 -74.5t162.5 -27.5v-41q-102 0 -182 -27.5t-133 -75t-80.5 -111t-27.5 -134.5q0 -72 32.5 -135.5t97 -110.5t160 -75t219.5 -28q117 0 207 30t151.5 81t93.5 117.5t34 140.5q2 82 -29 145.5t-80 105.5t-108.5 58.5t-115.5 5 t-102 -54.5t-67 -121l-156 13q14 63 58.5 108t110 68.5t149.5 23.5t182 -30q72 -23 135.5 -19t112.5 28.5t81 66.5t38 96l155 -15q-66 -231 -430 -196q39 -16 80 -45t73 -68t52.5 -85t20.5 -95q0 -80 -40 -152.5t-121 -128t-202 -87t-283 -31.5t-286.5 28.5t-209.5 79.5 t-129 121t-44 149z" />
<glyph unicode="'" horiz-adv-x="434" d="M76 954l133 541l149 -55l-243 -500z" />
<glyph unicode="(" horiz-adv-x="544" d="M76 500q0 141 27.5 279.5t75.5 264t110.5 236.5t134.5 195l45 -19q-63 -88 -107.5 -197.5t-72 -232.5t-40.5 -257t-13 -269t13 -269.5t40.5 -257.5t72 -232.5t107.5 -197.5l-45 -18q-72 84 -134.5 194.5t-110.5 236.5t-75.5 264t-27.5 280z" />
<glyph unicode=")" horiz-adv-x="544" d="M76 -457q63 88 107 197.5t72 232.5t41 257.5t13 269.5t-13 269t-41 257t-72 232.5t-107 197.5l45 19q70 -84 133 -195t111.5 -236.5t76 -264t27.5 -279.5t-27.5 -279.5t-76 -264.5t-112 -236.5t-132.5 -194.5z" />
<glyph unicode="*" horiz-adv-x="903" d="M76 1143l49 153l305 -161l-59 340h159l-59 -340l307 161l49 -153l-342 -47l248 -242l-129 -94l-153 311l-152 -311l-129 94l248 242z" />
<glyph unicode="+" d="M96 684v107h488v487h106v-487h490v-107h-488v-487h-106v487h-490z" />
<glyph unicode="," horiz-adv-x="352" d="M-29 -412q0 12 6.5 41t13.5 68t17 84t21 90q23 106 51 235q10 41 50 58.5t79 3.5q18 -8 33.5 -22.5t24.5 -32t10 -37t-9 -37.5q-61 -117 -114 -213q-23 -41 -45.5 -82t-42 -76t-35 -59.5t-21.5 -34.5z" />
<glyph unicode="-" horiz-adv-x="624" d="M98 485v129h439v-129h-439z" />
<glyph unicode="." horiz-adv-x="360" d="M80 61q0 39 32.5 61.5t67.5 22.5t68 -22.5t33 -61.5t-33 -60t-68 -21t-67.5 21.5t-32.5 59.5z" />
<glyph unicode="/" horiz-adv-x="647" d="M0 0l604 1475h43l-604 -1475h-43z" />
<glyph unicode="0" d="M66 737q0 152 36.5 289t108.5 241.5t179.5 166t248.5 61.5t247.5 -61.5t178.5 -166t108.5 -241.5t36.5 -289t-36.5 -289t-108.5 -241.5t-178.5 -165.5t-247.5 -61t-248.5 61t-179.5 165.5t-108.5 242t-36.5 288.5zM225 737q0 -121 25.5 -248t77 -231t129.5 -171t182 -67 t181 67t128 171t77 231t26 248t-26 248t-77 231.5t-128 171t-181 66.5t-182 -66.5t-129.5 -171t-77 -231.5t-25.5 -248z" />
<glyph unicode="1" d="M381 1434v41h338v-1475h-160v1434h-178z" />
<glyph unicode="2" d="M72 0q0 121 40 211t113.5 157.5t178 119t233.5 92.5q82 27 149.5 64.5t115.5 89.5t73.5 122t25.5 160t-22.5 170t-67.5 139t-109.5 94t-150.5 35q-84 0 -149.5 -35t-109.5 -94t-66.5 -139t-22.5 -170h-160q0 98 34 186t99.5 152.5t159.5 102.5t215 38t216.5 -38 t161 -102.5t99 -152.5t33.5 -186t-35.5 -171t-103.5 -128t-163 -97t-212 -79q-184 -59 -294.5 -177t-119.5 -323h971v-41h-1132z" />
<glyph unicode="3" d="M80 369h160q0 -72 25.5 -135.5t76.5 -110.5t125 -75t170 -28t171 28t125 75t76.5 110.5t26.5 135.5t-25.5 135t-76.5 110.5t-125 75t-170 27.5h-109v41h107q88 0 154.5 27.5t112.5 74.5t69.5 110.5t23.5 135.5t-23.5 135.5t-68.5 110.5t-112.5 74.5t-153.5 27.5 q-88 0 -154.5 -27.5t-112.5 -74.5t-69.5 -110.5t-23.5 -135.5h-160q0 80 34.5 151.5t101.5 124t163 83t219 30.5t220 -30.5t163.5 -83t101.5 -124t35 -151.5q0 -129 -86 -230.5t-252 -136.5q184 -35 280.5 -136t96.5 -234q0 -80 -37 -152t-108.5 -124t-175 -82.5 t-236.5 -30.5t-237.5 30.5t-176 82.5t-108.5 124t-37 152z" />
<glyph unicode="4" d="M63 358v41l586 938h111l-586 -938h643v1076h160v-1076h235v-41h-235v-358h-160v358h-754z" />
<glyph unicode="5" d="M92 489h160q0 -96 25.5 -182t74.5 -149.5t121 -100.5t166 -37t166 37t121 100.5t74.5 149.5t25.5 182q0 98 -25.5 183.5t-74.5 150t-121 101.5t-166 37q-133 0 -220 -75t-130 -194l-4 -6h-158l160 789h843v-41h-694l-114 -564q53 59 140 95t193 36q129 0 228.5 -40.5 t166 -110.5t101.5 -163.5t35 -197.5t-37 -197t-106.5 -163t-171 -109.5t-232.5 -39.5t-232.5 39.5t-171 109.5t-106.5 163t-37 197z" />
<glyph unicode="6" d="M70 621q0 147 26.5 301.5t95 282.5t187.5 209t303 81q168 0 292 -80t200 -215l-111 -72q-27 70 -63.5 129.5t-84 103.5t-105.5 68.5t-128 24.5q-106 0 -188 -53t-137.5 -142.5t-84 -208t-28.5 -247.5v-10q51 92 154.5 150t242.5 58q131 0 230.5 -39.5t167 -109.5 t101.5 -163.5t34 -199.5q0 -104 -37 -197t-106.5 -163t-171 -109.5t-232.5 -39.5q-160 0 -267.5 48t-172 133t-91 202.5t-26.5 257.5zM240 489q0 -96 25.5 -182t74.5 -149.5t120.5 -100.5t166.5 -37q94 0 165.5 37t121 100.5t75 149.5t25.5 182q0 98 -25.5 183.5t-75 150 t-121 101.5t-165.5 37t-166 -37t-121 -101.5t-74.5 -149.5t-25.5 -184z" />
<glyph unicode="7" d="M201 1434v41h886v-41l-638 -1434h-175l639 1434h-712z" />
<glyph unicode="8" d="M80 369q0 133 96 234.5t281 135.5q-166 35 -252 136.5t-86 230.5q0 80 34.5 151.5t101.5 124t163 83t219 30.5t220 -30.5t163.5 -83t101.5 -124t35 -151.5q0 -129 -86 -230.5t-252 -136.5q184 -35 280.5 -136t96.5 -234q0 -80 -37 -152t-108.5 -124t-175 -82.5 t-236.5 -30.5t-237.5 30.5t-176 82.5t-108.5 124t-37 152zM240 369q0 -72 25.5 -135.5t76.5 -110.5t125 -75t170 -28t171 28t125 75t76.5 110.5t26.5 135.5t-25.5 135t-76.5 110.5t-125 75t-170 27.5t-171 -27.5t-126 -75t-76.5 -111t-25.5 -134.5zM279 1106 q0 -72 23.5 -135.5t68.5 -110.5t112.5 -74.5t153.5 -27.5q88 0 154.5 27.5t112.5 74.5t69.5 110.5t23.5 135.5t-23.5 135.5t-68.5 110.5t-112.5 74.5t-153.5 27.5q-88 0 -154.5 -27.5t-112.5 -74.5t-69.5 -110.5t-23.5 -135.5z" />
<glyph unicode="9" d="M70 274l112 72q27 -70 63 -129t84 -103t105.5 -69t126.5 -25q106 0 187 53.5t136.5 142.5t84 208t30.5 248l2 10q-51 -92 -154.5 -150.5t-244.5 -58.5q-131 0 -230.5 40t-167 109.5t-101 163t-33.5 199.5q0 104 36.5 197.5t106.5 163t172 109.5t231 40q160 0 266.5 -48 t171 -133t92.5 -203t28 -257q0 -147 -26 -302t-94.5 -283t-187 -208.5t-305.5 -80.5q-168 0 -291 79.5t-200 214.5zM229 985q0 -98 26 -183t75 -149.5t120.5 -101.5t165.5 -37t167 37t122 101.5t75 149.5t26 183q0 96 -26 182t-75 149.5t-121.5 100.5t-167.5 37 q-94 0 -165.5 -37t-120.5 -100.5t-75 -149.5t-26 -182z" />
<glyph unicode=":" horiz-adv-x="360" d="M80 61q0 39 32.5 61.5t67.5 22.5t68 -22.5t33 -61.5t-33 -60t-68 -21t-67.5 21.5t-32.5 59.5zM80 999q0 39 32.5 60.5t67.5 21.5t68 -21.5t33 -60.5t-33 -61.5t-68 -22.5t-67.5 23t-32.5 61z" />
<glyph unicode=";" horiz-adv-x="360" d="M-18 -412q0 12 6 41t13 68t17.5 84t20.5 90q23 106 51 235q10 41 49 59.5t80 2.5q18 -6 33.5 -20.5t25 -33t10.5 -38t-9 -37.5q-61 -117 -115 -213q-23 -41 -45.5 -82t-42 -76t-34.5 -59.5t-22 -34.5zM80 999q0 39 32.5 60.5t67.5 21.5t68 -21.5t33 -60.5t-33 -61.5 t-68 -22.5t-67.5 23t-32.5 61z" />
<glyph unicode="&#x3c;" d="M96 680v115l1084 489v-115l-936 -432l936 -432v-115z" />
<glyph unicode="=" d="M96 475v107h1084v-107h-1084zM96 893v106h1084v-106h-1084z" />
<glyph unicode="&#x3e;" d="M96 190v115l936 432l-936 432v115l1084 -489v-115z" />
<glyph unicode="?" horiz-adv-x="1110" d="M76 1137q0 74 31.5 139t93 114.5t150.5 77t204 27.5q113 0 202 -27.5t150.5 -77t94 -114.5t32.5 -139q0 -72 -29.5 -136.5t-88 -112.5t-142.5 -77t-192 -31l-37 -428h-41l-60 467q94 2 173 18.5t136.5 53.5t89 96.5t31.5 149.5q0 66 -20 124t-61 101t-100.5 67.5 t-137.5 24.5t-137.5 -24.5t-100.5 -67.5t-61 -101.5t-20 -123.5h-160zM424 61q0 39 32.5 61.5t67.5 22.5t68 -22.5t33 -61.5t-33 -60t-68 -21t-67.5 21.5t-32.5 59.5z" />
<glyph unicode="@" horiz-adv-x="1609" d="M76 743q2 160 61.5 299.5t162.5 240.5t240.5 159.5t297.5 58.5q141 0 267 -44t221 -126t151.5 -200t56.5 -265q0 -70 -17.5 -140.5t-50.5 -137.5q-27 -57 -68.5 -116.5t-94 -107t-113 -77t-125.5 -29.5q-55 0 -86 27.5t-33 68.5q-2 6 -1 19.5t3 21.5h-4 q-47 -66 -128 -105.5t-181 -31.5q-57 4 -106.5 29.5t-84 72t-53 112t-14.5 149.5q4 94 35.5 199.5t90 193.5t144.5 144t199 52q41 -2 83 -13t77.5 -32.5t62.5 -53.5t39 -73h6l45 140h88l-207 -633q-12 -37 -24 -86t-12 -78q-2 -39 11 -67.5t48 -28.5q47 -2 88 29.5t76 64.5 q45 41 83 98.5t65.5 123t43 134t15.5 131.5q2 137 -41 250t-122 191.5t-189.5 122t-243.5 43.5q-141 0 -261 -57.5t-208 -157t-139.5 -232.5t-53.5 -283q-4 -166 43 -301t134 -232t210 -151.5t275 -56.5q94 0 181 25.5t164 72.5t140 111.5t107 138.5h88q-49 -86 -129 -155.5 t-173.5 -118.5t-192.5 -75t-185 -26q-172 2 -313.5 57.5t-242 156t-154.5 241.5t-52 313zM475 612q-2 -63 7.5 -121.5t32 -103.5t57 -72.5t83.5 -29.5q53 -4 99.5 16.5t83 55t64.5 80.5t46 95q33 92 65.5 188.5t63.5 190.5q-8 133 -70.5 199t-156.5 70q-55 2 -104.5 -25 t-90.5 -73t-73.5 -106.5t-56 -124t-36 -125.5t-14.5 -114z" />
<glyph unicode="A" horiz-adv-x="1220" d="M0 0l530 1475h160l531 -1475h-168l-172 475h-666l-172 -475h-43zM227 516h641l-319 879z" />
<glyph unicode="B" horiz-adv-x="1222" d="M111 0v1475h522q111 0 196.5 -29t146 -79t91.5 -117.5t31 -143.5q0 -123 -76 -216t-219 -128q168 -35 256 -137.5t88 -235.5q0 -80 -35 -151.5t-100.5 -124t-160.5 -83t-218 -30.5h-522zM270 41h363q86 0 152.5 27.5t110.5 74.5t67.5 110.5t23.5 135.5t-23.5 135.5 t-67.5 110.5t-110.5 74.5t-152.5 27.5h-363v-696zM270 778h363q74 0 131 25.5t95 71t58.5 104.5t20.5 127t-20.5 127t-58.5 104t-95 71t-131 26h-363v-656z" />
<glyph unicode="C" horiz-adv-x="1452" d="M76 737q0 156 46 294t133 241.5t215 163t292 59.5q113 0 209 -28.5t173 -82t135 -127t97 -161.5h-147q-29 76 -72 142.5t-100.5 113.5t-131 74.5t-163.5 27.5q-139 0 -238.5 -64.5t-164 -168t-94 -231.5t-29.5 -253q0 -127 29.5 -254t94 -230t164 -168t238.5 -65 q90 0 163.5 28t131 75t100.5 112.5t72 143.5h147q-39 -90 -97 -163t-135 -126t-173.5 -81.5t-208.5 -28.5q-164 0 -292 59t-215 162.5t-133 241t-46 294.5z" />
<glyph unicode="D" horiz-adv-x="1460" d="M111 0v1475h630q158 0 279 -58.5t202 -158t121.5 -233.5t40.5 -288t-40.5 -288t-121.5 -233t-202 -157.5t-279 -58.5h-630zM270 41h471q121 0 212 55.5t151.5 149.5t90.5 221t30 270t-30 270.5t-90.5 221.5t-151.5 149.5t-212 55.5h-471v-1393z" />
<glyph unicode="E" horiz-adv-x="1179" d="M111 0v1475h956v-41h-797v-646h586v-40h-586v-707h817v-41h-976z" />
<glyph unicode="F" horiz-adv-x="1171" d="M111 0v1475h962v-41h-803v-646h586v-40h-586v-748h-159z" />
<glyph unicode="G" horiz-adv-x="1462" d="M76 737q0 156 46 294t133 241.5t215 163t292 59.5q113 0 209 -28.5t173 -82t135 -127t97 -161.5h-147q-29 76 -72 142.5t-100.5 113.5t-131 74.5t-163.5 27.5q-139 0 -238.5 -64.5t-164 -168t-94 -231.5t-29.5 -253q0 -127 29.5 -254t94 -230t164 -168t238.5 -65 q90 0 163.5 28t131 75t100.5 112.5t72 143.5v270h-467v41h614v-311q-39 -90 -97 -163t-135 -126t-173.5 -81.5t-208.5 -28.5q-164 0 -292 59t-215 162.5t-133 241t-46 294.5z" />
<glyph unicode="H" horiz-adv-x="1277" d="M111 0v1475h159v-687h738v687h159v-1475h-159v748h-738v-748h-159z" />
<glyph unicode="I" horiz-adv-x="380" d="M111 0v1475h159v-1475h-159z" />
<glyph unicode="J" horiz-adv-x="380" d="M-285 -205q96 0 170 27.5t124 75t76 111t26 134.5v1332h159v-1332q0 -80 -36.5 -151.5t-108.5 -123.5t-175.5 -83t-234.5 -31v41z" />
<glyph unicode="K" horiz-adv-x="1085" d="M111 0v1475h159v-693l756 693h59l-675 -611l708 -864h-196l-652 782v-782h-159z" />
<glyph unicode="L" horiz-adv-x="1202" d="M111 0v1475h159v-1434h840v-41h-999z" />
<glyph unicode="M" horiz-adv-x="1654" d="M111 0v1475h174l551 -1397l548 1397h160v-1475h-160v1341l-532 -1341h-160l-528 1337v-1337h-53z" />
<glyph unicode="N" horiz-adv-x="1327" d="M111 0v1475h159l893 -1340v1340h54v-1475h-160l-893 1339v-1339h-53z" />
<glyph unicode="O" horiz-adv-x="1521" d="M76 737q0 156 46 294t133 241.5t215 163t292 59.5t291 -59.5t215 -163t133 -241.5t45 -294q0 -158 -45 -295t-133 -240.5t-215 -162.5t-291 -59t-292 59t-215 162.5t-133 241t-46 294.5zM236 737q0 -127 29.5 -254t94 -230t164 -168t238.5 -65q137 0 236.5 65t164 168 t94 230t29.5 254q0 125 -29.5 253t-94 231.5t-164 168t-236.5 64.5q-139 0 -238.5 -64.5t-164 -168t-94 -231.5t-29.5 -253z" />
<glyph unicode="P" horiz-adv-x="1122" d="M111 0v1475h450q117 0 207 -34t151.5 -92.5t94.5 -137.5t33 -169t-33 -168.5t-94.5 -137t-151.5 -92.5t-207 -34h-291v-610h-159zM270 651h291q80 0 140.5 31t101.5 84t62.5 123.5t21.5 152.5q0 80 -21.5 152t-62.5 125t-101.5 84t-140.5 31h-291v-783z" />
<glyph unicode="Q" horiz-adv-x="1521" d="M76 737q0 156 46 294t133 241.5t215 163t292 59.5t291 -59.5t215 -163t133 -241.5t45 -294q0 -117 -25.5 -225.5t-76 -198.5t-124 -160.5t-169.5 -111.5q70 -63 141.5 -96t137.5 -37q11 -1 22 -1q55 0 106 17q60 21 107 64l84 -135q-59 -51 -135 -67q-35 -8 -73 -8 q-43 0 -88 10q-85 19 -175.5 75.5t-178.5 154.5q-110 -38 -231 -38h-6q-164 0 -292 59t-215 162.5t-133 241t-46 294.5zM236 737q0 -135 37.5 -257t115.5 -208q55 39 124 52q28 5 57 5q43 0 90 -11q77 -19 160 -69t167 -136q76 43 132.5 109.5t93 149.5t55 176t18.5 189 q0 125 -29.5 253t-94 231.5t-164 168t-236.5 64.5q-139 0 -238.5 -64.5t-164 -168t-94 -231.5t-29.5 -253zM446 133q59 -53 138.5 -83t177.5 -30q55 0 103 13.5t91 36.5q-70 63 -139 96t-136 39q-16 1 -32 1q-49 0 -94 -14q-59 -18 -109 -59z" />
<glyph unicode="R" horiz-adv-x="1099" d="M111 0v1475h432q117 0 207 -34t151.5 -92.5t94 -137t32.5 -169.5q0 -76 -23.5 -144.5t-68.5 -123.5t-111.5 -93t-154.5 -54q176 -41 267 -139.5t91 -225.5v-262h-160v262q0 72 -26.5 135.5t-77.5 110.5t-128 74.5t-175 27.5h-191v-610h-159zM270 651h273q80 0 140 31 t101 84t62.5 123.5t21.5 152.5q0 80 -21.5 152t-62.5 125t-101 84t-140 31h-273v-783z" />
<glyph unicode="S" horiz-adv-x="1228" d="M31 369h159q0 -72 28 -135.5t82 -110.5t133 -75t181 -28t181 28t133.5 75t82 110.5t27.5 135.5t-27.5 135t-82 110.5t-133 75t-181.5 27.5q-129 0 -228 30.5t-169 83t-105.5 124t-35.5 151.5t35.5 151.5t105.5 124t169 83t228 30.5t228.5 -30.5t169 -83t105.5 -124 t36 -151.5h-160q0 72 -24.5 135.5t-72.5 110.5t-118.5 74.5t-163.5 27.5q-92 0 -162.5 -27.5t-118.5 -74.5t-72.5 -110.5t-24.5 -135.5t24.5 -135.5t72.5 -110.5t118.5 -74.5t162.5 -27.5q139 0 248 -31t183.5 -83t113.5 -123.5t39 -151.5t-39 -152t-113.5 -124t-183 -82.5 t-248.5 -30.5q-139 0 -247.5 30.5t-183 82.5t-113.5 124t-39 152z" />
<glyph unicode="T" d="M20 1434v41h1235v-41h-538v-1434h-160v1434h-537z" />
<glyph unicode="U" horiz-adv-x="1376" d="M111 569v906h159v-906q0 -115 32 -214t91.5 -174t147.5 -118t200 -43q117 0 205 45.5t147.5 120t89 174t29.5 209.5v906h54v-906q0 -127 -36 -234.5t-107.5 -186t-179 -123.5t-251.5 -45q-137 0 -245.5 46t-183.5 125.5t-113.5 187t-38.5 230.5z" />
<glyph unicode="V" horiz-adv-x="1220" d="M0 1475h168l504 -1395l506 1395h43l-531 -1475h-160z" />
<glyph unicode="W" horiz-adv-x="1921" d="M0 1475h168l504 -1395l266 729l-238 666h168l504 -1395l506 1395h43l-530 -1475h-160l-270 741l-271 -741h-160z" />
<glyph unicode="X" horiz-adv-x="1241" d="M0 0l555 694l-555 781h195l471 -660l524 660h55l-555 -695l557 -780h-194l-473 659l-525 -659h-55z" />
<glyph unicode="Y" horiz-adv-x="1306" d="M0 1475h184l537 -816l539 816h47l-574 -877v-598h-160v598z" />
<glyph unicode="Z" horiz-adv-x="1318" d="M92 0v41l950 1393h-929v41h1114v-41l-951 -1393h951v-41h-1135z" />
<glyph unicode="[" horiz-adv-x="583" d="M111 -475v1950h381v-41h-222v-1868h222v-41h-381z" />
<glyph unicode="\" horiz-adv-x="647" d="M0 1475h43l604 -1475h-43z" />
<glyph unicode="]" horiz-adv-x="583" d="M92 -434h221v1868h-221v41h381v-1950h-381v41z" />
<glyph unicode="^" horiz-adv-x="1241" d="M100 295l445 885h151l443 -885h-152l-420 838l-422 -838h-45z" />
<glyph unicode="_" horiz-adv-x="1024" d="M0 -111h1024v-41h-1024v41z" />
<glyph unicode="`" horiz-adv-x="0" d="M344 1505h191l253 -291h-40z" />
<glyph unicode="a" horiz-adv-x="1110" d="M76 264q0 66 38 119t101.5 90t147 57.5t176.5 20.5q76 0 132 21.5t94 55.5t56.5 78t18.5 89t-17.5 89t-51.5 78.5t-84 56t-118 21.5t-119 -21.5t-84.5 -56t-51 -78.5t-17.5 -89h-160q0 66 35 119t95.5 89.5t138 57t163.5 20.5t164 -20.5t137.5 -57t94 -90t34.5 -118.5 v-795h-159v96q-23 -25 -59 -46t-82 -36.5t-99 -24.5t-108 -9q-92 0 -169 20t-131.5 58t-85 90.5t-30.5 115.5zM236 264q0 -45 18 -89t56 -78t95.5 -55.5t133.5 -21.5t132 21.5t94 55.5t56.5 78t18.5 91v350q-43 -47 -119 -76.5t-182 -29.5q-76 0 -133.5 -21.5t-95.5 -55.5 t-56 -79t-18 -90z" />
<glyph unicode="b" horiz-adv-x="1155" d="M111 0v1475h159v-560q51 76 130 121t184 45q119 0 212 -43t155.5 -117.5t95 -175t32.5 -215.5t-32.5 -215t-95 -174.5t-156 -117.5t-211.5 -43q-104 0 -183 45t-131 120v-145h-159zM270 272q41 -109 116 -180.5t187 -71.5q88 0 153 48.5t108 123t64.5 164.5t21.5 174 t-21.5 174.5t-64.5 165t-107.5 122.5t-153.5 48q-113 0 -187.5 -71.5t-115.5 -180.5v-516z" />
<glyph unicode="c" horiz-adv-x="1114" d="M76 530q0 115 34.5 215.5t99 175t159 117.5t213.5 43q166 0 282.5 -80.5t173.5 -214.5h-153q-39 109 -115 181.5t-188 72.5q-88 0 -152.5 -48t-107.5 -122.5t-64.5 -165t-21.5 -174.5t21.5 -174t64.5 -164.5t107.5 -123t152.5 -48.5q113 0 188.5 73t114.5 181h153 q-57 -133 -173.5 -213.5t-282.5 -80.5q-119 0 -213.5 43t-159 117.5t-99 175t-34.5 214.5z" />
<glyph unicode="d" horiz-adv-x="1155" d="M76 530q0 115 32.5 215.5t96 175t156 117.5t210.5 43q104 0 183.5 -45t130.5 -121v560h159v-1475h-159v145q-51 -76 -130 -120.5t-184 -44.5q-119 0 -211 43t-155.5 117.5t-96 175t-32.5 214.5zM236 530q0 -84 21.5 -174t64.5 -164.5t107.5 -123t152.5 -48.5 q113 0 187.5 72t115.5 180v516q-41 109 -116 180.5t-187 71.5q-88 0 -152.5 -48t-107.5 -122.5t-64.5 -165t-21.5 -174.5z" />
<glyph unicode="e" horiz-adv-x="1163" d="M76 530q0 115 34.5 215.5t99 175t159 117.5t213.5 43t213 -43t158.5 -117.5t99 -175t34.5 -215.5h-851q0 -84 21.5 -174t64.5 -164.5t107.5 -123t152.5 -48.5q113 0 188.5 73t114.5 181h153q-57 -133 -173.5 -213.5t-282.5 -80.5q-119 0 -213.5 43t-159 117.5t-99 175 t-34.5 214.5zM236 571h690q-2 88 -25.5 172t-66.5 151t-106.5 106.5t-145.5 39.5q-84 0 -146.5 -39.5t-106.5 -106.5t-67.5 -151t-25.5 -172z" />
<glyph unicode="f" horiz-adv-x="401" d="M0 1020v41h111v272q0 78 39.5 120t138.5 42q41 0 78 -16v-49q-8 6 -20.5 12t-29.5 6q-27 0 -37 -24.5t-10 -53.5v-309h131v-41h-131v-1020h-159v1020h-111z" />
<glyph unicode="g" horiz-adv-x="983" d="M43 -205h160q0 -51 18.5 -97t55 -80t91 -53.5t124.5 -19.5t124 19.5t90.5 53.5t55 80t18.5 97t-18.5 97.5t-55 80t-91 53t-123.5 19.5q-164 0 -257.5 34t-93.5 85q0 35 47.5 63.5t137.5 40.5q-61 20 -107.5 59.5t-78 90.5t-48 113.5t-16.5 130.5q0 88 28.5 163.5t82 133 t130 90t175.5 32.5h395v-41h-203q111 -45 167 -148.5t56 -229.5q0 -88 -28.5 -165t-82 -134.5t-130 -90t-174.5 -32.5q-92 0 -141.5 -22.5t-49.5 -53.5q0 -33 49 -55.5t142 -22.5q104 0 188 -22.5t141.5 -62.5t88 -92.5t30.5 -113.5t-30.5 -113.5t-88 -92.5t-141.5 -62.5 t-188 -22.5t-188.5 22.5t-142 62.5t-88 92.5t-30.5 113.5zM236 662q0 -63 15 -131t48 -123.5t80 -91t113 -35.5q63 0 111 35.5t81 91t48.5 123.5t15.5 131t-15.5 129.5t-48.5 122t-81 91t-111 35.5q-66 0 -113 -35.5t-80 -91t-48 -122t-15 -129.5z" />
<glyph unicode="h" horiz-adv-x="1114" d="M111 0v1475h159v-592q43 88 129 143t211 55q92 0 166 -30.5t124 -83t77 -123t27 -150.5v-694h-160v694q0 72 -18.5 134.5t-55.5 109.5t-90 74.5t-123 27.5t-123 -27.5t-90 -74.5t-55.5 -109.5t-18.5 -134.5v-694h-159z" />
<glyph unicode="i" horiz-adv-x="380" d="M90 1413q0 39 33 60.5t67 21.5q35 0 68 -21.5t33 -60.5t-33 -61.5t-68 -22.5t-67.5 22.5t-32.5 61.5zM111 156v905h159v-942q0 -29 10.5 -54.5t36.5 -25.5q16 0 28.5 7t21.5 13v-51q-31 -14 -78 -14q-98 0 -138 42t-40 120z" />
<glyph unicode="j" horiz-adv-x="380" d="M14 -430q8 -6 20.5 -12.5t28.5 -6.5q27 0 37.5 25t10.5 53v1432h159v-1395q0 -78 -40 -120t-138 -42q-41 0 -78 17v49zM90 1413q0 39 33 60.5t67 21.5q35 0 68 -21.5t33 -60.5t-33 -61.5t-68 -22.5t-67.5 22.5t-32.5 61.5z" />
<glyph unicode="k" horiz-adv-x="870" d="M111 0v1475h159v-887l539 473h61l-458 -397l497 -664h-194l-445 588v-588h-159z" />
<glyph unicode="l" horiz-adv-x="380" d="M111 156v1319h159v-1356q0 -29 10.5 -54.5t36.5 -25.5q16 0 28.5 7t21.5 13v-51q-31 -14 -78 -14q-98 0 -138 42t-40 120z" />
<glyph unicode="m" horiz-adv-x="1847" d="M111 0v1061h159v-178q43 88 129 143t211 55q143 0 236.5 -69.5t130.5 -177.5q37 109 130 178t236 69q92 0 166 -30.5t124 -83t77 -123t27 -150.5v-694h-160v694q0 72 -18.5 134.5t-55.5 109.5t-90 74.5t-123 27.5t-123 -27.5t-90 -74.5t-55 -109.5t-18 -134.5v-694h-160 v694q0 72 -18.5 134.5t-55.5 109.5t-90 74.5t-123 27.5t-123 -27.5t-90 -74.5t-55.5 -109.5t-18.5 -134.5v-694h-159z" />
<glyph unicode="n" horiz-adv-x="1114" d="M111 0v1061h159v-178q43 88 129 143t211 55q92 0 166 -30.5t124 -83t77 -123t27 -150.5v-694h-160v694q0 72 -18.5 134.5t-55.5 109.5t-90 74.5t-123 27.5t-123 -27.5t-90 -74.5t-55.5 -109.5t-18.5 -134.5v-694h-159z" />
<glyph unicode="o" horiz-adv-x="1163" d="M76 530q0 115 34.5 215.5t99 175t159 117.5t213.5 43t213 -43t158.5 -117.5t99 -175t34.5 -215.5t-34.5 -215t-99 -174.5t-159 -117.5t-212.5 -43q-119 0 -213.5 43t-159 117.5t-99 175t-34.5 214.5zM236 530q0 -84 21.5 -174t64.5 -164.5t107.5 -123t152.5 -48.5 t152.5 48.5t107.5 123t64.5 164.5t21.5 174t-21.5 174.5t-64.5 165t-107.5 122.5t-152.5 48t-152.5 -48t-107.5 -122.5t-64.5 -165t-21.5 -174.5z" />
<glyph unicode="p" horiz-adv-x="1155" d="M111 -475v1536h159v-146q51 76 130 121t184 45q119 0 212 -43t155.5 -117.5t95 -175t32.5 -215.5t-32.5 -215t-95 -174.5t-156 -117.5t-211.5 -43q-104 0 -183 45t-131 120v-620h-159zM270 272q41 -109 116 -180.5t187 -71.5q88 0 153 48.5t108 123t64.5 164.5t21.5 174 t-21.5 174.5t-64.5 165t-107.5 122.5t-153.5 48q-113 0 -187.5 -71.5t-115.5 -180.5v-516z" />
<glyph unicode="q" horiz-adv-x="1155" d="M76 530q0 115 32.5 215.5t96 175t156 117.5t210.5 43q104 0 183.5 -45t130.5 -121v146h159v-1536h-159v620q-51 -76 -130 -120.5t-184 -44.5q-119 0 -211 43t-155.5 117.5t-96 175t-32.5 214.5zM236 530q0 -84 21.5 -174t64.5 -164.5t107.5 -123t152.5 -48.5 q113 0 187.5 72t115.5 180v516q-41 109 -116 180.5t-187 71.5q-88 0 -152.5 -48t-107.5 -122.5t-64.5 -165t-21.5 -174.5z" />
<glyph unicode="r" horiz-adv-x="724" d="M111 0v1061h159v-178q41 86 124 140t206 58h18.5t18.5 -2l-55 -63q-12 25 -33 24q-68 -2 -120 -29.5t-87 -74.5t-53.5 -109.5t-18.5 -132.5v-694h-159z" />
<glyph unicode="s" horiz-adv-x="1013" d="M45 266h160q0 -51 19.5 -95t58.5 -78t95 -53.5t128 -19.5q74 0 130 19.5t94 53.5t58.5 78t20.5 95q0 49 -20.5 94.5t-58.5 78t-94 52t-130 19.5q-100 0 -180 22.5t-135.5 61.5t-85 91t-29.5 112q0 59 29.5 111.5t85 90t135.5 60t180 22.5t181 -22.5t136.5 -60t85 -90 t29.5 -111.5h-160q0 100 -69.5 171.5t-202.5 71.5q-131 0 -200.5 -71.5t-69.5 -171.5q0 -51 17 -95.5t52 -78t85 -53t116 -19.5q109 0 194.5 -22.5t145 -60.5t91.5 -90.5t32 -111.5t-32 -111.5t-91.5 -91t-145.5 -61t-194 -22.5q-109 0 -194 22.5t-144 61t-91 91t-32 111.5z " />
<glyph unicode="t" horiz-adv-x="401" d="M0 1018v41h111v186l159 45v-229h131v-41h-131v-879q0 -49 12.5 -81.5t41.5 -32.5q10 0 21 2t22 10v-43q-37 -16 -78 -16q-98 0 -138 41.5t-40 119.5v877h-111z" />
<glyph unicode="u" horiz-adv-x="1114" d="M111 367v694h159v-694q0 -72 18.5 -134.5t55.5 -109.5t90 -75t123 -28t123 28t90 75t55.5 109.5t18.5 134.5v694h160v-1061h-160v178q-43 -88 -129 -143t-211 -55q-92 0 -166 30.5t-124 82.5t-76.5 123t-26.5 151z" />
<glyph unicode="v" horiz-adv-x="931" d="M0 1061h168l360 -983l361 983h43l-385 -1061h-160z" />
<glyph unicode="w" horiz-adv-x="1554" d="M0 1061h168l360 -983l228 608l-135 375h167l361 -983l362 983h43l-387 -1061h-159l-232 621l-229 -621h-160z" />
<glyph unicode="x" horiz-adv-x="952" d="M0 0l412 494l-412 567h193l331 -451l373 451h55l-403 -486l416 -575h-193l-338 459l-377 -459h-57z" />
<glyph unicode="y" horiz-adv-x="1114" d="M23 -180h159q35 -121 115 -198t197 -77q86 0 150.5 39t109.5 103.5t67.5 150.5t22.5 180v160q-43 -88 -129 -143t-211 -55q-92 0 -166 30.5t-124 82.5t-76.5 123t-26.5 151v694h159v-694q0 -72 18.5 -134.5t55.5 -109.5t90 -75t123 -28t123 28t90 75t55.5 109.5 t18.5 134.5v694h160v-1043q0 -102 -34 -195t-99.5 -164t-161 -113t-215.5 -42q-186 0 -309.5 88.5t-161.5 227.5z" />
<glyph unicode="z" horiz-adv-x="1091" d="M92 0v41l715 979h-694v41h886v-41l-714 -979h714v-41h-907z" />
<glyph unicode="{" horiz-adv-x="667" d="M92 479v41q27 0 47.5 17.5t33.5 45t20.5 63.5t7.5 75v426q0 63 13 122.5t37.5 104.5t58.5 73t75 28h190v-41h-104q-29 0 -50.5 -26t-34.5 -69t-19.5 -97t-6.5 -109v-416q0 -72 -24.5 -133.5t-77.5 -83.5q53 -23 77.5 -84.5t24.5 -132.5v-416q0 -55 6.5 -109.5t19.5 -97.5 t34.5 -68.5t50.5 -25.5h104v-41h-190q-41 0 -75 27.5t-58.5 72.5t-37.5 104.5t-13 123.5v426q0 39 -7.5 74.5t-20.5 63t-33.5 45t-47.5 17.5z" />
<glyph unicode="|" horiz-adv-x="339" d="M111 -20v1515h118v-1515h-118z" />
<glyph unicode="}" horiz-adv-x="667" d="M92 -434h105q29 0 49 25.5t34.5 68.5t20.5 97.5t6 109.5v416q0 72 24.5 133t78.5 84q-53 23 -78 84t-25 133v416q0 55 -6 109t-20.5 97t-35 69t-48.5 26h-105v41h189q41 0 75.5 -28t59 -73t38 -104.5t13.5 -122.5v-426q0 -39 6 -75t20.5 -63.5t34 -45t47.5 -17.5v-41 q-29 0 -48 -17.5t-33.5 -45t-20.5 -63.5t-6 -74v-426q0 -63 -13.5 -123t-38 -105t-59 -72.5t-75.5 -27.5h-189v41z" />
<glyph unicode="~" horiz-adv-x="1210" d="M78 729q35 66 99.5 94.5t135.5 28.5q70 0 133.5 -21.5t122 -48t113.5 -48t111 -21.5q63 0 117.5 33.5t84.5 89.5l142 -74q-35 -66 -99.5 -94.5t-136.5 -28.5t-134 21.5t-120.5 48t-114 48t-112.5 21.5q-63 0 -117.5 -33.5t-83.5 -89.5z" />
<glyph unicode="&#xa1;" horiz-adv-x="360" d="M80 938q0 39 32.5 60.5t67.5 21.5t68 -21.5t33 -60.5t-33 -61.5t-68 -22.5t-67.5 22.5t-32.5 61.5zM100 -475l60 1122h41l59 -1122h-160z" />
<glyph unicode="&#xa2;" horiz-adv-x="1114" d="M76 737q0 115 34.5 215.5t99 175t159 117.5t213.5 43h19t20 -2l28 189h41l-28 -193q135 -16 231 -94t145 -195h-153q-39 109 -115 181.5t-188 72.5q-88 0 -152.5 -48t-107.5 -123t-64.5 -165t-21.5 -174t21.5 -174t64.5 -164.5t107.5 -123t152.5 -48.5q113 0 188.5 73 t114.5 181h153q-57 -133 -173.5 -214t-282.5 -81q-45 0 -88 7l-29 -193h-43l31 201q-90 20 -160 70.5t-118 121t-73.5 158.5t-25.5 186z" />
<glyph unicode="&#xa3;" horiz-adv-x="1341" d="M-12 748v40h159q-29 53 -50 107.5t-21 120.5q0 111 39 200t108.5 150t161.5 95t201 34q106 0 199.5 -34t163 -95t108.5 -150.5t39 -199.5h-160q0 80 -21.5 157.5t-65.5 140t-109.5 101.5t-153.5 39t-153.5 -39t-109.5 -101.5t-65.5 -140t-21.5 -157.5q0 -63 20 -117.5 t49 -110.5h471v-40h-450q41 -78 70.5 -156t29.5 -164q0 -68 -20.5 -125t-61.5 -110q37 6 75 3t77 -6q66 -4 120 -25.5t104 -45t100 -43t110 -19.5q92 0 166.5 49.5t120.5 126.5l137 -83q-51 -86 -133 -128t-181 -42q-92 0 -164.5 27.5t-137 59t-126 59.5t-129.5 28 q-94 0 -166.5 -50.5t-119.5 -126.5l-138 84q27 41 63 88.5t66.5 97.5t52 103t21.5 109q0 78 -26.5 147.5t-65.5 141.5h-182z" />
<glyph unicode="&#xa4;" horiz-adv-x="1153" d="M76 737q0 96 34.5 184.5t100.5 157.5l-127 129l22 23l127 -129q70 66 159 101.5t186 35.5q96 0 184 -36t158 -101l127 129l22 -23l-127 -129q66 -70 100.5 -158t34.5 -184t-34.5 -184t-100.5 -158l127 -129l-22 -22l-127 129q-70 -66 -158 -101.5t-184 -35.5t-185.5 35.5 t-159.5 101.5l-127 -129l-22 22l127 129q-66 70 -100.5 158t-34.5 184zM195 737q0 -80 26.5 -162.5t76.5 -151.5t120.5 -112t159.5 -43q86 0 156.5 43t120.5 112t76.5 151.5t26.5 162.5t-26.5 163t-76.5 151.5t-120.5 111.5t-156.5 43q-88 0 -159 -43t-121 -111.5 t-76.5 -151.5t-26.5 -163z" />
<glyph unicode="&#xa5;" horiz-adv-x="1306" d="M0 1475h184l537 -816l539 816h47l-453 -687h188v-40h-213l-96 -150v-84h309v-41h-309v-473h-160v473h-307v41h307v84l-96 150h-211v40h187z" />
<glyph unicode="&#xa6;" horiz-adv-x="339" d="M111 -20v587h118v-587h-118zM111 907v588h118v-586z" />
<glyph unicode="&#xa7;" horiz-adv-x="1157" d="M76 -150h160q0 -63 22.5 -118.5t66.5 -97.5t107.5 -65.5t147.5 -23.5q82 0 146.5 23.5t107.5 65.5t65.5 97.5t22.5 118.5t-22.5 119t-65.5 96.5t-107.5 64.5t-146.5 24q-121 0 -214.5 27.5t-158 74.5t-98 109.5t-33.5 134.5q0 115 82 203t237 122q-156 33 -237.5 121 t-81.5 203q0 72 33.5 134.5t98 109.5t158 74.5t214.5 27.5q119 0 212 -26.5t157.5 -73.5t98 -110.5t33.5 -135.5h-159q0 63 -22.5 118.5t-65.5 96.5t-107.5 65.5t-146.5 24.5q-84 0 -147.5 -24.5t-107.5 -65.5t-66.5 -96.5t-22.5 -118.5t22.5 -118.5t66.5 -96.5t107.5 -64.5 t147.5 -23.5q119 0 212 -27.5t157.5 -75t98 -110t33.5 -133.5q0 -115 -81.5 -203t-237.5 -123q156 -33 237.5 -121t81.5 -203q0 -72 -33.5 -135t-98 -110t-158 -74t-211.5 -27q-121 0 -214.5 27t-158 74t-98 110.5t-33.5 134.5zM236 500q0 -63 22.5 -118.5t66.5 -97.5 t107.5 -65.5t147.5 -23.5q82 0 146.5 23.5t107.5 65.5t65.5 97.5t22.5 118.5t-22.5 118.5t-65.5 96.5t-107.5 65.5t-146.5 24.5q-84 0 -147.5 -24.5t-107.5 -65.5t-66.5 -96.5t-22.5 -118.5z" />
<glyph unicode="&#xa8;" horiz-adv-x="0" d="M305 1264q0 33 26.5 51t57.5 18q29 0 56.5 -18t27.5 -51t-27.5 -51.5t-56.5 -18.5q-31 0 -57.5 18.5t-26.5 51.5zM690 1264q0 33 26.5 51t57.5 18q29 0 56.5 -18t27.5 -51t-27.5 -51.5t-56.5 -18.5q-31 0 -57.5 18.5t-26.5 51.5z" />
<glyph unicode="&#xa9;" horiz-adv-x="1667" d="M76 737q0 156 59.5 294t162.5 241.5t240.5 163t295.5 59.5q156 0 294 -59.5t241.5 -163t162.5 -241.5t59 -294q0 -158 -59 -295t-162.5 -240.5t-242 -162.5t-293.5 -59q-158 0 -295.5 59t-240.5 162.5t-162.5 241t-59.5 294.5zM178 737q0 -135 51.5 -255t140.5 -209 t208.5 -140t255.5 -51q135 0 254.5 51t208.5 140t140.5 209t51.5 255t-51.5 255t-140.5 209t-208.5 140.5t-254.5 51.5t-255 -51.5t-209 -140.5t-140.5 -209t-51.5 -255zM373 737q0 106 30.5 201.5t91 167.5t146.5 113t197 41q154 0 260 -77t157 -202h-118q-39 104 -114 173 t-185 69q-86 0 -149.5 -45t-105.5 -115t-62.5 -157t-20.5 -169q0 -84 20.5 -170t62.5 -155.5t105.5 -114.5t149.5 -45q111 0 185.5 68.5t113.5 173.5h118q-51 -125 -157.5 -202t-259.5 -77q-111 0 -197 41t-146.5 112.5t-91 166t-30.5 202.5z" />
<glyph unicode="&#xaa;" horiz-adv-x="747" d="M76 1001q0 39 22.5 72t61.5 55.5t90 35t106 12.5q86 0 128 44t42 97t-36.5 100t-114.5 47q-76 0 -114 -47t-38 -100h-110q0 41 21.5 73.5t57 56t83 36t100.5 12.5q51 0 99 -12.5t84 -36t57.5 -56t21.5 -73.5v-469h-111v37q-29 -25 -84 -40.5t-112 -15.5 q-115 0 -184.5 47.5t-69.5 124.5zM186 1001q0 -53 42 -97t128 -44t128 44t42 97v193q-59 -49 -170 -49q-86 0 -128 -45t-42 -99z" />
<glyph unicode="&#xab;" horiz-adv-x="770" d="M92 465v147l303 242v-59l-243 -195l243 -192v-183zM375 465v147l303 242v-59l-244 -195l244 -192v-183z" />
<glyph unicode="&#xac;" horiz-adv-x="380" d="M0 659v50l111 77v689h159v-578l111 78v-49l-111 -78v-729q0 -29 10.5 -54.5t36.5 -25.5q16 0 28.5 7t21.5 13v-51q-31 -14 -78 -14q-98 0 -138 42t-40 120v579z" />
<glyph unicode="&#xad;" horiz-adv-x="624" d="M98 485v129h439v-129h-439z" />
<glyph unicode="&#xae;" horiz-adv-x="1140" d="M76 999q0 102 39 192.5t105.5 158t156.5 106.5t192 39t192.5 -39t158 -105.5t106.5 -157t39 -192.5t-39 -192t-105.5 -157.5t-156.5 -106.5t-193 -39q-102 0 -192 39t-157.5 105.5t-106.5 156.5t-39 192zM158 1001q0 -86 32.5 -161.5t88 -131t130 -88t160.5 -32.5 t162 32.5t131.5 88t88 131t32.5 161.5v-2q0 86 -32.5 162t-88 131.5t-130.5 88t-161 32.5t-161.5 -32.5t-131 -88t-88 -130.5t-32.5 -161zM369 698v592h213q96 0 148 -51t52 -125q0 -61 -36.5 -108.5t-106.5 -61.5q70 -16 106.5 -56t36.5 -91v-99h-75v99q0 59 -40 99 t-116 40h-107v-238h-75zM444 958h144q57 0 88 45t31 111q0 63 -31 108.5t-88 45.5h-144v-310z" />
<glyph unicode="&#xaf;" horiz-adv-x="0" d="M311 1214v62h541v-62h-541z" />
<glyph unicode="&#xb0;" horiz-adv-x="796" d="M76 1214q0 61 25.5 112.5t69.5 89.5t102.5 58.5t123.5 20.5q68 0 126.5 -20.5t102.5 -58.5t69.5 -89.5t25.5 -112.5t-25.5 -113t-69.5 -89t-102.5 -58.5t-126.5 -21.5q-66 0 -124 21.5t-102 58.5t-69.5 89t-25.5 113zM188 1214q0 -41 13.5 -82.5t40 -74.5t65.5 -53.5 t90 -20.5t91 20.5t67 53.5t40 74.5t13 82.5t-13 82t-40 75t-66.5 54.5t-91.5 20.5q-51 0 -90 -20.5t-65.5 -54.5t-40 -75t-13.5 -82z" />
<glyph unicode="&#xb1;" d="M96 102v107h1084v-107h-1084zM96 801v106h488v465h106v-465h490v-106h-488v-463h-106v463h-490z" />
<glyph unicode="&#xb2;" horiz-adv-x="739" d="M41 629q0 139 88 216t236 124q86 27 136 85t50 163q0 51 -12.5 96t-35 78.5t-57 53t-77.5 19.5t-77 -19.5t-57.5 -53t-35 -78.5t-11.5 -96h-112q0 57 19.5 108t57 89t92 59.5t124.5 21.5t125 -21.5t93 -59.5t57.5 -89t19.5 -108t-20.5 -100.5t-58.5 -75t-91.5 -57.5 t-120.5 -46q-94 -29 -152.5 -96.5t-64.5 -182.5h524v-30h-639z" />
<glyph unicode="&#xb3;" horiz-adv-x="788" d="M66 838h112q0 -82 54.5 -140.5t156.5 -58.5t156.5 58.5t54.5 140.5t-54 140t-157 58h-61v31h61q92 0 139 58.5t47 140.5t-47 140t-139 58t-139 -58t-47 -140h-113q0 96 78 162.5t221 66.5t221 -66.5t78 -162.5q0 -72 -46 -130.5t-132 -82.5q98 -23 150.5 -81t52.5 -134 q0 -96 -85 -163t-239 -67t-238.5 66.5t-84.5 163.5z" />
<glyph unicode="&#xb4;" horiz-adv-x="0" d="M375 1214l254 291h190l-403 -291h-41z" />
<glyph unicode="&#xb5;" horiz-adv-x="1114" d="M111 -475v1536h159v-694q0 -72 18.5 -134.5t55.5 -109.5t90 -75t123 -28t123 28t90 75t55.5 109.5t18.5 134.5v694h160v-1061h-160v178q-37 -84 -114 -138t-193 -56q-94 -2 -161 35.5t-106 97.5v-592h-159z" />
<glyph unicode="&#xb6;" horiz-adv-x="1136" d="M76 1036q0 90 34.5 170t94 139.5t139.5 94.5t170 35h623v-31h-111v-1919h-121v1919h-272v-1919h-119v1073q-90 0 -170 35t-139.5 94t-94 139t-34.5 170z" />
<glyph unicode="&#xb7;" horiz-adv-x="360" d="M80 737q0 41 29.5 71t70.5 30t71 -30t30 -71t-30 -70.5t-71 -29.5t-70.5 29.5t-29.5 70.5z" />
<glyph unicode="&#xb8;" horiz-adv-x="0" d="M340 -160l123 162h137l-113 -149q31 6 66 6q123 -2 195.5 -45.5t72.5 -102.5q0 -61 -74.5 -105t-201.5 -44q-84 0 -150 26l39 54q39 -43 111 -43q66 0 102.5 32.5t36.5 79.5t-37 80t-102 33q-39 0 -64.5 -11.5t-46.5 -31.5z" />
<glyph unicode="&#xb9;" horiz-adv-x="417" d="M92 1444v31h215v-846h-112v815h-103z" />
<glyph unicode="&#xba;" horiz-adv-x="761" d="M76 1161q0 70 20.5 131.5t59.5 106.5t96 70.5t129 25.5t129 -25.5t96 -70.5t59.5 -106.5t20.5 -131.5t-20.5 -130t-59.5 -105t-96 -71t-129 -26t-129 26t-96 71t-59.5 105.5t-20.5 129.5zM186 1161q0 -49 12.5 -102t36 -97t60.5 -73t86 -29t86 29t60.5 73t35.5 97t12 102 t-12 103.5t-35.5 98.5t-60.5 72.5t-86 28.5t-86 -28.5t-60.5 -72.5t-36 -98.5t-12.5 -103.5z" />
<glyph unicode="&#xbb;" horiz-adv-x="770" d="M92 225v60l244 194l-244 193v182l303 -242v-147zM375 225v60l243 194l-243 193v182l303 -242v-147z" />
<glyph unicode="&#xbc;" horiz-adv-x="1241" d="M76 0l870 1475h37l-872 -1475h-35zM92 1444v31h215v-846h-112v815h-103zM434 205v31l363 538h90l-365 -538h400v610h112v-610h115v-31h-115v-205h-112v205h-488z" />
<glyph unicode="&#xbd;" horiz-adv-x="1368" d="M76 0l870 1475h37l-872 -1475h-35zM92 1444v31h215v-846h-112v815h-103zM641 0q0 139 88 216t236 124q86 27 136 85t50 163q0 51 -12.5 96t-35 79t-57 53.5t-77.5 19.5t-77 -19.5t-57.5 -53.5t-35 -79t-11.5 -96h-112q0 57 19.5 108.5t57.5 89t92 59t124 21.5t125 -21.5 t93 -59t57.5 -89t19.5 -108.5t-20.5 -100.5t-58.5 -75t-92.5 -57t-119.5 -46.5q-94 -29 -153.5 -96.5t-63.5 -181.5h524v-31h-639z" />
<glyph unicode="&#xbe;" horiz-adv-x="1533" d="M66 838h112q0 -82 54.5 -140.5t156.5 -58.5t156.5 58.5t54.5 140.5t-54 140t-157 58h-61v31h61q92 0 139 58.5t47 140.5t-47 140t-139 58t-139 -58t-47 -140h-113q0 96 78 162.5t221 66.5t221 -66.5t78 -162.5q0 -72 -46 -130.5t-132 -82.5q98 -23 150.5 -81t52.5 -134 q0 -96 -85 -163t-239 -67t-238.5 66.5t-84.5 163.5zM369 0l870 1475h37l-873 -1475h-34zM737 205v31l365 538h88l-363 -538h398v610h112v-610h115v-31h-115v-205h-112v205h-488z" />
<glyph unicode="&#xbf;" horiz-adv-x="1110" d="M76 -141q0 72 29.5 136t88 112.5t142.5 77t192 32.5l37 426h41l60 -467q-94 0 -173 -16.5t-136.5 -53t-89 -97t-31.5 -150.5q0 -66 20 -123.5t61 -100.5t100.5 -68.5t137.5 -25.5t137.5 25.5t100.5 68.5t61 100.5t20 123.5h160q0 -74 -32.5 -139.5t-94 -113.5t-150.5 -77 t-202 -29q-115 0 -204 29t-150.5 77t-93 113.5t-31.5 139.5zM485 934q0 39 33 61.5t68 22.5t67.5 -22.5t32.5 -61.5t-32.5 -60.5t-67.5 -21.5t-68 21.5t-33 60.5z" />
<glyph unicode="&#xc0;" horiz-adv-x="1220" d="M0 0l530 1475h160l531 -1475h-168l-172 475h-666l-172 -475h-43zM227 516h641l-319 879zM240 1915h190l254 -293h-41z" />
<glyph unicode="&#xc1;" horiz-adv-x="1220" d="M0 0l530 1475h160l531 -1475h-168l-172 475h-666l-172 -475h-43zM227 516h641l-319 879zM522 1622l254 293h191l-404 -293h-41z" />
<glyph unicode="&#xc2;" horiz-adv-x="1220" d="M0 0l530 1475h160l531 -1475h-168l-172 475h-666l-172 -475h-43zM227 516h641l-319 879zM317 1622l238 293h113l235 -293h-125l-211 260l-211 -260h-39z" />
<glyph unicode="&#xc3;" horiz-adv-x="1220" d="M0 0l530 1475h160l531 -1475h-168l-172 475h-666l-172 -475h-43zM213 1679q27 59 75 87t101 28q51 0 99.5 -20.5t93.5 -45t86 -45t82 -20.5q47 0 88 29.5t63 83.5l107 -60q-27 -59 -75 -86.5t-102 -27.5q-53 0 -100 20t-92 45t-87 45.5t-81 20.5q-47 0 -88 -30t-64 -83z M227 516h641l-319 879z" />
<glyph unicode="&#xc4;" horiz-adv-x="1220" d="M0 0l530 1475h160l531 -1475h-168l-172 475h-666l-172 -475h-43zM227 516h641l-319 879zM336 1671q0 33 27.5 52.5t56.5 19.5t56.5 -19.5t27.5 -52.5t-27.5 -51t-56.5 -18t-56.5 18t-27.5 51zM721 1671q0 33 27.5 52.5t56.5 19.5t56.5 -19.5t27.5 -52.5t-27.5 -51 t-56.5 -18t-56.5 18t-27.5 51z" />
<glyph unicode="&#xc5;" horiz-adv-x="1220" d="M0 0l530 1475h160l531 -1475h-168l-172 475h-666l-172 -475h-43zM227 516h641l-319 879zM383 1729q0 88 65.5 144t161.5 56q98 0 163 -56t65 -144t-64.5 -143.5t-163.5 -55.5q-96 0 -161.5 55t-65.5 144zM467 1729q0 -29 8 -59t26.5 -55.5t45 -42t63.5 -16.5t63.5 16.5 t45 42t27 55.5t8.5 59q0 27 -8.5 57.5t-27 56t-45 42t-63.5 16.5t-63.5 -16.5t-45 -42t-26.5 -56.5t-8 -57z" />
<glyph unicode="&#xc6;" horiz-adv-x="1908" d="M0 0l727 1475h1069v-41h-797v-646h586v-40h-586v-707h818v-41h-977v535h-529l-266 -535h-45zM330 575h510v859h-86z" />
<glyph unicode="&#xc7;" horiz-adv-x="1452" d="M76 737q0 156 46 294t133 241.5t215 163t292 59.5q113 0 209 -28.5t173 -82t135 -127t97 -161.5h-147q-29 76 -72 142.5t-100.5 113.5t-131 74.5t-163.5 27.5q-139 0 -238.5 -64.5t-164 -168t-94 -231.5t-29.5 -253q0 -127 29.5 -254t94 -230t164 -168t238.5 -65 q90 0 163.5 28t131 75t100.5 112.5t72 143.5h147q-72 -166 -210 -272.5t-339 -122.5l-98 -131q27 6 66 6q123 0 195.5 -44t72.5 -104q0 -61 -76 -105t-203 -44q-86 0 -147 28l39 52q37 -43 108 -43q66 0 103 32.5t37 79.5t-37 80t-103 33q-70 0 -108 -43l-94 59l108 146 q-147 12 -262 75.5t-193.5 165t-118.5 232.5t-40 278z" />
<glyph unicode="&#xc8;" horiz-adv-x="1179" d="M111 0v1475h956v-41h-797v-646h586v-40h-586v-707h817v-41h-976zM328 1915h190l254 -293h-41z" />
<glyph unicode="&#xc9;" horiz-adv-x="1177" d="M111 0v1475h956v-41h-797v-646h631v-40h-631v-707h815v-41h-974zM328 1622l254 293h190l-403 -293h-41z" />
<glyph unicode="&#xca;" horiz-adv-x="1179" d="M111 0v1475h956v-41h-797v-646h586v-40h-586v-707h817v-41h-976zM258 1622l236 293h112l238 -293h-127l-209 260l-211 -260h-39z" />
<glyph unicode="&#xcb;" horiz-adv-x="1179" d="M111 0v1475h956v-41h-797v-646h586v-40h-586v-707h817v-41h-976zM274 1671q0 33 28 52.5t56 19.5q29 0 56.5 -19.5t27.5 -52.5t-27.5 -51t-56.5 -18t-56.5 18t-27.5 51zM659 1671q0 33 28 52.5t56 19.5q29 0 56.5 -19.5t27.5 -52.5t-27.5 -51t-56.5 -18t-56.5 18 t-27.5 51z" />
<glyph unicode="&#xcc;" horiz-adv-x="380" d="M-164 1915h191l254 -293h-41zM111 0v1475h159v-1475h-159z" />
<glyph unicode="&#xcd;" horiz-adv-x="380" d="M100 1622l254 293h191l-404 -293h-41zM111 0v1475h159v-1475h-159z" />
<glyph unicode="&#xce;" horiz-adv-x="380" d="M-102 1622l235 293h115l235 -293h-125l-211 260l-210 -260h-39zM111 0v1475h159v-1475h-159z" />
<glyph unicode="&#xcf;" horiz-adv-x="380" d="M-86 1671q0 33 27.5 52.5t56.5 19.5t56.5 -19.5t27.5 -52.5t-27.5 -51t-56.5 -18t-56.5 18t-27.5 51zM111 0v1475h159v-1475h-159zM299 1671q0 33 27.5 52.5t56.5 19.5t56.5 -19.5t27.5 -52.5t-27.5 -51t-56.5 -18t-56.5 18t-27.5 51z" />
<glyph unicode="&#xd0;" horiz-adv-x="1460" d="M0 748v40h111v687h630q158 0 279 -58.5t202 -158t121.5 -233.5t40.5 -288t-40.5 -288t-121.5 -233t-202 -157.5t-279 -58.5h-630v748h-111zM270 41h471q121 0 212 55.5t151.5 149.5t90.5 221t30 270t-30 270.5t-90.5 221.5t-151.5 149.5t-212 55.5h-471v-646h486v-40 h-486v-707z" />
<glyph unicode="&#xd1;" horiz-adv-x="1327" d="M111 0v1475h159l893 -1340v1340h54v-1475h-160l-893 1339v-1339h-53zM266 1679q27 59 75 87t101 28q51 0 99.5 -20.5t92.5 -45t86 -45t83 -20.5q47 0 88 29.5t63 83.5l107 -60q-27 -59 -75 -86.5t-101 -27.5t-100.5 20t-92.5 45t-87 45.5t-81 20.5q-47 0 -88 -30t-63 -83 z" />
<glyph unicode="&#xd2;" horiz-adv-x="1521" d="M76 737q0 156 46 294t133 241.5t215 163t292 59.5t291 -59.5t215 -163t133 -241.5t45 -294q0 -158 -45 -295t-133 -240.5t-215 -162.5t-291 -59t-292 59t-215 162.5t-133 241t-46 294.5zM236 737q0 -127 29.5 -254t94 -230t164 -168t238.5 -65q137 0 236.5 65t164 168 t94 230t29.5 254q0 125 -29.5 253t-94 231.5t-164 168t-236.5 64.5q-139 0 -238.5 -64.5t-164 -168t-94 -231.5t-29.5 -253zM360 1915h191l254 -293h-41z" />
<glyph unicode="&#xd3;" horiz-adv-x="1521" d="M76 737q0 156 46 294t133 241.5t215 163t292 59.5t291 -59.5t215 -163t133 -241.5t45 -294q0 -158 -45 -295t-133 -240.5t-215 -162.5t-291 -59t-292 59t-215 162.5t-133 241t-46 294.5zM236 737q0 -127 29.5 -254t94 -230t164 -168t238.5 -65q137 0 236.5 65t164 168 t94 230t29.5 254q0 125 -29.5 253t-94 231.5t-164 168t-236.5 64.5q-139 0 -238.5 -64.5t-164 -168t-94 -231.5t-29.5 -253zM698 1622l254 293h191l-404 -293h-41z" />
<glyph unicode="&#xd4;" horiz-adv-x="1521" d="M76 737q0 156 46 294t133 241.5t215 163t292 59.5t291 -59.5t215 -163t133 -241.5t45 -294q0 -158 -45 -295t-133 -240.5t-215 -162.5t-291 -59t-292 59t-215 162.5t-133 241t-46 294.5zM236 737q0 -127 29.5 -254t94 -230t164 -168t238.5 -65q137 0 236.5 65t164 168 t94 230t29.5 254q0 125 -29.5 253t-94 231.5t-164 168t-236.5 64.5q-139 0 -238.5 -64.5t-164 -168t-94 -231.5t-29.5 -253zM500 1622l235 293h113l237 -293h-127l-210 260l-209 -260h-39z" />
<glyph unicode="&#xd5;" horiz-adv-x="1521" d="M76 737q0 156 46 294t133 241.5t215 163t292 59.5t291 -59.5t215 -163t133 -241.5t45 -294q0 -158 -45 -295t-133 -240.5t-215 -162.5t-291 -59t-292 59t-215 162.5t-133 241t-46 294.5zM236 737q0 -127 29.5 -254t94 -230t164 -168t238.5 -65q137 0 236.5 65t164 168 t94 230t29.5 254q0 125 -29.5 253t-94 231.5t-164 168t-236.5 64.5q-139 0 -238.5 -64.5t-164 -168t-94 -231.5t-29.5 -253zM365 1679q27 59 74.5 87t101.5 28q51 0 98 -20.5t92 -45t87 -45t83 -20.5q47 0 88 29.5t64 83.5l106 -60q-29 -59 -77 -86.5t-101 -27.5 q-51 0 -99 20t-92.5 45t-86 45.5t-82.5 20.5q-47 0 -87 -30t-63 -83z" />
<glyph unicode="&#xd6;" horiz-adv-x="1521" d="M76 737q0 156 46 294t133 241.5t215 163t292 59.5t291 -59.5t215 -163t133 -241.5t45 -294q0 -158 -45 -295t-133 -240.5t-215 -162.5t-291 -59t-292 59t-215 162.5t-133 241t-46 294.5zM236 737q0 -127 29.5 -254t94 -230t164 -168t238.5 -65q137 0 236.5 65t164 168 t94 230t29.5 254q0 125 -29.5 253t-94 231.5t-164 168t-236.5 64.5q-139 0 -238.5 -64.5t-164 -168t-94 -231.5t-29.5 -253zM485 1671q0 33 27 52.5t57 19.5q29 0 55.5 -19.5t26.5 -52.5t-26.5 -51t-55.5 -18q-31 0 -57.5 18t-26.5 51zM870 1671q0 33 27 52.5t57 19.5 q29 0 55.5 -19.5t26.5 -52.5t-26.5 -51t-55.5 -18q-31 0 -57.5 18t-26.5 51z" />
<glyph unicode="&#xd7;" d="M96 270l467 467l-467 467l76 74l467 -465l465 465l76 -74l-467 -467l467 -467l-76 -73l-465 465l-467 -465z" />
<glyph unicode="&#xd8;" horiz-adv-x="1521" d="M76 737q0 156 46 294t133 241.5t215 163t292 59.5q154 0 274.5 -52t206.5 -145l160 175l31 -27l-162 -178q86 -102 130 -238.5t44 -292.5q0 -158 -45 -295t-133 -240.5t-215 -162.5t-291 -59q-154 0 -274.5 52t-208.5 144l-160 -174l-29 27l160 178q-86 102 -130 238.5 t-44 291.5zM236 737q0 -117 27.5 -227.5t82.5 -200.5l815 901q-63 104 -161.5 174t-237.5 70t-238.5 -64.5t-164 -168t-94 -231.5t-29.5 -253zM360 264q63 -104 162 -174t240 -70q137 0 236.5 65t164 168t94 230t29.5 254q0 117 -26.5 227.5t-83.5 200.5z" />
<glyph unicode="&#xd9;" horiz-adv-x="1376" d="M111 569v906h159v-906q0 -115 32 -214t91.5 -174t147.5 -118t200 -43q117 0 205 45.5t147.5 120t89 174t29.5 209.5v906h54v-906q0 -127 -36 -234.5t-107.5 -186t-179 -123.5t-251.5 -45q-137 0 -245.5 46t-183.5 125.5t-113.5 187t-38.5 230.5zM342 1915h190l254 -293 h-41z" />
<glyph unicode="&#xda;" horiz-adv-x="1376" d="M111 569v906h159v-906q0 -115 32 -214t91.5 -174t147.5 -118t200 -43q117 0 205 45.5t147.5 120t89 174t29.5 209.5v906h54v-906q0 -127 -36 -234.5t-107.5 -186t-179 -123.5t-251.5 -45q-137 0 -245.5 46t-183.5 125.5t-113.5 187t-38.5 230.5zM612 1622l252 293h191 l-402 -293h-41z" />
<glyph unicode="&#xdb;" horiz-adv-x="1376" d="M111 569v906h159v-906q0 -115 32 -214t91.5 -174t147.5 -118t200 -43q117 0 205 45.5t147.5 120t89 174t29.5 209.5v906h54v-906q0 -127 -36 -234.5t-107.5 -186t-179 -123.5t-251.5 -45q-137 0 -245.5 46t-183.5 125.5t-113.5 187t-38.5 230.5zM420 1622l237 293h113 l236 -293h-125l-211 260l-211 -260h-39z" />
<glyph unicode="&#xdc;" horiz-adv-x="1376" d="M111 569v906h159v-906q0 -115 32 -214t91.5 -174t147.5 -118t200 -43q117 0 205 45.5t147.5 120t89 174t29.5 209.5v906h54v-906q0 -127 -36 -234.5t-107.5 -186t-179 -123.5t-251.5 -45q-137 0 -245.5 46t-183.5 125.5t-113.5 187t-38.5 230.5zM436 1671q0 33 26.5 52.5 t57.5 19.5q29 0 55.5 -19.5t26.5 -52.5t-26.5 -51t-55.5 -18q-31 0 -57.5 18t-26.5 51zM821 1671q0 33 26.5 52.5t57.5 19.5q29 0 56.5 -19.5t27.5 -52.5t-27.5 -51t-56.5 -18q-31 0 -57.5 18t-26.5 51z" />
<glyph unicode="&#xdd;" horiz-adv-x="1306" d="M0 1475h184l537 -816l539 816h47l-574 -877v-598h-160v598zM473 1622l254 293h191l-404 -293h-41z" />
<glyph unicode="&#xde;" horiz-adv-x="1122" d="M111 0v1475h159v-236h291q117 0 207 -34t151.5 -92t94.5 -137t33 -169t-33 -169t-94.5 -137.5t-151.5 -92t-207 -33.5h-291v-375h-159zM270 416h291q80 0 140.5 30.5t101.5 84t62.5 125t21.5 151.5q0 82 -21.5 152.5t-62.5 124t-101.5 84t-140.5 30.5h-291v-782z" />
<glyph unicode="&#xdf;" horiz-adv-x="1163" d="M109 0v1108q0 84 30.5 155.5t87 123t136 80t178.5 28.5q90 0 168.5 -25.5t137 -72.5t92.5 -112.5t34 -145.5q0 -117 -71 -207t-195 -125q88 -16 159.5 -54t122.5 -91.5t78 -120t27 -140.5q0 -94 -34 -171.5t-100.5 -133t-168 -86t-236.5 -30.5q-59 0 -113.5 10t-101.5 26 v50q84 -45 201 -46q98 0 171.5 33t123 87.5t74 122t24.5 138.5q0 70 -24.5 138.5t-74 123t-123 87t-171.5 32.5v41q70 0 121 29t84.5 75t50 102t16.5 110q0 53 -16.5 109.5t-50 102.5t-85 74.5t-120.5 28.5q-70 0 -121 -28.5t-85 -74.5t-50.5 -102.5t-16.5 -109.5v-1139 h-159z" />
<glyph unicode="&#xe0;" horiz-adv-x="1110" d="M76 264q0 66 38 119t101.5 90t147 57.5t176.5 20.5q76 0 132 21.5t94 55.5t56.5 78t18.5 89t-17.5 89t-51.5 78.5t-84 56t-118 21.5t-119 -21.5t-84.5 -56t-51 -78.5t-17.5 -89h-160q0 66 35 119t95.5 89.5t138 57t163.5 20.5t164 -20.5t137.5 -57t94 -90t34.5 -118.5 v-795h-159v96q-23 -25 -59 -46t-82 -36.5t-99 -24.5t-108 -9q-92 0 -169 20t-131.5 58t-85 90.5t-30.5 115.5zM236 264q0 -45 18 -89t56 -78t95.5 -55.5t133.5 -21.5t132 21.5t94 55.5t56.5 78t18.5 91v350q-43 -47 -119 -76.5t-182 -29.5q-76 0 -133.5 -21.5t-95.5 -55.5 t-56 -79t-18 -90zM242 1505h190l252 -291h-41z" />
<glyph unicode="&#xe1;" horiz-adv-x="1110" d="M76 264q0 66 38 119t101.5 90t147 57.5t176.5 20.5q76 0 132 21.5t94 55.5t56.5 78t18.5 89t-17.5 89t-51.5 78.5t-84 56t-118 21.5t-119 -21.5t-84.5 -56t-51 -78.5t-17.5 -89h-160q0 66 35 119t95.5 89.5t138 57t163.5 20.5t164 -20.5t137.5 -57t94 -90t34.5 -118.5 v-795h-159v96q-23 -25 -59 -46t-82 -36.5t-99 -24.5t-108 -9q-92 0 -169 20t-131.5 58t-85 90.5t-30.5 115.5zM236 264q0 -45 18 -89t56 -78t95.5 -55.5t133.5 -21.5t132 21.5t94 55.5t56.5 78t18.5 91v350q-43 -47 -119 -76.5t-182 -29.5q-76 0 -133.5 -21.5t-95.5 -55.5 t-56 -79t-18 -90zM446 1214l252 291h191l-402 -291h-41z" />
<glyph unicode="&#xe2;" horiz-adv-x="1110" d="M76 264q0 66 38 119t101.5 90t147 57.5t176.5 20.5q76 0 132 21.5t94 55.5t56.5 78t18.5 89t-17.5 89t-51.5 78.5t-84 56t-118 21.5t-119 -21.5t-84.5 -56t-51 -78.5t-17.5 -89h-160q0 66 35 119t95.5 89.5t138 57t163.5 20.5t164 -20.5t137.5 -57t94 -90t34.5 -118.5 v-795h-159v96q-23 -25 -59 -46t-82 -36.5t-99 -24.5t-108 -9q-92 0 -169 20t-131.5 58t-85 90.5t-30.5 115.5zM236 264q0 -45 18 -89t56 -78t95.5 -55.5t133.5 -21.5t132 21.5t94 55.5t56.5 78t18.5 91v350q-43 -47 -119 -76.5t-182 -29.5q-76 0 -133.5 -21.5t-95.5 -55.5 t-56 -79t-18 -90zM272 1214l238 293h113l235 -293h-125l-211 261l-211 -261h-39z" />
<glyph unicode="&#xe3;" horiz-adv-x="1110" d="M76 264q0 66 38 119t101.5 90t147 57.5t176.5 20.5q76 0 132 21.5t94 55.5t56.5 78t18.5 89t-17.5 89t-51.5 78.5t-84 56t-118 21.5t-119 -21.5t-84.5 -56t-51 -78.5t-17.5 -89h-160q0 66 35 119t95.5 89.5t138 57t163.5 20.5t164 -20.5t137.5 -57t94 -90t34.5 -118.5 v-795h-159v96q-23 -25 -59 -46t-82 -36.5t-99 -24.5t-108 -9q-92 0 -169 20t-131.5 58t-85 90.5t-30.5 115.5zM158 1272q27 59 75 86.5t101 27.5q51 0 99 -20t93 -45t86 -45.5t82 -20.5q47 0 88 30t64 83l106 -59q-27 -59 -75 -87t-101 -28t-100 20.5t-92 45t-87 45 t-81 20.5q-47 0 -88 -30.5t-64 -84.5zM236 264q0 -45 18 -89t56 -78t95.5 -55.5t133.5 -21.5t132 21.5t94 55.5t56.5 78t18.5 91v350q-43 -47 -119 -76.5t-182 -29.5q-76 0 -133.5 -21.5t-95.5 -55.5t-56 -79t-18 -90z" />
<glyph unicode="&#xe4;" horiz-adv-x="1110" d="M76 264q0 66 38 119t101.5 90t147 57.5t176.5 20.5q76 0 132 21.5t94 55.5t56.5 78t18.5 89t-17.5 89t-51.5 78.5t-84 56t-118 21.5t-119 -21.5t-84.5 -56t-51 -78.5t-17.5 -89h-160q0 66 35 119t95.5 89.5t138 57t163.5 20.5t164 -20.5t137.5 -57t94 -90t34.5 -118.5 v-795h-159v96q-23 -25 -59 -46t-82 -36.5t-99 -24.5t-108 -9q-92 0 -169 20t-131.5 58t-85 90.5t-30.5 115.5zM236 264q0 -45 18 -89t56 -78t95.5 -55.5t133.5 -21.5t132 21.5t94 55.5t56.5 78t18.5 91v350q-43 -47 -119 -76.5t-182 -29.5q-76 0 -133.5 -21.5t-95.5 -55.5 t-56 -79t-18 -90zM295 1264q0 33 26.5 51t57.5 18q29 0 55.5 -18t26.5 -51t-26.5 -51.5t-55.5 -18.5q-31 0 -57.5 18.5t-26.5 51.5zM649 1264q0 33 26.5 51t57.5 18q29 0 55.5 -18t26.5 -51t-26.5 -51.5t-55.5 -18.5q-31 0 -57.5 18.5t-26.5 51.5z" />
<glyph unicode="&#xe5;" horiz-adv-x="1110" d="M76 264q0 66 38 119t101.5 90t147 57.5t176.5 20.5q76 0 132 21.5t94 55.5t56.5 78t18.5 89t-17.5 89t-51.5 78.5t-84 56t-118 21.5t-119 -21.5t-84.5 -56t-51 -78.5t-17.5 -89h-160q0 66 35 119t95.5 89.5t138 57t163.5 20.5t164 -20.5t137.5 -57t94 -90t34.5 -118.5 v-795h-159v96q-23 -25 -59 -46t-82 -36.5t-99 -24.5t-108 -9q-92 0 -169 20t-131.5 58t-85 90.5t-30.5 115.5zM236 264q0 -45 18 -89t56 -78t95.5 -55.5t133.5 -21.5t132 21.5t94 55.5t56.5 78t18.5 89v352q-43 -47 -119 -76.5t-182 -29.5q-76 0 -133.5 -21.5t-95.5 -55.5 t-56 -79t-18 -90zM342 1393q0 88 64.5 144t162.5 56q96 0 162 -56t66 -144t-65.5 -143.5t-162.5 -55.5q-98 0 -162.5 55.5t-64.5 143.5zM426 1393q0 -29 8 -58.5t26.5 -55.5t45 -42t63.5 -16t63.5 16t45 42t27 55.5t8.5 58.5q0 27 -8.5 57.5t-27 57t-45 43t-63.5 16.5 t-63.5 -16.5t-45 -43t-26.5 -57.5t-8 -57z" />
<glyph unicode="&#xe6;" horiz-adv-x="1927" d="M76 266q0 59 31.5 111.5t91 90.5t145.5 60.5t195 22.5q72 0 128 19.5t94 53t58.5 77.5t20.5 96q0 100 -70 171.5t-201 71.5q-66 0 -116 -19.5t-84.5 -52t-53 -77.5t-18.5 -94h-160q0 59 30 111.5t85 90t135 60t182 22.5q66 0 130.5 -13t116.5 -42t87 -73t45 -107 q57 104 156.5 169.5t241.5 65.5q119 0 213 -43t158.5 -117.5t99 -175t34.5 -215.5h-852q0 -84 21.5 -174t64.5 -164.5t107.5 -123t153.5 -48.5q113 0 188.5 73t116.5 181h151q-57 -133 -174 -213.5t-282 -80.5q-141 0 -240.5 65.5t-157.5 169.5q-10 -66 -50 -111 t-98.5 -72.5t-127 -39.5t-133.5 -12q-109 0 -195 22.5t-145.5 61t-91 91t-31.5 111.5zM236 266q0 -51 20 -95t58 -78t94.5 -53.5t130.5 -19.5q90 0 152.5 25t99 70t50 108t5.5 139q-2 14 -3 34t-2 39.5t-2 36.5t-1 28q-2 41 1 74.5t5 46.5q-43 -47 -121 -79t-184 -32 q-74 0 -130.5 -19.5t-94.5 -52t-58 -78t-20 -94.5zM999 571h691q-2 88 -26 172t-67 151t-106.5 106.5t-144.5 39.5q-84 0 -146.5 -39.5t-106.5 -106.5t-68 -151t-26 -172z" />
<glyph unicode="&#xe7;" horiz-adv-x="1114" d="M76 530q0 115 34.5 215.5t99 175t159 117.5t213.5 43q166 0 282.5 -80.5t173.5 -214.5h-153q-39 109 -115 181.5t-188 72.5q-88 0 -152.5 -48t-107.5 -122.5t-64.5 -165t-21.5 -174.5t21.5 -174t64.5 -164.5t107.5 -123t152.5 -48.5q113 0 188.5 73t114.5 181h153 q-53 -123 -153.5 -201.5t-247.5 -88.5l-98 -131q27 6 63 6q125 0 197.5 -44t72.5 -104q0 -61 -74.5 -105t-201.5 -44q-86 0 -150 26l39 54q37 -43 111 -43q66 0 101.5 32.5t35.5 79.5t-35.5 80t-101.5 33q-39 0 -64.5 -11.5t-46.5 -31.5l-94 59l111 146q-102 12 -181 59 t-133.5 121t-83 167t-28.5 197z" />
<glyph unicode="&#xe8;" horiz-adv-x="1163" d="M76 530q0 115 34.5 215.5t99 175t159 117.5t213.5 43t213 -43t158.5 -117.5t99 -175t34.5 -215.5h-851q0 -84 21.5 -174t64.5 -164.5t107.5 -123t152.5 -48.5q113 0 188.5 73t114.5 181h153q-57 -133 -173.5 -213.5t-282.5 -80.5q-119 0 -213.5 43t-159 117.5t-99 175 t-34.5 214.5zM236 571h690q-2 88 -25.5 172t-66.5 151t-106.5 106.5t-145.5 39.5q-84 0 -146.5 -39.5t-106.5 -106.5t-67.5 -151t-25.5 -172zM246 1505h190l254 -291h-41z" />
<glyph unicode="&#xe9;" horiz-adv-x="1163" d="M76 530q0 115 34.5 215.5t99 175t159 117.5t213.5 43t213 -43t158.5 -117.5t99 -175t34.5 -215.5h-851q0 -84 21.5 -174t64.5 -164.5t107.5 -123t152.5 -48.5q113 0 188.5 73t114.5 181h153q-57 -133 -173.5 -213.5t-282.5 -80.5q-119 0 -213.5 43t-159 117.5t-99 175 t-34.5 214.5zM236 571h690q-2 88 -25.5 172t-66.5 151t-106.5 106.5t-145.5 39.5q-84 0 -146.5 -39.5t-106.5 -106.5t-67.5 -151t-25.5 -172zM467 1214l254 291h190l-403 -291h-41z" />
<glyph unicode="&#xea;" horiz-adv-x="1163" d="M76 530q0 115 34.5 215.5t99 175t159 117.5t213.5 43t213 -43t158.5 -117.5t99 -175t34.5 -215.5h-851q0 -84 21.5 -174t64.5 -164.5t107.5 -123t152.5 -48.5q113 0 188.5 73t114.5 181h153q-57 -133 -173.5 -213.5t-282.5 -80.5q-119 0 -213.5 43t-159 117.5t-99 175 t-34.5 214.5zM236 571h690q-2 88 -25.5 172t-66.5 151t-106.5 106.5t-145.5 39.5q-84 0 -146.5 -39.5t-106.5 -106.5t-67.5 -151t-25.5 -172zM303 1214l238 293h112l236 -293h-125l-211 261l-211 -261h-39z" />
<glyph unicode="&#xeb;" horiz-adv-x="1163" d="M76 530q0 115 34.5 215.5t99 175t159 117.5t213.5 43t213 -43t158.5 -117.5t99 -175t34.5 -215.5h-851q0 -84 21.5 -174t64.5 -164.5t107.5 -123t152.5 -48.5q113 0 188.5 73t114.5 181h153q-57 -133 -173.5 -213.5t-282.5 -80.5q-119 0 -213.5 43t-159 117.5t-99 175 t-34.5 214.5zM236 571h690q-2 88 -25.5 172t-66.5 151t-106.5 106.5t-145.5 39.5q-84 0 -146.5 -39.5t-106.5 -106.5t-67.5 -151t-25.5 -172zM305 1264q0 33 26.5 51t57.5 18q29 0 56.5 -18t27.5 -51t-27.5 -51.5t-56.5 -18.5q-31 0 -57.5 18.5t-26.5 51.5zM690 1264 q0 33 26.5 51t57.5 18q29 0 56.5 -18t27.5 -51t-27.5 -51.5t-56.5 -18.5q-31 0 -57.5 18.5t-26.5 51.5z" />
<glyph unicode="&#xec;" horiz-adv-x="380" d="M-150 1505h191l254 -291h-41zM111 156v905h159v-942q0 -29 10.5 -54.5t36.5 -25.5q16 0 28.5 7t21.5 13v-51q-31 -14 -78 -14q-98 0 -138 42t-40 120z" />
<glyph unicode="&#xed;" horiz-adv-x="380" d="M86 1214l254 291h190l-403 -291h-41zM111 156v905h159v-942q0 -29 10.5 -54.5t36.5 -25.5q16 0 28.5 7t21.5 13v-51q-31 -14 -78 -14q-98 0 -138 42t-40 120z" />
<glyph unicode="&#xee;" horiz-adv-x="380" d="M-102 1214l235 293h115l235 -293h-125l-211 261l-210 -261h-39zM111 156v905h159v-942q0 -29 10.5 -54.5t36.5 -25.5q16 0 28.5 7t21.5 13v-51q-31 -14 -78 -14q-98 0 -138 42t-40 120z" />
<glyph unicode="&#xef;" horiz-adv-x="380" d="M-86 1264q0 33 27.5 51t56.5 18t56.5 -18t27.5 -51t-27.5 -51.5t-56.5 -18.5t-56.5 18.5t-27.5 51.5zM111 156v905h159v-942q0 -29 10.5 -54.5t36.5 -25.5q16 0 28.5 7t21.5 13v-51q-31 -14 -78 -14q-98 0 -138 42t-40 120zM299 1264q0 33 27.5 51t56.5 18t56.5 -18 t27.5 -51t-27.5 -51.5t-56.5 -18.5t-56.5 18.5t-27.5 51.5z" />
<glyph unicode="&#xf0;" horiz-adv-x="1193" d="M76 516q0 113 35.5 211t103.5 170t165 114t218 42q78 0 149.5 -31t122.5 -92q-43 102 -108.5 189t-147.5 159l-221 -129l-22 35l217 125q-41 35 -81 67.5t-85 61.5l88 57q45 -29 87 -59.5t83 -65.5l217 125l23 -35l-207 -119q188 -166 297.5 -373.5t107.5 -451.5 q0 -115 -35.5 -212t-103.5 -170t-164 -113.5t-217 -40.5t-218 40.5t-165 113.5t-103.5 170t-35.5 212zM236 516q0 -100 22.5 -190t68.5 -158t113.5 -108t157.5 -40t157.5 40t112.5 108t67.5 158t22.5 190q0 98 -22.5 188.5t-68.5 159t-113.5 108.5t-155.5 40 q-90 0 -157.5 -40t-113.5 -108.5t-68.5 -159t-22.5 -188.5z" />
<glyph unicode="&#xf1;" horiz-adv-x="1114" d="M111 0v1061h159v-178q43 88 129 143t211 55q92 0 166 -30.5t124 -83t77 -123t27 -150.5v-694h-160v694q0 72 -18.5 134.5t-55.5 109.5t-90 74.5t-123 27.5t-123 -27.5t-90 -74.5t-55.5 -109.5t-18.5 -134.5v-694h-159zM160 1272q27 59 75 86.5t101 27.5q51 0 99 -20 t93 -45t86 -45.5t82 -20.5q47 0 88 30t64 83l106 -59q-27 -59 -75 -87t-101 -28t-100 20.5t-92 45t-87 45t-81 20.5q-47 0 -88 -30.5t-64 -84.5z" />
<glyph unicode="&#xf2;" horiz-adv-x="1163" d="M76 530q0 115 34.5 215.5t99 175t159 117.5t213.5 43t213 -43t158.5 -117.5t99 -175t34.5 -215.5t-34.5 -215t-99 -174.5t-159 -117.5t-212.5 -43q-119 0 -213.5 43t-159 117.5t-99 175t-34.5 214.5zM231 1505h191l254 -291h-41zM236 530q0 -84 21.5 -174t64.5 -164.5 t107.5 -123t152.5 -48.5t152.5 48.5t107.5 123t64.5 164.5t21.5 174t-21.5 174.5t-64.5 165t-107.5 122.5t-152.5 48t-152.5 -48t-107.5 -122.5t-64.5 -165t-21.5 -174.5z" />
<glyph unicode="&#xf3;" horiz-adv-x="1163" d="M76 530q0 115 34.5 215.5t99 175t159 117.5t213.5 43t213 -43t158.5 -117.5t99 -175t34.5 -215.5t-34.5 -215t-99 -174.5t-159 -117.5t-212.5 -43q-119 0 -213.5 43t-159 117.5t-99 175t-34.5 214.5zM236 530q0 -84 21.5 -174t64.5 -164.5t107.5 -123t152.5 -48.5 t152.5 48.5t107.5 123t64.5 164.5t21.5 174t-21.5 174.5t-64.5 165t-107.5 122.5t-152.5 48t-152.5 -48t-107.5 -122.5t-64.5 -165t-21.5 -174.5zM471 1214l254 291h190l-403 -291h-41z" />
<glyph unicode="&#xf4;" horiz-adv-x="1163" d="M76 530q0 115 34.5 215.5t99 175t159 117.5t213.5 43t213 -43t158.5 -117.5t99 -175t34.5 -215.5t-34.5 -215t-99 -174.5t-159 -117.5t-212.5 -43q-119 0 -213.5 43t-159 117.5t-99 175t-34.5 214.5zM236 530q0 -84 21.5 -174t64.5 -164.5t107.5 -123t152.5 -48.5 t152.5 48.5t107.5 123t64.5 164.5t21.5 174t-21.5 174.5t-64.5 165t-107.5 122.5t-152.5 48t-152.5 -48t-107.5 -122.5t-64.5 -165t-21.5 -174.5zM299 1214l236 293h112l238 -293h-127l-209 261l-211 -261h-39z" />
<glyph unicode="&#xf5;" horiz-adv-x="1163" d="M76 530q0 115 34.5 215.5t99 175t159 117.5t213.5 43t213 -43t158.5 -117.5t99 -175t34.5 -215.5t-34.5 -215t-99 -174.5t-159 -117.5t-212.5 -43q-119 0 -213.5 43t-159 117.5t-99 175t-34.5 214.5zM184 1272q27 59 75 86.5t101 27.5q51 0 98.5 -20t92.5 -45t87 -45.5 t83 -20.5q47 0 88 30t63 83l107 -59q-29 -59 -76 -87t-100 -28t-100.5 20.5t-92.5 45t-87 45t-81 20.5q-47 0 -88 -30.5t-63 -84.5zM236 530q0 -84 21.5 -174t64.5 -164.5t107.5 -123t152.5 -48.5t152.5 48.5t107.5 123t64.5 164.5t21.5 174t-21.5 174.5t-64.5 165 t-107.5 122.5t-152.5 48t-152.5 -48t-107.5 -122.5t-64.5 -165t-21.5 -174.5z" />
<glyph unicode="&#xf6;" horiz-adv-x="1163" d="M76 530q0 115 34.5 215.5t99 175t159 117.5t213.5 43t213 -43t158.5 -117.5t99 -175t34.5 -215.5t-34.5 -215t-99 -174.5t-159 -117.5t-212.5 -43q-119 0 -213.5 43t-159 117.5t-99 175t-34.5 214.5zM236 530q0 -84 21.5 -174t64.5 -164.5t107.5 -123t152.5 -48.5 t152.5 48.5t107.5 123t64.5 164.5t21.5 174t-21.5 174.5t-64.5 165t-107.5 122.5t-152.5 48t-152.5 -48t-107.5 -122.5t-64.5 -165t-21.5 -174.5zM305 1264q0 33 26.5 51t57.5 18q29 0 56.5 -18t27.5 -51t-27.5 -51.5t-56.5 -18.5q-31 0 -57.5 18.5t-26.5 51.5zM690 1264 q0 33 26.5 51t57.5 18q29 0 56.5 -18t27.5 -51t-27.5 -51.5t-56.5 -18.5q-31 0 -57.5 18.5t-26.5 51.5z" />
<glyph unicode="&#xf7;" d="M96 684v107h1084v-107h-1084zM557 334q0 35 23.5 57.5t56.5 22.5q35 0 58.5 -22.5t23.5 -57.5q0 -33 -23.5 -56.5t-56.5 -23.5q-35 0 -58.5 23.5t-23.5 56.5zM557 1139q0 35 23.5 58.5t56.5 23.5q35 0 58.5 -23.5t23.5 -56.5q0 -35 -23.5 -58.5t-56.5 -23.5 q-35 0 -58.5 23.5t-23.5 56.5z" />
<glyph unicode="&#xf8;" horiz-adv-x="1163" d="M76 530q0 115 34.5 215.5t99 175t159 117.5t213.5 43q111 0 195.5 -36.5t148.5 -102.5l110 121l31 -27l-111 -121q63 -76 97 -174t34 -211q0 -115 -34.5 -215t-99 -174.5t-159 -117.5t-212.5 -43q-111 0 -197 36.5t-149 102.5l-109 -121l-31 27l109 120q-63 76 -96 174.5 t-33 210.5zM236 530q0 -74 17 -142.5t52 -125.5l543 588q-43 80 -108.5 135t-157.5 55q-88 0 -152.5 -48t-107.5 -122.5t-64.5 -165t-21.5 -174.5zM315 211q41 -80 107.5 -135.5t159.5 -55.5q88 0 152.5 48.5t107.5 123t64.5 164.5t21.5 174q0 152 -70 269z" />
<glyph unicode="&#xf9;" horiz-adv-x="1114" d="M111 367v694h159v-694q0 -72 18.5 -134.5t55.5 -109.5t90 -75t123 -28t123 28t90 75t55.5 109.5t18.5 134.5v694h160v-1061h-160v178q-43 -88 -129 -143t-211 -55q-92 0 -166 30.5t-124 82.5t-76.5 123t-26.5 151zM238 1505h190l254 -291h-41z" />
<glyph unicode="&#xfa;" horiz-adv-x="1114" d="M111 367v694h159v-694q0 -72 18.5 -134.5t55.5 -109.5t90 -75t123 -28t123 28t90 75t55.5 109.5t18.5 134.5v694h160v-1061h-160v178q-43 -88 -129 -143t-211 -55q-92 0 -166 30.5t-124 82.5t-76.5 123t-26.5 151zM432 1214l254 291h191l-404 -291h-41z" />
<glyph unicode="&#xfb;" horiz-adv-x="1114" d="M111 367v694h159v-694q0 -72 18.5 -134.5t55.5 -109.5t90 -75t123 -28t123 28t90 75t55.5 109.5t18.5 134.5v694h160v-1061h-160v178q-43 -88 -129 -143t-211 -55q-92 0 -166 30.5t-124 82.5t-76.5 123t-26.5 151zM279 1214l237 293h113l237 -293h-127l-211 261 l-209 -261h-40z" />
<glyph unicode="&#xfc;" horiz-adv-x="1114" d="M111 367v694h159v-694q0 -72 18.5 -134.5t55.5 -109.5t90 -75t123 -28t123 28t90 75t55.5 109.5t18.5 134.5v694h160v-1061h-160v178q-43 -88 -129 -143t-211 -55q-92 0 -166 30.5t-124 82.5t-76.5 123t-26.5 151zM281 1264q0 33 27.5 51t56.5 18t56.5 -18t27.5 -51 t-28 -51.5t-56 -18.5q-29 0 -56.5 18.5t-27.5 51.5zM666 1264q0 33 27.5 51t56.5 18t56.5 -18t27.5 -51t-28 -51.5t-56 -18.5q-29 0 -56.5 18.5t-27.5 51.5z" />
<glyph unicode="&#xfd;" horiz-adv-x="1114" d="M23 -180h159q35 -121 115 -198t197 -77q86 0 150.5 39t109.5 103.5t67.5 150.5t22.5 180v160q-43 -88 -129 -143t-211 -55q-92 0 -166 30.5t-124 82.5t-76.5 123t-26.5 151v694h159v-694q0 -72 18.5 -134.5t55.5 -109.5t90 -75t123 -28t123 28t90 75t55.5 109.5 t18.5 134.5v694h160v-1043q0 -102 -34 -195t-99.5 -164t-161 -113t-215.5 -42q-186 0 -309.5 88.5t-161.5 227.5zM432 1214l254 291h191l-404 -291h-41z" />
<glyph unicode="&#xfe;" horiz-adv-x="1155" d="M111 -475v1950h159v-560q51 76 130 121t184 45q119 0 212 -43t155.5 -117.5t95 -175t32.5 -215.5t-32.5 -215t-95 -174.5t-156 -117.5t-211.5 -43q-104 0 -183 45t-131 120v-620h-159zM270 272q41 -109 116 -180.5t187 -71.5q88 0 153 48.5t108 123t64.5 164.5t21.5 174 t-21.5 174.5t-64.5 165t-107.5 122.5t-153.5 48q-113 0 -187.5 -71.5t-115.5 -180.5v-516z" />
<glyph unicode="&#xff;" horiz-adv-x="1114" d="M23 -180h159q35 -121 115 -198t197 -77q86 0 150.5 39t109.5 103.5t67.5 150.5t22.5 180v160q-43 -88 -129 -143t-211 -55q-92 0 -166 30.5t-124 82.5t-76.5 123t-26.5 151v694h159v-694q0 -72 18.5 -134.5t55.5 -109.5t90 -75t123 -28t123 28t90 75t55.5 109.5 t18.5 134.5v694h160v-1043q0 -102 -34 -195t-99.5 -164t-161 -113t-215.5 -42q-186 0 -309.5 88.5t-161.5 227.5zM281 1264q0 33 27.5 51t56.5 18t56.5 -18t27.5 -51t-28 -51.5t-56 -18.5q-29 0 -56.5 18.5t-27.5 51.5zM666 1264q0 33 27.5 51t56.5 18t56.5 -18t27.5 -51 t-28 -51.5t-56 -18.5q-29 0 -56.5 18.5t-27.5 51.5z" />
<glyph unicode="&#x152;" horiz-adv-x="2306" d="M76 737q0 156 46 294t133 241.5t215 163t292 59.5q160 0 277.5 -64.5t189.5 -175.5v220h956v-41h-796v-646h585v-40h-585v-707h817v-41h-977v219q-72 -111 -189.5 -175t-277.5 -64q-164 0 -292 59t-215 162.5t-133 241t-46 294.5zM236 737q0 -127 29.5 -254t94 -230 t164 -168t238.5 -65q90 0 164.5 29t133 78t101.5 113.5t68 138.5v717q-25 74 -68 138t-101.5 113.5t-133 78t-164.5 28.5q-139 0 -238.5 -64.5t-164 -168t-94 -231.5t-29.5 -253z" />
<glyph unicode="&#x153;" horiz-adv-x="2013" d="M76 530q0 115 34.5 215.5t99 175t159 117.5t213.5 43q80 0 146.5 -22.5t120.5 -62.5t93 -93t64 -117q51 127 158.5 211t267.5 84q119 0 213 -43t158.5 -117.5t99 -175t34.5 -215.5h-850q0 -84 20.5 -174t63.5 -164.5t107.5 -123t153.5 -48.5q115 0 190.5 73t114.5 181 h151q-55 -133 -172 -213.5t-284 -80.5q-80 0 -146.5 22.5t-121 61t-93.5 93t-63 117.5q-51 -127 -159 -210.5t-267 -83.5q-119 0 -213.5 43t-159 117.5t-99 175t-34.5 214.5zM236 530q0 -84 21.5 -174t64.5 -164.5t107.5 -123t152.5 -48.5t152.5 48.5t107.5 123t64.5 164.5 t21.5 174t-21.5 174.5t-64.5 165t-107.5 122.5t-152.5 48t-152.5 -48t-107.5 -122.5t-64.5 -165t-21.5 -174.5zM1087 571h691q-4 88 -26.5 172t-67 151t-108 106.5t-144.5 39.5q-84 0 -146.5 -39.5t-105.5 -106.5t-66.5 -151t-26.5 -172z" />
<glyph unicode="&#x178;" horiz-adv-x="1306" d="M0 1475h184l537 -816l539 816h47l-574 -877v-598h-160v598zM403 1671q0 33 27 52.5t57 19.5q29 0 56.5 -19.5t27.5 -52.5t-27.5 -51t-56.5 -18q-31 0 -57.5 18t-26.5 51zM788 1671q0 33 27 52.5t57 19.5q29 0 56.5 -19.5t27.5 -52.5t-27.5 -51t-56.5 -18q-31 0 -57.5 18 t-26.5 51z" />
<glyph unicode="&#x2c6;" horiz-adv-x="0" d="M291 1214l235 293h115l236 -293h-125l-211 261l-211 -261h-39z" />
<glyph unicode="&#x2dc;" horiz-adv-x="0" d="M184 1272q27 59 75 86.5t101 27.5q51 0 98.5 -20t92.5 -45t87 -45.5t83 -20.5q47 0 88 30t63 83l107 -59q-29 -59 -76 -87t-100 -28t-100.5 20.5t-92.5 45t-87 45t-81 20.5q-47 0 -88 -30.5t-63 -84.5z" />
<glyph unicode="&#x2000;" horiz-adv-x="964" />
<glyph unicode="&#x2001;" horiz-adv-x="1929" />
<glyph unicode="&#x2002;" horiz-adv-x="964" />
<glyph unicode="&#x2003;" horiz-adv-x="1929" />
<glyph unicode="&#x2004;" horiz-adv-x="643" />
<glyph unicode="&#x2005;" horiz-adv-x="482" />
<glyph unicode="&#x2006;" horiz-adv-x="321" />
<glyph unicode="&#x2007;" horiz-adv-x="321" />
<glyph unicode="&#x2008;" horiz-adv-x="241" />
<glyph unicode="&#x2009;" horiz-adv-x="385" />
<glyph unicode="&#x200a;" horiz-adv-x="107" />
<glyph unicode="&#x2010;" horiz-adv-x="624" d="M98 485v129h439v-129h-439z" />
<glyph unicode="&#x2011;" horiz-adv-x="624" d="M98 485v129h439v-129h-439z" />
<glyph unicode="&#x2012;" horiz-adv-x="624" d="M98 485v129h439v-129h-439z" />
<glyph unicode="&#x2013;" horiz-adv-x="1216" d="M92 506v108h1032v-108h-1032z" />
<glyph unicode="&#x2014;" horiz-adv-x="2248" d="M92 506v108h2065v-108h-2065z" />
<glyph unicode="&#x2018;" horiz-adv-x="456" d="M83.5 956q-20.5 39 0.5 76q61 115 115 211q23 41 45 82t41.5 75t34 59.5t22.5 35.5l39 -14q-2 -12 -7 -41t-13.5 -68t-17.5 -85t-19 -91q-23 -106 -52 -233q-8 -41 -48 -57.5t-81 -2.5q-39 14 -59.5 53z" />
<glyph unicode="&#x2019;" horiz-adv-x="456" d="M84 913q0 12 6 41t13.5 67t17.5 84t20 91q23 106 52 236q8 41 48 57t81 2q39 -14 59 -53t0 -76q-61 -117 -115 -213q-23 -41 -45 -82t-41.5 -75t-35 -59.5t-21.5 -33.5z" />
<glyph unicode="&#x201a;" horiz-adv-x="352" d="M-29 -412q0 12 6.5 41t13.5 68t17 84t21 90q23 106 51 235q10 41 50 58.5t79 3.5q18 -8 33.5 -22.5t24.5 -32t10 -37t-9 -37.5q-61 -117 -114 -213q-23 -41 -45.5 -82t-42 -76t-35 -59.5t-21.5 -34.5z" />
<glyph unicode="&#x201c;" horiz-adv-x="761" d="M83.5 956q-20.5 39 0.5 76q61 115 115 211q23 41 45 82t41.5 75t34 59.5t22.5 35.5l39 -14q-2 -12 -7 -41t-13.5 -68t-17.5 -85t-19 -91q-23 -106 -52 -233q-8 -41 -48 -57.5t-81 -2.5q-39 14 -59.5 53zM387 1032q61 115 115 211q23 41 45 82t41.5 75t35 59.5t23.5 35.5 l39 -14q-2 -12 -7 -41t-13.5 -68t-17.5 -85t-19 -91q-23 -106 -54 -233q-10 -41 -49 -57.5t-77 -2.5q-41 14 -61.5 53t-0.5 76z" />
<glyph unicode="&#x201d;" horiz-adv-x="761" d="M84 913q0 12 6 41t13.5 67t17.5 84t20 91q23 106 52 236q8 41 48 57t81 2q39 -14 59 -53t0 -76q-61 -117 -115 -213q-23 -41 -45 -82t-41.5 -75t-35 -59.5t-21.5 -33.5zM387 913q0 12 6 41t13.5 67t17.5 84t20 91q23 106 54 236q10 41 49 57t78 2q41 -14 61 -53t0 -76 q-61 -117 -115 -213q-23 -41 -45 -82t-41.5 -75t-35 -59.5t-23.5 -33.5z" />
<glyph unicode="&#x201e;" horiz-adv-x="657" d="M-29 -412q0 12 6.5 41t13.5 68t17 84t21 90q23 106 51 235q10 41 50 58.5t79 3.5q18 -8 33.5 -22.5t24.5 -32t10 -37t-9 -37.5q-61 -117 -114 -213q-23 -41 -45.5 -82t-42 -76t-35 -59.5t-21.5 -34.5zM274 -412q2 12 7.5 41t13.5 68t17.5 84t19.5 90q23 106 53 235 q10 41 49 59.5t80 2.5q18 -6 33.5 -20.5t25 -33t10 -38t-9.5 -37.5q-61 -117 -114 -213q-23 -41 -45.5 -82t-42 -76t-34.5 -59.5t-24 -34.5z" />
<glyph unicode="&#x2022;" horiz-adv-x="471" d="M76 737q0 66 47 113t113 47t112.5 -47t46.5 -113t-47 -112.5t-112 -46.5q-66 0 -113 47t-47 112z" />
<glyph unicode="&#x2026;" horiz-adv-x="2064" d="M244 94q0 43 29.5 73t70.5 30t70.5 -30t29.5 -71q0 -43 -29.5 -72.5t-70.5 -29.5t-70.5 29.5t-29.5 70.5zM932 94q0 43 29.5 73t70.5 30t71 -30t30 -71q0 -43 -30 -72.5t-71 -29.5t-70.5 29.5t-29.5 70.5zM1620 94q0 43 29.5 73t70.5 30t71 -30t30 -71q0 -43 -30 -72.5 t-71 -29.5t-70.5 29.5t-29.5 70.5z" />
<glyph unicode="&#x202f;" horiz-adv-x="385" />
<glyph unicode="&#x2039;" horiz-adv-x="487" d="M92 465v147l303 242v-59l-243 -195l243 -192v-183z" />
<glyph unicode="&#x203a;" horiz-adv-x="487" d="M92 225v60l244 194l-244 193v182l303 -242v-147z" />
<glyph unicode="&#x205f;" horiz-adv-x="482" />
<glyph unicode="&#x2122;" horiz-adv-x="1304" d="M92 1448v27h363v-27h-138v-600h-88v600h-137zM549 848v627h96l229 -584l230 584h90v-627h-90v547l-215 -547h-92l-215 541v-541h-33z" />
<glyph unicode="&#x25fc;" horiz-adv-x="1064" d="M0 0v1065h1065v-1065h-1065z" />
<glyph unicode="&#xfb01;" horiz-adv-x="761" d="M0 1020v41h111v272q0 78 39.5 120t138.5 42q41 0 78 -16v-43q-10 8 -21.5 10t-21.5 2q-29 0 -41.5 -33t-12.5 -82v-272h381v-942q0 -29 10.5 -54.5t36.5 -25.5q16 0 28.5 7t21.5 13v-51q-31 -14 -78 -14q-98 0 -138 42t-40 120v864h-222v-1020h-159v1020h-111zM471 1413 q0 39 33 60.5t67 21.5q35 0 68 -21.5t33 -60.5t-33 -61.5t-68 -22.5t-67.5 22.5t-32.5 61.5z" />
<glyph unicode="&#xfb02;" horiz-adv-x="761" d="M0 1020v41h111v190q0 49 18 94.5t53 78t85 52t114 19.5q63 0 113.5 -19.5t85 -52t53 -78t18.5 -94.5v-1132q0 -29 10.5 -54.5t36.5 -25.5q16 0 28.5 7t21.5 13v-51q-31 -14 -78 -14q-98 0 -138 42t-40 120v1095q0 84 -29 143.5t-82 59.5t-82 -59.5t-29 -143.5v-190h111 v-41h-111v-1020h-159v1020h-111z" />
</font>
</defs>
</svg>
