<?xml version="1.0" encoding="UTF-8" standalone="no"?>
<svg width="35px" height="35px" viewBox="0 0 35 35" version="1.1" xmlns="http://www.w3.org/2000/svg" xmlns:xlink="http://www.w3.org/1999/xlink" xmlns:sketch="http://www.bohemiancoding.com/sketch/ns">
    <!-- Generator: Sketch 3.3.3 (12072) - http://www.bohemiancoding.com/sketch -->
    <title>icon-vemeo</title>
    <desc>Created with Sketch.</desc>
    <defs></defs>
    <g id="Welcome" stroke="none" stroke-width="1" fill="none" fill-rule="evenodd" sketch:type="MSPage">
        <g id="Accueil---Desktop" sketch:type="MSArtboardGroup" transform="translate(-1073.000000, -5185.000000)">
            <g id="Contact/footer" sketch:type="MSLayerGroup" transform="translate(0.000000, 4318.000000)">
                <g id="social" transform="translate(813.000000, 867.000000)" sketch:type="MSShapeGroup">
                    <g id="icon-vemeo" transform="translate(260.000000, 0.000000)">
                        <path d="M17.771,34.365 C27.165,34.365 34.78,26.75 34.78,17.357 C34.78,7.964 27.165,0.35 17.771,0.35 C8.379,0.35 0.763,7.964 0.763,17.357 C0.763,26.75 8.379,34.365 17.771,34.365" id="Fill-5" fill="#1C1C1C"></path>
                        <path d="M26.266,13.806 C26.191,15.46 25.033,17.721 22.8,20.59 C20.487,23.59 18.528,25.089 16.928,25.089 C15.937,25.089 15.099,24.177 14.413,22.347 C13.954,20.669 13.498,18.989 13.04,17.315 C12.53,15.484 11.984,14.569 11.4,14.569 C11.273,14.569 10.83,14.836 10.066,15.371 L9.267,14.34 C10.104,13.605 10.931,12.867 11.745,12.131 C12.861,11.165 13.7,10.658 14.261,10.605 C15.58,10.477 16.394,11.38 16.701,13.311 C17.028,15.395 17.259,16.692 17.386,17.2 C17.768,18.928 18.185,19.79 18.644,19.79 C18.998,19.79 19.532,19.232 20.244,18.115 C20.956,16.996 21.336,16.145 21.388,15.56 C21.489,14.594 21.108,14.114 20.244,14.114 C19.838,14.114 19.418,14.2 18.986,14.38 C19.826,11.661 21.427,10.339 23.79,10.416 C25.542,10.465 26.368,11.597 26.266,13.806" id="Fill-6" fill="#F0D083"></path>
                    </g>
                </g>
            </g>
        </g>
    </g>
</svg>