<?xml version="1.0" encoding="UTF-8" standalone="no"?>
<svg width="35px" height="35px" viewBox="0 0 35 35" version="1.1" xmlns="http://www.w3.org/2000/svg" xmlns:xlink="http://www.w3.org/1999/xlink" xmlns:sketch="http://www.bohemiancoding.com/sketch/ns">
    <!-- Generator: Sketch 3.3.3 (12072) - http://www.bohemiancoding.com/sketch -->
    <title>icon-twiter</title>
    <desc>Created with Sketch.</desc>
    <defs></defs>
    <g id="Welcome" stroke="none" stroke-width="1" fill="none" fill-rule="evenodd" sketch:type="MSPage">
        <g id="Accueil---Desktop" sketch:type="MSArtboardGroup" transform="translate(-1008.000000, -5185.000000)">
            <g id="Contact/footer" sketch:type="MSLayerGroup" transform="translate(0.000000, 4318.000000)">
                <g id="social" transform="translate(813.000000, 867.000000)" sketch:type="MSShapeGroup">
                    <g id="icon-twiter" transform="translate(195.000000, 0.000000)">
                        <path d="M17.557,34.365 C26.95,34.365 34.565,26.751 34.565,17.357 C34.565,7.965 26.95,0.35 17.557,0.35 C8.164,0.35 0.549,7.965 0.549,17.357 C0.549,26.751 8.164,34.365 17.557,34.365" id="Fill-1" fill="#1C1C1C"></path>
                        <path d="M26.09,12.902 C25.463,13.18 24.789,13.368 24.082,13.452 C24.805,13.02 25.359,12.335 25.619,11.519 C24.943,11.919 24.196,12.21 23.399,12.366 C22.763,11.687 21.853,11.263 20.848,11.263 C18.919,11.263 17.353,12.828 17.353,14.758 C17.353,15.032 17.383,15.298 17.443,15.554 C14.539,15.408 11.964,14.018 10.239,11.901 C9.938,12.419 9.766,13.02 9.766,13.66 C9.766,14.872 10.383,15.942 11.321,16.569 C10.748,16.552 10.208,16.393 9.737,16.133 L9.737,16.176 C9.737,17.87 10.941,19.283 12.541,19.603 C12.248,19.685 11.939,19.726 11.62,19.726 C11.395,19.726 11.175,19.705 10.963,19.664 C11.407,21.052 12.698,22.064 14.227,22.09 C13.031,23.028 11.524,23.587 9.887,23.587 C9.604,23.587 9.326,23.571 9.053,23.539 C10.6,24.529 12.437,25.108 14.411,25.108 C20.841,25.108 24.355,19.783 24.355,15.164 C24.355,15.012 24.352,14.86 24.346,14.711 C25.029,14.218 25.623,13.602 26.09,12.902" id="Fill-2" fill="#F0D083"></path>
                    </g>
                </g>
            </g>
        </g>
    </g>
</svg>