<?xml version="1.0" encoding="UTF-8" standalone="no"?>
<svg width="32px" height="32px" viewBox="0 0 32 32" version="1.1" xmlns="http://www.w3.org/2000/svg" xmlns:xlink="http://www.w3.org/1999/xlink" xmlns:sketch="http://www.bohemiancoding.com/sketch/ns">
    <!-- Generator: Sketch 3.3.3 (12072) - http://www.bohemiancoding.com/sketch -->
    <title>icon-clock</title>
    <desc>Created with Sketch.</desc>
    <defs></defs>
    <g id="Welcome" stroke="none" stroke-width="1" fill="none" fill-rule="evenodd" sketch:type="MSPage">
        <g id="Accueil---Desktop" sketch:type="MSArtboardGroup" transform="translate(-1155.000000, -3552.000000)" fill="#000000">
            <g id="Events-to-Come" sketch:type="MSLayerGroup" transform="translate(471.000000, 3240.000000)">
                <g id="Reservation-widget" transform="translate(668.000000, 168.000000)" sketch:type="MSShapeGroup">
                    <g id="icon-clock" transform="translate(16.000000, 144.000000)">
                        <g id="Group">
                            <path d="M20.9293333,19.7213333 C20.8093333,19.7213333 20.688,19.6886667 20.5786667,19.6213333 L15.3333333,16.3693333 L15.3333333,7.45266667 C15.3333333,7.08466667 15.632,6.786 16,6.786 C16.3686667,6.786 16.6666667,7.08466667 16.6666667,7.45266667 L16.6666667,15.6266667 L21.2813333,18.488 C21.594,18.682 21.69,19.0926667 21.496,19.406 C21.37,19.6093333 21.1526667,19.7213333 20.9293333,19.7213333 L20.9293333,19.7213333 Z" id="Shape"></path>
                            <path d="M29.998,32 L2.002,32 C0.899333333,32 0.002,31.1026667 0.002,30 L0.002,2 C0.002,0.897333333 0.899333333,0 2.002,0 L29.998,0 C31.1006667,0 31.998,0.897333333 31.998,2 L31.998,30 C31.998,31.1026667 31.1006667,32 29.998,32 L29.998,32 Z M2.002,1.33333333 C1.63466667,1.33333333 1.33533333,1.63266667 1.33533333,2 L1.33533333,30 C1.33533333,30.368 1.63466667,30.6666667 2.002,30.6666667 L29.998,30.6666667 C30.366,30.6666667 30.6646667,30.368 30.6646667,30 L30.6646667,2 C30.6646667,1.63266667 30.366,1.33333333 29.998,1.33333333 L2.002,1.33333333 L2.002,1.33333333 Z" id="Shape"></path>
                            <path d="M16,32 C15.632,32 15.3333333,31.702 15.3333333,31.3333333 L15.3333333,27.1346667 C15.3333333,26.766 15.632,26.468 16,26.468 C16.3686667,26.468 16.6666667,26.766 16.6666667,27.1346667 L16.6666667,31.3333333 C16.6666667,31.702 16.3686667,32 16,32 L16,32 Z" id="Shape"></path>
                            <path d="M16,5.53 C15.632,5.53 15.3333333,5.23133333 15.3333333,4.86333333 L15.3333333,0.666666667 C15.3333333,0.298666667 15.632,0 16,0 C16.3686667,0 16.6666667,0.298666667 16.6666667,0.666666667 L16.6666667,4.86333333 C16.6666667,5.23133333 16.3686667,5.53 16,5.53 L16,5.53 Z" id="Shape"></path>
                            <path d="M4.86266667,16.6646667 L0.668666667,16.6646667 C0.300666667,16.6646667 0.002,16.3666667 0.002,15.998 C0.002,15.63 0.300666667,15.3313333 0.668666667,15.3313333 L4.86266667,15.3313333 C5.23066667,15.3313333 5.52933333,15.63 5.52933333,15.998 C5.52933333,16.3666667 5.23066667,16.6646667 4.86266667,16.6646667 L4.86266667,16.6646667 Z" id="Shape"></path>
                            <path d="M31.3313333,16.6646667 L27.1333333,16.6646667 C26.7646667,16.6646667 26.4666667,16.3666667 26.4666667,15.998 C26.4666667,15.63 26.7646667,15.3313333 27.1333333,15.3313333 L31.3313333,15.3313333 C31.7,15.3313333 31.998,15.63 31.998,15.998 C31.998,16.3666667 31.7,16.6646667 31.3313333,16.6646667 L31.3313333,16.6646667 Z" id="Shape"></path>
                        </g>
                    </g>
                </g>
            </g>
        </g>
    </g>
</svg>