<?xml version="1.0" encoding="UTF-8" standalone="no"?>
<svg width="32px" height="32px" viewBox="0 0 32 32" version="1.1" xmlns="http://www.w3.org/2000/svg" xmlns:xlink="http://www.w3.org/1999/xlink" xmlns:sketch="http://www.bohemiancoding.com/sketch/ns">
    <!-- Generator: Sketch 3.3.3 (12072) - http://www.bohemiancoding.com/sketch -->
    <title>icon-person</title>
    <desc>Created with Sketch.</desc>
    <defs></defs>
    <g id="Welcome" stroke="none" stroke-width="1" fill="none" fill-rule="evenodd" sketch:type="MSPage">
        <g id="Accueil---Desktop" sketch:type="MSArtboardGroup" transform="translate(-1155.000000, -3613.000000)" fill="#000000">
            <g id="Events-to-Come" sketch:type="MSLayerGroup" transform="translate(471.000000, 3240.000000)">
                <g id="Reservation-widget" transform="translate(668.000000, 168.000000)" sketch:type="MSShapeGroup">
                    <g id="icon-person" transform="translate(16.000000, 205.000000)">
                        <g id="Group">
                            <path d="M15.9986667,13.8466667 C12.1313333,13.8466667 8.98466667,10.7406667 8.98466667,6.92266667 C8.98533333,3.10533333 12.132,0 15.9986667,0 C19.864,0 23.0093333,3.10533333 23.0093333,6.92266667 C23.0093333,10.7406667 19.864,13.8466667 15.9986667,13.8466667 L15.9986667,13.8466667 Z M15.9986667,1.33333333 C12.8666667,1.33333333 10.3186667,3.84066667 10.318,6.92266667 C10.318,10.0053333 12.866,12.5133333 15.9986667,12.5133333 C19.1286667,12.5133333 21.676,10.0053333 21.676,6.92266667 C21.676,3.84066667 19.1286667,1.33333333 15.9986667,1.33333333 L15.9986667,1.33333333 Z" id="Shape"></path>
                            <path d="M31.3326667,32 L0.667333333,32 C0.299333333,32 0.000666666667,31.702 0.000666666667,31.3333333 C0.000666666667,22.6273333 7.17733333,15.5446667 15.9986667,15.5446667 C24.8213333,15.5446667 31.9993333,22.628 31.9993333,31.3333333 C31.9993333,31.702 31.7013333,32 31.3326667,32 L31.3326667,32 Z M1.34933333,30.6666667 L30.6506667,30.6666667 C30.296,23.004 23.86,16.8773333 15.9986667,16.8773333 C8.13866667,16.8773333 1.704,23.004 1.34933333,30.6666667 L1.34933333,30.6666667 Z" id="Shape"></path>
                        </g>
                    </g>
                </g>
            </g>
        </g>
    </g>
</svg>