<?xml version="1.0" encoding="UTF-8" standalone="no"?>
<svg width="35px" height="35px" viewBox="0 0 35 35" version="1.1" xmlns="http://www.w3.org/2000/svg" xmlns:xlink="http://www.w3.org/1999/xlink" xmlns:sketch="http://www.bohemiancoding.com/sketch/ns">
    <!-- Generator: Sketch 3.3.3 (12072) - http://www.bohemiancoding.com/sketch -->
    <title>icon-fb</title>
    <desc>Created with Sketch.</desc>
    <defs></defs>
    <g id="Welcome" stroke="none" stroke-width="1" fill="none" fill-rule="evenodd" sketch:type="MSPage">
        <g id="Accueil---Desktop" sketch:type="MSArtboardGroup" transform="translate(-813.000000, -5185.000000)">
            <g id="Contact/footer" sketch:type="MSLayerGroup" transform="translate(0.000000, 4318.000000)">
                <g id="social" transform="translate(813.000000, 867.000000)" sketch:type="MSShapeGroup">
                    <g id="icon-fb" transform="translate(0.000000, 0.000000)">
                        <path d="M17.605,34.365 C26.998,34.365 34.613,26.751 34.613,17.357 C34.613,7.965 26.998,0.35 17.605,0.35 C8.212,0.35 0.597,7.965 0.597,17.357 C0.597,26.751 8.212,34.365 17.605,34.365" id="Fill-3" fill="#1C1C1C"></path>
                        <path d="M13.502,14.477 L15.26,14.477 L15.26,12.769 C15.26,12.015 15.279,10.853 15.827,10.133 C16.403,9.371 17.195,8.853 18.556,8.853 C20.774,8.853 21.708,9.169 21.708,9.169 L21.269,11.774 C21.269,11.774 20.536,11.562 19.852,11.562 C19.168,11.562 18.556,11.808 18.556,12.491 L18.556,14.477 L21.36,14.477 L21.165,17.022 L18.556,17.022 L18.556,25.861 L15.26,25.861 L15.26,17.022 L13.502,17.022 L13.502,14.477" id="Fill-4" fill="#F0D083"></path>
                    </g>
                </g>
            </g>
        </g>
    </g>
</svg>