<?xml version="1.0" encoding="UTF-8" standalone="no"?>
<svg width="35px" height="35px" viewBox="0 0 35 35" version="1.1" xmlns="http://www.w3.org/2000/svg" xmlns:xlink="http://www.w3.org/1999/xlink" xmlns:sketch="http://www.bohemiancoding.com/sketch/ns">
    <!-- Generator: Sketch 3.3.3 (12072) - http://www.bohemiancoding.com/sketch -->
    <title>icon-soundcloud</title>
    <desc>Created with Sketch.</desc>
    <defs></defs>
    <g id="Welcome" stroke="none" stroke-width="1" fill="none" fill-rule="evenodd" sketch:type="MSPage">
        <g id="Accueil---Desktop" sketch:type="MSArtboardGroup" transform="translate(-943.000000, -5185.000000)">
            <g id="Contact/footer" sketch:type="MSLayerGroup" transform="translate(0.000000, 4318.000000)">
                <g id="social" transform="translate(813.000000, 867.000000)" sketch:type="MSShapeGroup">
                    <g id="icon-soundcloud" transform="translate(130.000000, 0.000000)">
                        <path d="M17.605,34.412 C26.999,34.412 34.613,26.797 34.613,17.404 C34.613,8.011 26.999,0.396 17.605,0.396 C8.211,0.396 0.598,8.011 0.598,17.404 C0.598,26.797 8.211,34.412 17.605,34.412" id="Fill-8" fill="#1C1C1C"></path>
                        <path d="M9.922,20.161 C9.958,20.161 9.988,20.132 9.993,20.092 L10.184,18.598 L9.994,17.07 C9.988,17.03 9.958,17.002 9.922,17.002 C9.887,17.002 9.857,17.031 9.852,17.07 L9.685,18.598 L9.852,20.092 C9.857,20.132 9.887,20.161 9.922,20.161 L9.922,20.161 Z M9.294,19.593 C9.328,19.593 9.356,19.566 9.362,19.527 L9.509,18.598 L9.362,17.653 C9.356,17.614 9.328,17.587 9.294,17.587 C9.258,17.587 9.23,17.615 9.226,17.654 L9.101,18.598 L9.226,19.527 C9.23,19.565 9.258,19.593 9.294,19.593 L9.294,19.593 Z M10.676,16.786 C10.671,16.738 10.635,16.702 10.591,16.702 C10.546,16.702 10.51,16.738 10.505,16.786 C10.505,16.787 10.347,18.599 10.347,18.599 L10.505,20.345 C10.51,20.393 10.546,20.428 10.591,20.428 C10.635,20.428 10.671,20.393 10.676,20.345 L10.856,18.599 L10.676,16.786 L10.676,16.786 Z M11.265,20.498 C11.316,20.498 11.359,20.456 11.364,20.4 L11.534,18.599 L11.364,16.737 C11.359,16.68 11.316,16.639 11.265,16.639 C11.212,16.639 11.169,16.68 11.165,16.737 L11.015,18.599 L11.165,20.4 C11.169,20.456 11.212,20.498 11.265,20.498 L11.265,20.498 Z M11.944,20.527 C12.004,20.527 12.053,20.479 12.058,20.415 L12.218,18.599 L12.058,16.871 C12.053,16.807 12.004,16.759 11.944,16.759 C11.882,16.759 11.833,16.808 11.829,16.872 L11.687,18.599 L11.829,20.415 C11.833,20.479 11.882,20.527 11.944,20.527 L11.944,20.527 Z M12.908,18.6 L12.757,15.789 C12.753,15.718 12.696,15.662 12.628,15.662 C12.56,15.662 12.503,15.718 12.499,15.789 L12.367,18.6 L12.499,20.416 C12.503,20.487 12.56,20.543 12.628,20.543 C12.696,20.543 12.753,20.487 12.757,20.415 L12.757,20.416 L12.908,18.6 L12.908,18.6 Z M13.318,20.546 C13.394,20.546 13.457,20.483 13.461,20.404 L13.461,20.405 L13.602,18.6 L13.461,15.147 C13.457,15.067 13.394,15.005 13.318,15.005 C13.241,15.005 13.178,15.067 13.175,15.147 L13.051,18.6 L13.175,20.405 C13.178,20.483 13.241,20.546 13.318,20.546 L13.318,20.546 Z M14.014,14.703 C13.928,14.703 13.859,14.772 13.856,14.859 L13.74,18.6 L13.856,20.387 C13.859,20.474 13.928,20.542 14.014,20.542 C14.099,20.542 14.168,20.474 14.171,20.386 L14.171,20.387 L14.302,18.6 L14.171,14.859 C14.168,14.772 14.099,14.703 14.014,14.703 L14.014,14.703 Z M14.715,20.546 C14.809,20.546 14.884,20.471 14.887,20.375 L14.887,20.376 L15.008,18.601 L14.887,14.733 C14.884,14.637 14.809,14.562 14.715,14.562 C14.621,14.562 14.545,14.637 14.542,14.733 L14.435,18.6 L14.542,20.376 C14.545,20.471 14.621,20.546 14.715,20.546 L14.715,20.546 Z M15.421,20.544 C15.523,20.544 15.605,20.462 15.608,20.358 L15.608,20.359 L15.719,18.601 L15.608,14.832 C15.605,14.728 15.523,14.646 15.421,14.646 C15.319,14.646 15.236,14.728 15.234,14.832 L15.136,18.601 L15.234,20.359 C15.236,20.462 15.319,20.544 15.421,20.544 L15.421,20.544 Z M16.435,18.601 L16.335,14.969 C16.332,14.857 16.244,14.769 16.133,14.769 C16.023,14.769 15.934,14.857 15.932,14.97 L15.842,18.601 L15.932,20.349 C15.934,20.459 16.023,20.547 16.133,20.547 C16.244,20.547 16.332,20.459 16.335,20.347 L16.335,20.349 L16.435,18.601 L16.435,18.601 Z M16.851,20.551 C16.967,20.551 17.064,20.454 17.066,20.335 L17.066,20.337 L17.157,18.601 L17.066,14.28 C17.064,14.162 16.967,14.066 16.851,14.066 C16.733,14.066 16.637,14.162 16.635,14.28 L16.553,18.6 C16.553,18.603 16.635,20.337 16.635,20.337 C16.637,20.454 16.733,20.551 16.851,20.551 L16.851,20.551 Z M17.565,13.66 C17.439,13.66 17.336,13.763 17.334,13.89 L17.24,18.602 L17.334,20.312 C17.336,20.436 17.439,20.54 17.565,20.54 C17.69,20.54 17.794,20.436 17.795,20.311 L17.795,20.312 L17.898,18.602 L17.795,13.889 C17.794,13.763 17.69,13.66 17.565,13.66 L17.565,13.66 Z M18.219,20.552 C18.224,20.553 23.98,20.555 24.017,20.555 C25.173,20.555 26.109,19.619 26.109,18.463 C26.109,17.308 25.173,16.372 24.017,16.372 C23.731,16.372 23.457,16.43 23.208,16.534 C23.041,14.648 21.461,13.169 19.532,13.169 C19.06,13.169 18.6,13.262 18.194,13.419 C18.036,13.48 17.994,13.544 17.993,13.666 L17.993,20.305 C17.994,20.433 18.093,20.54 18.219,20.552 L18.219,20.552 Z" id="Fill-10" fill="#F0D083"></path>
                    </g>
                </g>
            </g>
        </g>
    </g>
</svg>